<svg id="page_1_and_page_6" data-name="page 1 and page 6" xmlns="http://www.w3.org/2000/svg" viewBox="0 0 248.18 248.18"><defs><style>.cls-1{fill:#f9ce12;}.cls-2{fill:#edb220;opacity:0.4;}.cls-3{fill:#fff;}</style></defs><title>brightness_icon</title><circle class="cls-1" cx="124.09" cy="124.09" r="124.09"/><path class="cls-2" d="M-3123.5,3361.15a124.13,124.13,0,0,0,109.71-109.8l-68.45-68.45-10.62,18.45-39.94-39.94-8.11,27.78,19.33,19.33-6.44,2.5-13.48-6.52-10.32,8-28.41-28.41-11.4,9.8,23.37,23.37-1.19,30.81-18.31-16.37-24.53,10.56-0.57.58,41,40.38-18.53,11Z" transform="translate(3261.22 -3113.72)"/><path class="cls-3" d="M-3174.46,3238a37.39,37.39,0,0,1,37.26-37.44,37.29,37.29,0,0,1,37.39,37.54,37.27,37.27,0,0,1-37.37,37.06A37.33,37.33,0,0,1-3174.46,3238Zm37.35,29.65a29.81,29.81,0,0,0,29.82-29.72A29.9,29.9,0,0,0-3137,3208a29.9,29.9,0,0,0-29.94,29.88A29.85,29.85,0,0,0-3137.11,3267.6Z" transform="translate(3261.22 -3113.72)"/><path class="cls-3" d="M-3137.41,3277.61a39.15,39.15,0,0,1-27.69-11.48A39.61,39.61,0,0,1-3177,3238h0a39.51,39.51,0,0,1,11.6-28.19A39.62,39.62,0,0,1-3137.2,3198h0.12a39.42,39.42,0,0,1,28,11.57,39.89,39.89,0,0,1,11.74,28.47c0,21.67-17.89,39.42-39.85,39.55h-0.25Zm0.32-74.6h-0.1a34.66,34.66,0,0,0-24.62,10.29,34.54,34.54,0,0,0-10.15,24.65h0a34.64,34.64,0,0,0,10.37,24.63,34.17,34.17,0,0,0,24.17,10h0.22c19.22-.12,34.87-15.62,34.88-34.56a34.92,34.92,0,0,0-10.27-24.93A34.46,34.46,0,0,0-3137.09,3203Zm0,67.09h0a32.35,32.35,0,0,1-32.33-32.22,32.16,32.16,0,0,1,9.57-23,32,32,0,0,1,22.7-9.42h0.19a32.48,32.48,0,0,1,32.2,32.38,31.91,31.91,0,0,1-9.44,22.73A32.12,32.12,0,0,1-3137.09,3270.1Zm-0.09-59.61a27,27,0,0,0-19.17,8,27.2,27.2,0,0,0-8.1,19.42,27.34,27.34,0,0,0,27.33,27.23h0a27.16,27.16,0,0,0,19.33-8,27,27,0,0,0,8-19.2,27.47,27.47,0,0,0-27.23-27.39h-0.16Z" transform="translate(3261.22 -3113.72)"/><path class="cls-3" d="M-3110.44,3211a37.47,37.47,0,0,0-26.65-11h-0.11a37.66,37.66,0,0,0-26.76,11.18,37.55,37.55,0,0,0-11,26.79,37.65,37.65,0,0,0,11.27,26.78,37.18,37.18,0,0,0,26.31,10.91h0.23a38.18,38.18,0,0,0,26.82-11.07,37.13,37.13,0,0,0,11.07-26.52A37.93,37.93,0,0,0-3110.44,3211Zm-0.66,52.84a37.12,37.12,0,0,1-26.08,10.76A36.2,36.2,0,0,1-3163,3264a36.6,36.6,0,0,1-11-26,36.5,36.5,0,0,1,10.72-26,36.61,36.61,0,0,1,26-10.87h0.11a36.42,36.42,0,0,1,25.9,10.69,36.88,36.88,0,0,1,10.85,26.33A36.07,36.07,0,0,1-3111.1,3263.82Z" transform="translate(3261.22 -3113.72)"/><path class="cls-3" d="M-3137.41,3278.14a39.69,39.69,0,0,1-28.06-11.63,40.14,40.14,0,0,1-12-28.54,40,40,0,0,1,11.75-28.57,40.15,40.15,0,0,1,28.53-11.92h0.12a40,40,0,0,1,28.42,11.73h0a40.42,40.42,0,0,1,11.89,28.85,39.62,39.62,0,0,1-11.81,28.29,40.66,40.66,0,0,1-28.56,11.79h-0.25Zm0.21-74.6a34.12,34.12,0,0,0-24.24,10.13,34,34,0,0,0-10,24.27,34.11,34.11,0,0,0,10.22,24.26,33.68,33.68,0,0,0,23.83,9.88h0.19a34.64,34.64,0,0,0,24.33-10h0a33.59,33.59,0,0,0,10-24A34.4,34.4,0,0,0-3113,3213.5a33.94,33.94,0,0,0-24.14-10h-0.11Z" transform="translate(3261.22 -3113.72)"/><path class="cls-3" d="M-3137,3207.46a30,30,0,0,0-21.49,8.84,30.21,30.21,0,0,0-9,21.57,30.37,30.37,0,0,0,30.36,30.26h0a30.17,30.17,0,0,0,21.47-8.91,30,30,0,0,0,8.86-21.34A30.51,30.51,0,0,0-3137,3207.46Zm20.63,51a29.12,29.12,0,0,1-20.72,8.6h0a29.31,29.31,0,0,1-29.3-29.2,29.15,29.15,0,0,1,8.68-20.82,29,29,0,0,1,20.56-8.53h0.17a29.45,29.45,0,0,1,29.19,29.36A28.91,28.91,0,0,1-3116.37,3258.47Z" transform="translate(3261.22 -3113.72)"/><path class="cls-3" d="M-3137.09,3270.63a32.88,32.88,0,0,1-32.88-32.75,32.69,32.69,0,0,1,9.72-23.35A32.56,32.56,0,0,1-3137,3205a33,33,0,0,1,32.72,32.91,32.45,32.45,0,0,1-9.59,23.11A32.66,32.66,0,0,1-3137.09,3270.63ZM-3137,3211h-0.16a26.51,26.51,0,0,0-18.8,7.8,26.67,26.67,0,0,0-7.94,19,26.81,26.81,0,0,0,26.8,26.7,26.65,26.65,0,0,0,19-7.87h0a26.43,26.43,0,0,0,7.82-18.82A26.94,26.94,0,0,0-3137,3211Z" transform="translate(3261.22 -3113.72)"/><rect class="cls-3" x="119.07" y="48.94" width="10.04" height="25.05" rx="5.02" ry="5.02"/><path class="cls-3" d="M-3137.13,3190.22a7.53,7.53,0,0,1-7.52-7.52v-15a7.53,7.53,0,0,1,7.52-7.52,7.53,7.53,0,0,1,7.52,7.52v15A7.53,7.53,0,0,1-3137.13,3190.22Zm0-25a2.52,2.52,0,0,0-2.52,2.52v15a2.52,2.52,0,0,0,2.52,2.52,2.52,2.52,0,0,0,2.52-2.52v-15A2.52,2.52,0,0,0-3137.13,3165.17Z" transform="translate(3261.22 -3113.72)"/><rect class="cls-3" x="119.07" y="174.19" width="10.04" height="25.05" rx="5.02" ry="5.02"/><path class="cls-3" d="M-3137.13,3315.46a7.53,7.53,0,0,1-7.52-7.52v-15a7.53,7.53,0,0,1,7.52-7.52,7.53,7.53,0,0,1,7.52,7.52v15A7.53,7.53,0,0,1-3137.13,3315.46Zm0-25a2.52,2.52,0,0,0-2.52,2.52v15a2.52,2.52,0,0,0,2.52,2.52,2.52,2.52,0,0,0,2.52-2.52v-15A2.52,2.52,0,0,0-3137.13,3290.41Z" transform="translate(3261.22 -3113.72)"/><rect class="cls-3" x="-3097.87" y="3181.01" width="10.04" height="25.05" rx="5.02" ry="5.02" transform="translate(4613.51 8.62) rotate(45)"/><path class="cls-3" d="M-3098.16,3206.36a7.5,7.5,0,0,1-5.32-2.2h0a7.53,7.53,0,0,1,0-10.63l10.62-10.61a7.47,7.47,0,0,1,5.32-2.2,7.46,7.46,0,0,1,5.32,2.2,7.53,7.53,0,0,1,0,10.63l-10.61,10.61A7.5,7.5,0,0,1-3098.16,3206.36Zm-1.78-5.73a2.52,2.52,0,0,0,3.56,0l10.61-10.61a2.52,2.52,0,0,0,0-3.56,2.6,2.6,0,0,0-3.56,0l-10.62,10.61A2.52,2.52,0,0,0-3099.94,3200.62Z" transform="translate(3261.22 -3113.72)"/><rect class="cls-3" x="-3186.43" y="3269.57" width="10.04" height="25.05" rx="5.02" ry="5.02" transform="translate(4650.2 97.18) rotate(45)"/><path class="cls-3" d="M-3186.72,3294.92a7.5,7.5,0,0,1-5.32-2.2h0a7.47,7.47,0,0,1-2.2-5.32,7.46,7.46,0,0,1,2.2-5.32l10.61-10.61a7.46,7.46,0,0,1,5.32-2.2,7.47,7.47,0,0,1,5.32,2.2,7.46,7.46,0,0,1,2.2,5.32,7.47,7.47,0,0,1-2.2,5.32l-10.61,10.61A7.49,7.49,0,0,1-3186.72,3294.92Zm-1.78-5.73a2.53,2.53,0,0,0,3.56,0l10.61-10.61a2.5,2.5,0,0,0,.73-1.78,2.5,2.5,0,0,0-.73-1.78,2.6,2.6,0,0,0-3.56,0l-10.61,10.61a2.5,2.5,0,0,0-.73,1.78A2.5,2.5,0,0,0-3188.5,3289.18Z" transform="translate(3261.22 -3113.72)"/><rect class="cls-3" x="-3186.43" y="3181.01" width="10.04" height="25.05" rx="5.02" ry="5.02" transform="translate(71.24 -4427.96) rotate(-45)"/><path class="cls-3" d="M-3176.11,3206.35a7.46,7.46,0,0,1-5.32-2.2l-10.61-10.61a7.53,7.53,0,0,1,0-10.63,7.46,7.46,0,0,1,5.32-2.2,7.47,7.47,0,0,1,5.32,2.2l10.61,10.61a7.53,7.53,0,0,1,0,10.63A7.46,7.46,0,0,1-3176.11,3206.35Zm-10.61-20.64a2.5,2.5,0,0,0-1.78.73,2.52,2.52,0,0,0,0,3.56l10.61,10.61a2.59,2.59,0,0,0,3.56,0h0a2.52,2.52,0,0,0,0-3.56l-10.61-10.61A2.5,2.5,0,0,0-3186.72,3185.71Z" transform="translate(3261.22 -3113.72)"/><rect class="cls-3" x="-3097.87" y="3269.57" width="10.04" height="25.05" rx="5.02" ry="5.02" transform="translate(34.56 -4339.4) rotate(-45)"/><path class="cls-3" d="M-3087.55,3294.92a7.49,7.49,0,0,1-5.32-2.2l-10.61-10.61a7.47,7.47,0,0,1-2.2-5.32,7.46,7.46,0,0,1,2.2-5.32,7.53,7.53,0,0,1,10.63,0l10.61,10.61a7.46,7.46,0,0,1,2.2,5.32,7.47,7.47,0,0,1-2.2,5.32h0A7.5,7.5,0,0,1-3087.55,3294.92Zm-10.61-20.65a2.51,2.51,0,0,0-1.78.74,2.5,2.5,0,0,0-.73,1.78,2.5,2.5,0,0,0,.73,1.78l10.61,10.61a2.53,2.53,0,0,0,3.56,0,2.5,2.5,0,0,0,.73-1.78,2.5,2.5,0,0,0-.73-1.78l-10.61-10.61A2.51,2.51,0,0,0-3098.16,3274.27Z" transform="translate(3261.22 -3113.72)"/><rect class="cls-3" x="-3204.77" y="3225.29" width="10.04" height="25.05" rx="5.02" ry="5.02" transform="translate(-3176.35 -3075.67) rotate(-90)"/><path class="cls-3" d="M-3192.25,3245.33h-15a7.53,7.53,0,0,1-7.52-7.52,7.53,7.53,0,0,1,7.52-7.52h15a7.53,7.53,0,0,1,7.52,7.52A7.53,7.53,0,0,1-3192.25,3245.33Zm-15-10a2.52,2.52,0,0,0-2.52,2.52,2.52,2.52,0,0,0,2.52,2.52h15a2.52,2.52,0,0,0,2.52-2.52,2.52,2.52,0,0,0-2.52-2.52h-15Z" transform="translate(3261.22 -3113.72)"/><rect class="cls-3" x="-3079.53" y="3225.29" width="10.04" height="25.05" rx="5.02" ry="5.02" transform="translate(-3051.1 -2950.42) rotate(-90)"/><path class="cls-3" d="M-3067,3245.33h-15a7.53,7.53,0,0,1-7.52-7.52,7.53,7.53,0,0,1,7.52-7.52h15a7.53,7.53,0,0,1,7.52,7.52A7.53,7.53,0,0,1-3067,3245.33Zm-15-10a2.52,2.52,0,0,0-2.52,2.52,2.52,2.52,0,0,0,2.52,2.52h15a2.52,2.52,0,0,0,2.52-2.52,2.52,2.52,0,0,0-2.52-2.52h-15Z" transform="translate(3261.22 -3113.72)"/><path class="cls-3" d="M-3186.67,3232.79" transform="translate(3261.22 -3113.72)"/></svg>