<svg id="Layer_1" data-name="Layer 1" xmlns="http://www.w3.org/2000/svg" xmlns:xlink="http://www.w3.org/1999/xlink" viewBox="0 0 1668.36 839.74"><defs><style>.cls-1,.cls-2,.cls-77{fill:none;}.cls-2{clip-rule:evenodd;}.cls-3{clip-path:url(#clip-path);}.cls-4{clip-path:url(#clip-path-2);}.cls-5{clip-path:url(#clip-path-3);}.cls-6{fill:#030404;}.cls-7{clip-path:url(#clip-path-4);}.cls-8{clip-path:url(#clip-path-5);}.cls-9{fill:#202020;}.cls-10{clip-path:url(#clip-path-6);}.cls-11{clip-path:url(#clip-path-8);}.cls-12{clip-path:url(#clip-path-10);}.cls-13{clip-path:url(#clip-path-11);}.cls-14{clip-path:url(#clip-path-12);}.cls-15{clip-path:url(#clip-path-14);}.cls-16{clip-path:url(#clip-path-16);}.cls-17{clip-path:url(#clip-path-18);}.cls-18{clip-path:url(#clip-path-20);}.cls-19{clip-path:url(#clip-path-22);}.cls-20{clip-path:url(#clip-path-24);}.cls-21{clip-path:url(#clip-path-26);}.cls-22{clip-path:url(#clip-path-28);}.cls-23{clip-path:url(#clip-path-30);}.cls-24{clip-path:url(#clip-path-32);}.cls-25{clip-path:url(#clip-path-34);}.cls-26{clip-path:url(#clip-path-36);}.cls-27{clip-path:url(#clip-path-38);}.cls-28{clip-path:url(#clip-path-40);}.cls-29{clip-path:url(#clip-path-42);}.cls-30{clip-path:url(#clip-path-44);}.cls-31{clip-path:url(#clip-path-46);}.cls-32{clip-path:url(#clip-path-48);}.cls-33{clip-path:url(#clip-path-50);}.cls-34{clip-path:url(#clip-path-52);}.cls-35{clip-path:url(#clip-path-54);}.cls-36{clip-path:url(#clip-path-56);}.cls-37{clip-path:url(#clip-path-58);}.cls-38{clip-path:url(#clip-path-60);}.cls-39{clip-path:url(#clip-path-62);}.cls-40{clip-path:url(#clip-path-64);}.cls-41{clip-path:url(#clip-path-66);}.cls-42{clip-path:url(#clip-path-68);}.cls-43{clip-path:url(#clip-path-70);}.cls-44{clip-path:url(#clip-path-72);}.cls-45{clip-path:url(#clip-path-74);}.cls-46{clip-path:url(#clip-path-76);}.cls-47{clip-path:url(#clip-path-78);}.cls-48{clip-path:url(#clip-path-80);}.cls-49{clip-path:url(#clip-path-82);}.cls-50{clip-path:url(#clip-path-84);}.cls-51{clip-path:url(#clip-path-86);}.cls-52{clip-path:url(#clip-path-88);}.cls-53{clip-path:url(#clip-path-90);}.cls-54{clip-path:url(#clip-path-92);}.cls-55{clip-path:url(#clip-path-94);}.cls-56{clip-path:url(#clip-path-96);}.cls-57{clip-path:url(#clip-path-98);}.cls-58{clip-path:url(#clip-path-100);}.cls-59{clip-path:url(#clip-path-102);}.cls-60{clip-path:url(#clip-path-104);}.cls-61{clip-path:url(#clip-path-106);}.cls-62{clip-path:url(#clip-path-108);}.cls-63{clip-path:url(#clip-path-110);}.cls-64{clip-path:url(#clip-path-112);}.cls-65{clip-path:url(#clip-path-114);}.cls-66{clip-path:url(#clip-path-116);}.cls-67{clip-path:url(#clip-path-118);}.cls-68{clip-path:url(#clip-path-120);}.cls-69{clip-path:url(#clip-path-122);}.cls-70{clip-path:url(#clip-path-124);}.cls-71{clip-path:url(#clip-path-126);}.cls-72{clip-path:url(#clip-path-128);}.cls-73{clip-path:url(#clip-path-130);}.cls-74{clip-path:url(#clip-path-132);}.cls-75{clip-path:url(#clip-path-134);}.cls-76{clip-path:url(#clip-path-136);}.cls-77{fill-rule:evenodd;}.cls-78,.cls-79{fill:#f9ce12;}.cls-78{opacity:0.3;}.cls-79{opacity:0.5;}</style><clipPath id="clip-path" transform="translate(-4308.5 1563)"><rect class="cls-1" x="4311.77" y="-1508.91" width="933.9" height="484.83"/></clipPath><clipPath id="clip-path-2" transform="translate(-4308.5 1563)"><rect class="cls-1" x="4311.77" y="-1508.91" width="944.31" height="484.83"/></clipPath><clipPath id="clip-path-3" transform="translate(-4308.5 1563)"><rect class="cls-1" x="4311.77" y="-2741.72" width="939.22" height="3261.2"/></clipPath><clipPath id="clip-path-4" transform="translate(-4308.5 1563)"><path class="cls-2" d="M4890-1491.23a13.52,13.52,0,0,0-5.31-.39c-5.43.57-10.6,2.57-15.89,3.9a5.72,5.72,0,0,0-3.47,2.1c3.38-.23,5.8,1.24,8.58.47,1.78-.49,2.57.44,2.34,2.22a1.4,1.4,0,0,1-.68,1.28c-1.57.57-3,2-4.68,1.79-6.64-.76-12.9,1.67-19.34,2.6-2.08.3-4.18,0.43-6.27,0.63a2.36,2.36,0,0,0-2.35,2c-0.09,1.38,1.45,1.41,2.19,1.47,5.34,0.43,10.26,3.49,15.77,2.89-3.53,2.65-7.81.42-12.27,2.37,1.86,0.54,2.78,1.7,4,1.27,1.92-.69,3.45.49,5.14,0.9a0.72,0.72,0,0,1,.74.54c0.59,1.81.64,1.78,1,1.92a17.05,17.05,0,0,0,7.4.8l0,0,0.07,0,0-.06a1.76,1.76,0,0,1,.75-0.66c3.7,0.17,7.37.61,11.11,0a19,19,0,0,1,5.24-.66c6.11,0.7,12.28,1.06,18.16,3.38,1.24,0.49,2.38.62,2.89,2.35,0.37,1.26,1.6,1.74,2.87,2a7.93,7.93,0,0,1,4.83,2.74c2.22,2.91,3.46,6.7,6.66,8.76,0.75,0.49.3,1.39-.11,2.08-0.82,1.35-1.68,2.67-2.4,4.08-0.81,1.58-.43,2.61,1.16,2.73,2.2,0.16,4.55.81,6.36-1.44,0.69-.86,1.52-0.82,2,0.33a2.8,2.8,0,0,0,3.38,2c2.1-.26,3.78,1.43,5.71,2a1.3,1.3,0,0,1,1.12,1.67,1.32,1.32,0,0,1-1.75.93,23.09,23.09,0,0,1-4.09-1.33c-2.76-1.34-5.63-.72-8.46-0.82a0.64,0.64,0,0,0-.57,1,2.11,2.11,0,0,0,.92.48l4.27,1.21,3.08,1.13-3.08-1.13-4.27-1.21a1.6,1.6,0,0,1-1.11.89c-1.25.29-1.71,1.2-1.75,2.57,0,1.56.78,2,2,2.22a6,6,0,0,1,1.16.83c2.86,1.48,5.54.17,8.23-.73a1.2,1.2,0,0,0,.54-0.92c0-.95-0.17-1.82,1.15-1.78a2.46,2.46,0,0,1,2.58,1.56c0.9,2,.23,3.91-0.18,5.7-0.29,1.26-1.86.64-2.88,0.74a11.11,11.11,0,0,0-1.78.11c-3,.78-5,2.87-5.75,6.22-0.62,2.38-.62,2.38,2.52,3.82-2.71,2.83-2.69,3.28.31,5.93a14.32,14.32,0,0,1,1.71,1.38,6.78,6.78,0,0,1,2,4.38c0.06,2.89.36,3,2.56,1.39,1.4-1,2.6-1.78,4-.19a2.24,2.24,0,0,1-1.38,1.28c-2.92,1.57-2.78,1.66-1.11,4.8,0.82,1.54,2.71,1.31,3.12,3a7.38,7.38,0,0,0,3.52,4.5,6.13,6.13,0,0,1,2,2.71,2.92,2.92,0,0,0,1.43,1.65c1.5,0.67,3.3.89,3.72,3.16,0.07,0.41.51,0.37,0.85,0.17,2.48-1.41,5.43-.28,7.94-2.18,0,1.49,0,2.72,1.12,3.22,0.8,0.37,1.93-.41,2.54.8,0.49,1,.31,2.48,1.72,2.69a1.82,1.82,0,0,0,1-.22c0.37-.19.51-0.65,1.13-0.3,2.26,1.28,2.71,1.13,3.31-1.32a7.48,7.48,0,0,1,.81-1.51c1.46-3.59,5.16-6.5,2.79-11.29a1.08,1.08,0,0,1,1-1.6c3.23-.12,4.09-4,6.71-5.08a1.22,1.22,0,0,0,.23-1.05c-1.35-1.92.82-2.83,1.05-3.62-0.46-2-2.34-.89-2.51-2.53a1.58,1.58,0,0,1,.51-0.44c1.81-.26,4.22.84,4.56-2.62a1,1,0,0,1,.9-0.42c3.07,0.86,5.44-.72,7.74-2.6l0,0c-0.14,2.36.38,3,1.7,2,2.57-2.09,5.74-1.69,8.55-2.82a17.36,17.36,0,0,0,8.12-5.83c1.28-1.75,2.72-3.17,4.6-3.41,2.36-.3,1.29-1.6.79-3.12,1,0.44,1.79.73,2.51,1.09,1.3,0.64,2.67,1.38,4,.74,3.7-1.73,7.74-1.1,11.53-2.16,3.21-.9,6.78-0.63,9.66-2.47a45.88,45.88,0,0,1,7.83-3.68,55.37,55.37,0,0,0,7-3.14c-2.94-.16-5.3-0.08-7.63-0.78-3-.88-6-1.4-9.12-0.29a0.53,0.53,0,0,1-.58-0.73,1.42,1.42,0,0,1,.42-0.54c1.14-.32,2.42-0.12,3.42-1,1.46-1.24-1.39-2.14-.26-3.42a2.52,2.52,0,0,0,.26-1c2.63,0.4,4.81,1.21,6.16,4,0.74,1.56,2.63,1.92,4.12,1.83,1.78-.1,3.5-1.34,5.35-0.21a0.78,0.78,0,0,0,.6-0.3c0.68-.78-0.54-5.59-1.42-5.42-1.46.28-1.76-.55-2.26-1.63a3.74,3.74,0,0,0-2.94-2,16,16,0,0,1-8.41-4.57c1.29-1,2.47-1.42,3.23.41a3.12,3.12,0,0,0,2.12,1.89c2.24,0.72,4.5,1.35,6.71,2,0.25-1.32.14-2.88,0.73-3.34,1.17-.93.5-1.45-0.16-1.47-3.6-.15-6.53-3.18-10.47-2.6,2.28-2.28,2.28-2.28,4.1-.94a9.26,9.26,0,0,0,7.86,1.48c0.92-.2,1.83-0.48,2.77-0.63,1.14-.18,3.09.93,3.22-1.17,0.11-1.76-1.83-1.6-3-2a1.87,1.87,0,0,1-.34-0.68c2.65,0.45,5-1,7.51-.84a1.16,1.16,0,0,0,1.31-1c0-1-.81-1.12-1.55-1.16l-2.86-.12a1.41,1.41,0,0,1-1.56-1.66c0.06-1.47,1-1.65,2-1.48a11.09,11.09,0,0,1,1.34.51,1.53,1.53,0,0,0,1.88-.7,1.76,1.76,0,0,0-.28-2.17c-1.39-1.16-2-3.65-4.36-3.26a18.77,18.77,0,0,1-3.21,0,2.16,2.16,0,0,1-2.4-2.27l0-.06c3.39-2,7.06-1.67,10.7-1.55,1.09,1.21.54,3.66,2.76,4.26,0.06-1.64-.46-3.6,1.54-4.26,1.12-2.31-.6-2.41-1.73-2.33a23,23,0,0,1-6.22-.92c-0.69-.14-1.38-0.59-0.64-1.59,1.49,0.08,2.89,1.61,4.77.26-1.61-1.29-3.23-.83-4.77-0.85-1.58-1-3.1-1.49-4.32.61a0.8,0.8,0,0,1-1.19.45,1.31,1.31,0,0,1-.53-0.9c0.05-1.21,3.71-5.58,4.79-5.82,2.34-.52,2.31-0.53,3.78-3.62a3.63,3.63,0,0,1,1.32-1.25,3.62,3.62,0,0,1,3.43-.25c1.65,0.58,2.81-.15,3.82-1.87h-10.26l-0.17-.18c1-1.14,2.21-.74,3.36-0.75,3,0,5.94,0,8.91,0,1.3,0,2.63.08,3.62-1.19a12.83,12.83,0,0,0-8.57-.44,4.6,4.6,0,0,1,4.92-1.37,15.69,15.69,0,0,0,7-.07c2.7-.47,5.14-1.71,7.72-2.45,1.83-.52,3.92-0.66,5.65-2.15a3.37,3.37,0,0,0-.95-0.76c-5.86-1.36-11.8-1.1-17.73-1a3.55,3.55,0,0,0-2,.6c-3.66,2.82-7.85,1.42-11.7,1.37a15,15,0,0,0-6.43,1.13c-1.88.81-3.74,1.7-5.82,1.65l-0.12-.16c0.65-1.69,2.53-1.29,3.48-2.53s0.83-2.5-.46-2.73c-2.34-.41-4.92-0.87-7,0.29-2.51,1.39-5.2,1.7-7.8,2.44-2.18.62-4.52,0.54-6.79,0.76,2.4-2,5.63-.55,8-2.7a19.4,19.4,0,0,0-9.57-.85c-3.09.52-6.16,0.42-9.24,0.64a91.56,91.56,0,0,0-12,1.36c-0.41.09-1,.14-1-1.08,4.83-.6,9.68-1.42,14.57-1.74a122.06,122.06,0,0,1,13.93,0c5.14,0.26,10.17-.92,15.29-1,1.5,0,3-.74,4.54-1.16a1.44,1.44,0,0,0-1.35-1c-3.45-.06-6.82-1.1-10.29-0.9a5.68,5.68,0,0,1-3-.79c-2.06-1.08-4.37-2.21-6.57-2.2-6.78,0-13.5-1.35-20.29-1-2.61.14-5.24,0-7.86,0-0.81,0-1.69.17-2.27-.74h-1.43a1.35,1.35,0,0,1-1.5.79c-4.73-.56-9.41.89-14.15,0.41-1.23-.12-2.54.52-3.86,0.46-0.49,0-1.14.29-.81,0.86,1.09,1.95-.73,2.2-1.27,2-3-.94-6.16-0.19-9.21-0.91-2.64-.62-5.31-1.8-8-1a14.65,14.65,0,0,1-4.94.53c-3.33-.18-6.5,1.06-10.12.88,1.63,1.43,3.67-.11,5,1.92-2.65.74-5.43-1.58-7.88,1.09a29.7,29.7,0,0,0,9.48,2c1.39,0,1.62.5,1.74,1.67a3,3,0,0,1-2.76.1,56.61,56.61,0,0,0-10-2.42c-4.1-.6-8.21-1.1-12.31-1.77a1,1,0,0,0-1.42.75,1.27,1.27,0,0,0,.91,1.46c0.84,0.39,1.7.72,2.8,1.18-5.08,1.46-9.31-2.22-14-1.9,0.76,2.66.76,2.66-2.15,3.27-0.13-3-.38-3.49-3-3.43-3.64.09-7.29,0.85-10.91,0.66-5.76-.3-11.21,2.4-17,1.76a0.74,0.74,0,0,0-.35.07c-0.67.27-1,.4-0.84,1.58,0.34,2.79-.34,3.4-2.69,2.71m48.8,64.16a2.7,2.7,0,0,0-.16-0.55h0a3,3,0,0,1,.15.55m-0.79-.61-1-.08c-1.94-1.19-4-.57-6.05-0.62,2,0.05,4.12-.56,6.05.62l1,0.08m-9.5-8.92,0.25-.13-0.25.13m0-.38,0.19,0.23-0.19-.23-0.5.25,0.5-.25"/></clipPath><clipPath id="clip-path-5" transform="translate(-4308.5 1563)"><rect class="cls-1" x="4345.53" y="-4245.4" width="1752.97" height="6997.34"/></clipPath><clipPath id="clip-path-6" transform="translate(-4308.5 1563)"><path class="cls-2" d="M4417.14-1391.52v2.31c3-.4,6-0.86,8.89.92,1.57,1,2.9-.2,4.75-0.88a33,33,0,0,0-13.64-2.35"/></clipPath><clipPath id="clip-path-8" transform="translate(-4308.5 1563)"><path class="cls-2" d="M5097.39-1188.19c-0.43,1.25-.79,2.49-1.94,3.09a6.62,6.62,0,0,0-3.4,5.12c-0.59,3.49-1.66,6.61-4.28,9-0.48.44-.51,1.42-0.88,2.05-1.4,2.4-1.71,5.33-3.3,7.64-2,2.94-2.09,5.57-.05,8.39,0.82,1.14,1.81,2.15,1.5,3.7a15.91,15.91,0,0,0,.73,8.14,12.31,12.31,0,0,1-.6,8.59,8.14,8.14,0,0,0-.81,3.32,12.57,12.57,0,0,1-2.46,7.88,2.67,2.67,0,0,0,.11,3.7,5.46,5.46,0,0,1,1.12,5.93c-0.85,2.51,1,7,2.94,7.75,1.52,0.56,2.84.83,2.79,3,0,0.58.75,1.25,1.25,1.77,2.46,2.55,4.41,5.56,6.67,8.3a6.93,6.93,0,0,1,1.69,4.53c-0.13,3.92,2.27,6.12,4.56,8.21,4,3.61,8.34,6.69,11.61,11.13a14.71,14.71,0,0,0,2.82,2.33c2.79,2.33,5.42,2.79,8.8.79,4.36-2.58,9.19-3.89,14.28-2.51q2.19,0.6,4.35,1.36a2.56,2.56,0,0,0,2.05.23c4.11-1.92,8.08-4.13,12.22-6a28.64,28.64,0,0,1,7-2.26,28.38,28.38,0,0,0,3.17-.39,5.78,5.78,0,0,1,6.4,2.2,12.77,12.77,0,0,1,2.86,6c0.32,1.73,1,3.44,3,3,2.69-.62,5.54-0.3,8.05-1.14,1.7-.57,2.46-0.12,3.19,1s1.15,2.92,3.12,2.28c0.43-.14.47,0.42,0.53,0.79,0.71,4.28,1.63,8.56-.38,12.75a1.75,1.75,0,0,0-.26,1.09c1.09,3-.78,5.63-1,8.48-0.18,2.65-3.22,5.22.27,7.74-1.16,2.14.53,3.26,1.47,4.58,2.52,3.56,5.14,7,7.64,10.6a17.44,17.44,0,0,1,3.05,7.26,28.1,28.1,0,0,0,2,6.92,84.71,84.71,0,0,1,2.8,8.28,2.61,2.61,0,0,1-.26,2.57c-1.22,1.4-.61,2.78-0.35,4.31a23.17,23.17,0,0,0,2,5.34,11.62,11.62,0,0,1-1.73,11.7,16,16,0,0,0-3.72,8.14c-0.64,5.44-2.42,10.63-2.69,16.19-0.15,3.11,0,5.89,1.62,8.4a36.89,36.89,0,0,1,2.64,5.43c2,4.51,3.33,9.38,5.91,13.58a11.74,11.74,0,0,1,1.77,6.86c-0.07,2.29-.51,4.72.28,6.89,1.51,4.11,1.38,8.53,2.37,12.75,0.89,3.76,2,7.06,4.63,9.7a13,13,0,0,1,3.46,6.59,24.46,24.46,0,0,0,2.13,6.1c0.86,1.68,1.79,3.33,2.66,5,1.3,2.52,1.23,3.82-.57,6a1.71,1.71,0,0,0,0,2.36,7.48,7.48,0,0,1,1.57,4.21,1.69,1.69,0,0,0,.26,1c2.18,0.31,3.26,2.41,5,3.44a1.88,1.88,0,0,0,1.7.2c2.23-1.69,5.1-1.4,7.28-2.49,3.09-1.55,6-1,9-1.24,2.15-.18,4.24.52,6.51-0.24,1.08-.36,1.84-1.34,3.08-1.4,3.26-.14,5.65-2.25,8.15-4.3,2.7-2.21,4.5-5.28,7-7.65a23.61,23.61,0,0,0,4.73-6.68c1.66-3.33,2.85-7.07,6.22-9.15a4.5,4.5,0,0,0,1.77-3.65,17,17,0,0,1,.9-4.1,9.44,9.44,0,0,0,.07-6.38,3.6,3.6,0,0,1,1.11-4.13,11.76,11.76,0,0,1,3.66-2.35,27,27,0,0,0,4.24-2c1.67-1.06,3.12-2.4,2.35-4.92a4.82,4.82,0,0,1,.25-2.64,9.26,9.26,0,0,0,.06-5.32c-1.21-3.34-1.24-7-3-10.21-0.64-1.17-.89-3.27.26-3.88,2.56-1.36,3.37-4.68,6.1-5.76a3.59,3.59,0,0,0,1.61-2c1.53-4.11,4.81-6,8.31-7.31,4.43-1.62,6.37-5.56,8.34-9.46a7.11,7.11,0,0,0,.46-6,11,11,0,0,1-.34-4.19c0-4.89,0-9.77,0-14.65,0-1.17.09-2.48-.91-3.17-2.23-1.55-2.37-4.1-3.24-6.44a20.17,20.17,0,0,1-.73-9.84c0.29-2.24,0-3.66-1.37-5a3.69,3.69,0,0,1-.92-3.55c0.57-2.59.81-5.3,2.26-7.62a32,32,0,0,0,2.06-4.86c1-2.32,1.39-4.79,3.38-6.85a38.19,38.19,0,0,0,5.44-7.14c4.11-7,8.66-13.85,15.54-18.24a8,8,0,0,0,2.27-1.83c5.28-7.22,11.17-14,13.36-23.34a29,29,0,0,1,1.18-2.78c1.92-5.44,5.94-10,6-16.21a1.48,1.48,0,0,1,.33-1c1.91-.71,1-2.27.86-3.49a6,6,0,0,1,0-3,1.76,1.76,0,0,0-.34-2.12,1.74,1.74,0,0,0-2.32.15,13.6,13.6,0,0,1-8.12,2.94c-2.07.16-4.49,0.22-6.38,1.42a6.63,6.63,0,0,1-4.67,1.34,5.53,5.53,0,0,0-3.39,1c-3.48,1.82-5.05,1.36-7-2.28-0.86-1.64-1.75-3.13-3.73-3.66,3-2.37,3.15-3.86.8-6.29a32.35,32.35,0,0,1-2.65-3c-2.26-3-4.19-6.32-7.54-8.3s-6-4.65-6.26-9.63c-0.15-3.54-1.18-7.26-4.36-9.66s-3.92-5.82-3.93-9.66a25.4,25.4,0,0,0-.06-3.08c-0.59-4.56-1.06-9.19-5.31-11.88a3.66,3.66,0,0,1-1.69-3.24c0.4-3.93-1.51-7-3.18-10-3.54-6.36-4.23-14.13-8.71-20a1.85,1.85,0,0,1,.16-2.56,1.7,1.7,0,0,1,1.3,1.45c0.21,2.11,1.72,3.34,2.74,4.87,1.15,1.69,2.19,1.48,2.59-.5s1.58-3.38,1.72-5.35c0.63,1.66,0,3.14,0,4.63,0,1.69,2.07,1.75,2.78,3.23,2.65,5.54,6.5,10.4,8,16.62a4.49,4.49,0,0,0,1.94,2.65c4.21,2.9,5.87,7.18,5.61,12.47a10.91,10.91,0,0,0,4.75,10.06,9.88,9.88,0,0,1,4,5.75,23.28,23.28,0,0,0,3.52,7.5c2.49,3.6,5.09,7.13,3.67,12.11a2.52,2.52,0,0,0,.13,1.13,111.78,111.78,0,0,1,2,11.67c0.37,3,2.54,4.2,5.22,3.42a7.87,7.87,0,0,0,4-2.31,4.42,4.42,0,0,1,3.78-1.75,7.5,7.5,0,0,0,5.58-2.1,2.54,2.54,0,0,1,1.88-1c2.17,0.25,3.54-.89,4.76-2.69a4.58,4.58,0,0,1,2.44-1.51c1.95-.59,3.8-1.49,5.66-2.25,2.21-.9,5.29-1.31,5.23-5.19a2.47,2.47,0,0,1,1.55-2c2.88-1.47,5.68-3.27,9-3.29,1.22,0,2.08-.29,2.23-1.82,0.19-1.93,1.13-2.95,3.05-3,1.6,0,2.53-1.11,2.94-2.81a3.1,3.1,0,0,1,2.4-2.57c1.88-.37,2.26-1.65,2.38-3.59,0.13-2.16-.36-5.15,3.09-5.24a1.59,1.59,0,0,0,.61-0.9,21.13,21.13,0,0,1,3.41-5.37,7.41,7.41,0,0,0,1.79-4.12c0.07-1.33-1.55-1.47-2-2.54-0.14-.35-0.45-0.6-0.62-0.95a7.69,7.69,0,0,0-5.84-4.44c-3.92-.85-6.11-4.15-6.28-8.62-0.06-1.47,0-2.94,0-4.41-2.85,3.43-6.28,5.87-8.53,9.48a3,3,0,0,1-2.68,1.55c-2.24.08-4.45-.25-6.71,0.51-1.74.58-3.7-1.86-3.14-3.74s0.22-3.57.29-5.35c0-1-.26-1.89-1.27-2s-1.28.9-1.54,1.76-0.63,1.88-1,2.92c-1.32-1.42-2.55-3.07-2.28-4.76,0.47-3-1-4.56-2.69-6.2a14,14,0,0,1-3.84-5.92,41.89,41.89,0,0,0-2-5c-1.29-2.91-1-3.31,1.85-5,1.35-.79,2.39-1.69,3.9-0.62a1.24,1.24,0,0,0,1,0c1.19-.52,1.62.21,2.21,1.17a31.83,31.83,0,0,1,3.6,7.49c0.45,1.47,1,3.16,2.44,3.59a12,12,0,0,1,5.28,3.73,14.51,14.51,0,0,0,7.63,3.79c1.82,0.41,3.4-1.5,5-2.54,2.27-1.46,5-1.62,5.28,2.58a5.5,5.5,0,0,0,5.37,5.57c6.54,0.61,12.93,2.9,19.63,1.79,1.4-.23,2.83-1,4.17-0.72,3.35,0.63,6.56,0,9.8-.68,0.95-.19,1.87,0,2.06,1,0.5,2.56,3,3.75,3.46,6.35a2.28,2.28,0,0,0,2.1,1.79,3.14,3.14,0,0,1,2.72,2.56c0.7,2.34,3,3.35,5.43,3,0.64-.1,1.36-0.56,2,0.46-1.14,2-3.25,2.21-5.55,3,2.07,2.61,3.76,5.06,5.76,7.15,1.59,1.67,3.53.94,5.32,0s3.28-1.75,2.56-4.3c-0.29-1,.23-1.67,1.43-2.22,0.68,3.59,2.32,6.88,1,10.68a7.13,7.13,0,0,0,.1,3.41c0.81,4.91,1.87,9.81,2.34,14.72,0.38,4,1.86,7.34,3.32,10.75a35.62,35.62,0,0,1,2.72,9.07,22.7,22.7,0,0,0,2.44,7.57,41.66,41.66,0,0,1,4.69,14.37,10.69,10.69,0,0,0,2.51,5.44c1.93,2.35,3.71,2.07,4.94-.72,0.4-.91.28-2.35,1.24-2.67,2.37-.78,2.7-2.95,3.33-5,0.23-.73.32-1.74,1-1.94,2.57-.7,2.22-2.93,1.82-4.63a10.09,10.09,0,0,1,.86-6.65,14.92,14.92,0,0,0,.77-2.54c0.83-3.57-.07-7.09-0.46-10.59-0.44-3.92,0-5.35,3.32-6.89a1.6,1.6,0,0,0,1.16-.76c0.52-2.36,2.6-1.3,3.85-2.09,1.71-1.08.78-3.52,2.31-4.58l0.29-.22a42.19,42.19,0,0,0,10.7-12.14,3,3,0,0,1,2.81-1.85,3.91,3.91,0,0,0,3.88-3.38c0.31-4.3,2.68-6.63,5.66-8.69l0.47-.31c0.45,0.58,0,1.92.9,1.89,3.07-.11,6.22-0.17,8.88-2.17,0.63-.48,1.63-0.46,1.87-1.59s-0.67-1.7-.77-2.66c3.52,0.1,4,.4,4.88,3.44a11.06,11.06,0,0,1,.66,3c0,3.75,2.21,6.25,4.61,8.23,1.83,1.52,3.4,2.66,2.87,5.43a1.56,1.56,0,0,0,.6,1.3c3.4,3.55,3.54,7.85,2.35,12.42-0.92,3.54-.86,3.88,2.27,4.77a3,3,0,0,0,3.68-1.09c1.59-2.14,4.87-2.67,4.92-6.6,2.59,4.47,2.49,4.49,3,7.38,0.64,3.89.59,8.29,2.37,11.5,2.75,5,2.35,10.17,2.06,15.18-0.27,4.5-.28,9.2-1.75,13.61a1.8,1.8,0,0,0,.72,2.29c4.18,2.79,5.42,7.86,7.87,12a3.91,3.91,0,0,1,.49,2.2c-0.25,2.37.51,4.57,0.87,6.82,0.59,3.7,2.47,7,4.33,9.93s5.36,5,8.2,7.29a2,2,0,0,0,2.67-.17,1.87,1.87,0,0,0,.2-2.14c-0.4-1.2-.57-2.7-1.35-3.52-2.25-2.4-2-5.32-2-8.25,0-1.16,0-2.31.06-3.47a6.68,6.68,0,0,0-1.9-5.21c-1.51-1.46-2.72-3.2-4.15-4.73s-2.69-2.89-4.8-3.46-2.31-1.77-2.31-4.66-1-6-3.06-7.67a3.82,3.82,0,0,1-1.76-3.18,19,19,0,0,1,.61-4.92c1-4.42,3.6-8.45,3-13.3-0.14-1.16.25-2,1.51-2.09s2.11,0.3,2.09,1.86,0.3,2.6,1.87,2.72c4.24,0.32,6.55,3,7.43,7.24,0.23,1.11.46,2,1.81,1.67a0.62,0.62,0,0,1,.82.52c0,2,1.35,1.93,2.55,2.48a8.77,8.77,0,0,1,3,2.64c0.57,0.73-.41,1.64-0.37,2.54,0.07,1.59-.27,3.24.31,4.82,2.08-.19,2.26-2.4,3.67-3.16a6.52,6.52,0,0,0,3.65-5,2,2,0,0,1,2.08-2c3.47-.16,5.55-3.1,8-5.18a4,4,0,0,0,.87-2.47,40.24,40.24,0,0,0,.05-12.15c-0.77-4.91-2.35-9.29-6-12.68s-5.79-8.3-8.48-12.62a4.54,4.54,0,0,1-.41-2.95c0.25-2.89,2.42-4.59,3.43-6.95,1.35-3.16,4.07-4.35,6.36-6.16a4.2,4.2,0,0,1,3.8-.41c0.79,0.21,1.48.71,2.4,0.45,1.37-.39,1.79.46,1.35,1.7a6,6,0,0,0,.38,4.09c0.21,0.65.47,1.25,1.19,1.16,0.94-.11,1-0.9,1-1.72-0.2-3.33.17-4,2.81-4.89a3.9,3.9,0,0,0,.7-0.14c2.7-1.54,5.83-1.85,8.53-3.56a3.12,3.12,0,0,0,1.56-3.36c0.89,0.21,1.29,1.08,1.92,1.63,0.36,0.32.81,0.75,1.21,0.15,1.28-1.89,3.26-1.65,5-2,2.33-.46,4.66-0.82,5.81-3.62a4.33,4.33,0,0,1,2.25-1.82,4.92,4.92,0,0,0,2.3-1.77c1.35-2.57,4.13-3.65,5.44-6.22,0.73-1.42,2-2.32,2-4.43,0-1.77-.14-4.16,2.26-5.22a5.18,5.18,0,0,0,2.09-3c0.59-1.84,1-3.65,2.87-4.53,2.33-1.11.23-3.92,1.78-5.39a2.91,2.91,0,0,0,.28-3.82c-0.74-1.23-1.82-2.08-3.34-1.46a1.49,1.49,0,0,1-2.15-.7c1.61-.33,2.72-1.58,4.06-2.38,2.26-1.37,2.27-2,.13-3.76-0.77-.65-1.74-1.08-2.06-2.19,1.29-.73,2.22.84,3.76-0.27-3.26-2.7-4.76-6.47-5.84-10.46a6.14,6.14,0,0,0-3.17-4.29c-2.72-1.43-3-2.86-.82-5,3.35-3.2,5.83-7.9,11-8.29a1.07,1.07,0,0,0,.65-0.25,2.14,2.14,0,0,0,.82-2,1.17,1.17,0,0,0-1.47-.75,5.78,5.78,0,0,1-4.42-1.11c-1.35-1.19-2.39-.67-3.47.31-0.54.5-1,1.11-1.57,1.58-2,1.64-3.65,1-3.79-1.68-0.12-2.22-1.07-2.95-2.92-2.91a3.18,3.18,0,0,1-2.84-1.31c-1.14-1.55-.35-4.19,1.42-4.07,3,0.2,5.06-.89,6.25-3.87a0.94,0.94,0,0,1,.53-0.5c2.54-.72,4.07-2.9,5.92-4.65,1.51-1.42,3.16-1.33,4.41,0,1.5,1.62.37,2.75-.61,3.91-0.7.83-2,1.63-1.34,2.84,1.09,2-.37,2.67-1.54,3.7,2,0.42,3-.54,4-1.68a11.09,11.09,0,0,1,8.26-3.88,6.83,6.83,0,0,1,5.08,2.16c1.24,1.23-.42,3-0.47,4.65a2.74,2.74,0,0,1-.38.64c-0.79,2,.07,3.57,2.12,3.42,1-.07,1.87.25,2.78,0.14,1.85-.21,2,1.09,2.42,2.53s0.72,2.34-1.07,2.73c-0.62.14-.87,0.81-0.45,1.81,0.75,1.77,1.85,3.65.69,5.73s-0.92,4.06.4,6.15c3.28-1.53,6.43-3.15,9.94-3.7,1.66-.26,2.65-2.22,2.15-4.19a23,23,0,0,1-.37-5c0-1.15.08-2.37-.6-3.34-2.06-2.93-3.1-6.6-6-8.94-2.28-1.83-2-4.05.62-5.32a33.09,33.09,0,0,0,6.2-4.46,2.62,2.62,0,0,0,1.17-2.58c-0.39-2.57,1.15-4,2.62-5.53s3.55-2.06,4.79-3.81,2.44-1.95,4.16-.5a5,5,0,0,0,6,.53c2.52-1.44,5.2-2.72,6.95-5.26,2.71-3.95,6.05-7.22,9.23-10.68a15.39,15.39,0,0,0,3.09-4.2,27.35,27.35,0,0,1,6.15-8.86,8.91,8.91,0,0,0,2.51-4.54,26.28,26.28,0,0,0,.94-7.59,10.24,10.24,0,0,1,2.43-7.76,2.94,2.94,0,0,0,1-2.74c-0.45-1.79-1.22-3.51-.17-5.42,0.34-.6-0.48-1.11-1-1.4a12.86,12.86,0,0,1-4.13-3.56c-1.17-1.55-5.25-1.75-5.77-.37-0.75,2-2.46,2.09-3.77,2.84-1.07.61-2.18,0.41-1.25-1.53a1.6,1.6,0,0,0-.88-1.86,1.6,1.6,0,0,0-.58.38c-0.35.6-.33,1.6-1.32,1.53s-1-1-.95-1.71c0-1.77-.92-2.13-2.31-2.08a3.93,3.93,0,0,1-3.88-1.8,3.6,3.6,0,0,1,.57-0.82c4.91-3.07,10.19-5.57,13.9-10.51a4.57,4.57,0,0,1,1.76-1.28c4.55-2.05,7.5-6.46,11.64-9.2,2.86-1.89,5.57-3.27,8.88-3.28,2.14,0,4.29,0,6.44,0,2,0,3.93,1.8,5.92,0a0.84,0.84,0,0,1,.69.1c1.74,0.87,3.68-.27,5.14.15,2.37,0.67,3.43-.65,4.88-1.81a2.17,2.17,0,0,1,1.66-.47,37.21,37.21,0,0,0,7.69,1.43c0.83,0,1.55.93,2.09,1.73-0.68.81-2-.3-2.47,1.11a2.06,2.06,0,0,0,2.27.66c3.9-.81,7.73-2.16,11.79-1.47a3.11,3.11,0,0,0,1.07-.06,1.11,1.11,0,0,0,1-.89,1.12,1.12,0,0,0-.83-1.09c-0.85-.38-1.93.22-2.87-1a8.08,8.08,0,0,1,3.29-3.65c2.91-1.38,5-3.82,7.33-6a6.6,6.6,0,0,1,4.15-2,65.46,65.46,0,0,1,11.23-.14,1.13,1.13,0,0,1-.26,1.15c-0.55.95-2.09,1.52-.6,3.12,1.21,1.3,2.25,1.73,3.72.71a14.57,14.57,0,0,0,2.48-1.51,8.86,8.86,0,0,1,6.75-2.73c-0.4-2.18-.1-4.24,1.62-4.84,1.88-.65,4.08-1.72,6.37.34-2.78-.11-3.84,1.42-4.12,4a12.79,12.79,0,0,1-1,3.25,3,3,0,0,1-2.29,2.15,13.26,13.26,0,0,0-7.4,4.25,11.47,11.47,0,0,1-2.89,2.23,21.94,21.94,0,0,0-5.34,4.43,14.65,14.65,0,0,1-7.6,4.65c-1.45.32-3.41,0.74-3.88,2.73a5.06,5.06,0,0,1-2.6,3.43,3.67,3.67,0,0,0-1.8,2.29c-0.78,3.06-1.78,6-1,9.36,0.71,3.08,1.35,6.22,1.86,9.37s1.81,6.05,2.14,9.27c0.08,0.73.4,1.85,1.58,1.68,1.65-.24,6.7-5.17,6.6-7.09-0.16-3,1.46-3.64,3.48-4.28,1.11-.35,2.17-0.64,2.48-2.32,0.71-3.87,2.29-5.11,6.14-5.34,3-.18,3.18-0.45,2.17-3.59s1-5.71,3.85-5.25c0.72,0.11,1.48.52,1.9-.33a2.39,2.39,0,0,0-.29-2.85c-1.77-1.63-1.75-3-.13-4.81,0.93-1,.12-1.57-0.89-1.66a2,2,0,0,0-1,.16c-0.86.43-1.65,0.48-2.18-.49a2.47,2.47,0,0,1,.29-2.86,22.88,22.88,0,0,1,2.08-2.11,8.92,8.92,0,0,0,2.61-3.54c0.9-2.52,3.08-4,5.32-2.92,1.82,0.89,2.5,0,3.67-.79a5.62,5.62,0,0,1,3-1.08c1.09,0,.19,1.9,1.31,2.36a11.36,11.36,0,0,1,7.73-3.71c3-.17,5.93-0.17,8,2.77a0.88,0.88,0,0,0,1.54,0c1.11-2.54,3.57-2.8,5.51-3.89,2.52-1.42,4.77-3.29,7.41-4.52,2-.94,4.24-0.81,6.14-1.9,2.65-1.51,5.79-1.65,8.32-3.28,3.12-2,5.61.67,8.42,0.74a2.59,2.59,0,0,0,.7.1,3.43,3.43,0,0,0,2.38-1.54,2.24,2.24,0,0,0-.79-2.71,7.37,7.37,0,0,1-3.3-5,1.64,1.64,0,0,0-1.64-1.24,3.81,3.81,0,0,1-2.05-.55,1.47,1.47,0,0,1-.89-1.84c0.32-.8,1-0.3,1.53-0.17,3.74,0.91,7.06-.41,10.18-2.42,1-.62,2.2-1.55,1-3s-0.29-2.36.76-3,2.32,0.13,2.91,1.75c0.52,1.45,1.39,2.37,2.9,2.38a33.27,33.27,0,0,0,3.9-.29c2.25-.26,4.59-0.24,5.82,2.49a2,2,0,0,0,1.53,1.47c3.1-.09,5.55,2.18,8.5,2.62,2.2,0.34,2.19.44,3.14-2.09a1,1,0,0,1,.44-0.57c1.85-.74,1.4-2.31.9-4.14,4.39,1.41,7.66-.38,11.08-3.25a4.31,4.31,0,0,1-3.3-1.08c-3.93-3.6-8.92-2.81-13.5-3.68-1-.2-1.57.39-1.18,1.62a13.24,13.24,0,0,1,.31,1.47c-1.81.24-3.05-.13-3.73-2.41a7.51,7.51,0,0,0-5.54-5.39c-6-1.5-11.4-5-17.52-6.13a3.12,3.12,0,0,1-.68-0.24,49.55,49.55,0,0,0-20-4.35,111.08,111.08,0,0,1-13-.91,27.9,27.9,0,0,0-3.87-.6,2.18,2.18,0,0,0-2.31,1.37c-0.52,1.21.38,1.49,0.9,2.15,1.61,2,1.25,3.09-1.26,3.42-3.46.47-6.23-1.76-9.23-3.07a0.91,0.91,0,0,1-.12-1.33c1.09-.42,2,0.72,3.09.44a1.08,1.08,0,0,0,1-.89,0.93,0.93,0,0,0-.73-1.12c-1.53-.27-3.3-0.84-4.52.19-2.74,2.3-5.8,1.88-8.87,1.93-4.52.08-9-1.27-13.5-.79-2.65.28-5.14,0.57-5.54,4.32a4.45,4.45,0,0,1-1.11-.93c-0.93-2-2-3.7-4.42-3.67-0.89,0-1.36-1-.9-2,0.9-2.06-.45-2.85-1.81-3.43a24.71,24.71,0,0,0-8.67-1.93,74.49,74.49,0,0,0-18.46,1.33,5.51,5.51,0,0,1-5.35-1.39c-0.62-.6-1.24-1.46-2.09-1.37-3.43.35-6.35-2.1-9.84-1.75,0.77-1.47,2.87.19,3.17-1.95-1.67-1.53-3.84-1.24-5.76-1.66-2.54-.55-5.27.48-7.74,0.06s-5-1.5-7.61-1.71c-5.43-.45-10.9-0.51-16.29-1.53-0.46-.08-1.47-0.44-1.4.48,0.2,2.62-1.6,1.47-2.59,1.69-1.37.32-3-.54-4.25,1.07,2,0.9,2,.9,1.79,4.25-1.21.39-2.29-.07-3.45-0.39s-2.78-.85-3.5.77c-0.79,1.8-1.74,1.19-2.9.7-3.86-1.63-7.73-2.28-11.77-.49-2,.89-4,0.11-5.88-0.75-3.37-1.56-3.35-1.61-5.63,1.58-1.39,1.94-2.77,2.78-5.44,2.15-4-1-6.53-3.81-9.32-6.47l0.05-.07,1.79,0c0.74,0,1.56-.08,1.59-1.09s-0.8-1.13-1.53-1.15c-2.33-.06-4.51-1.11-6.89-1.15,2.15-.5,4.42-0.52,6.75-2.85-3.68-.58-6.39-3.55-9.87-1a1.14,1.14,0,0,1-1-.07c-1.9-1-4-.73-6-1.61a6.39,6.39,0,0,0-6.22.53c-1.2.85-.35,2.55-0.61,3.84a3.08,3.08,0,0,1-.3.65,4.06,4.06,0,0,1-1,.05,84.59,84.59,0,0,0-9.44-1.22c-2.77-.19-5.73.67-8.39-0.94-0.75-.45-2.51.3-1.71-1.86,0.14-.39-0.34-0.56-0.7-0.53-4.3.37-8.56-1.46-12.78-.62-2.71.54-5.73-.24-8.32,2-0.72-2.29-2-2.94-4.26-2.25a6.75,6.75,0,0,1-4.8-.84,6.63,6.63,0,0,0-6.7.23c0.63,1.24,1.94.18,2.57,1.29-6.41,2.25-13.17,1.86-19.66,3.51a3.62,3.62,0,0,1,2.59-1.85c2.83-.85,5.82-1.32,8.46-2.53a120.51,120.51,0,0,1,19.13-6.8c1.09-.29,3.12-1.18,2.64-2-1.34-2.26,1.62-1.6,1.27-3-0.68-.5-1.67-1.7-2.2-1.5-1.6.59-2.34-.55-3.42-1.2a13,13,0,0,0-3.35-1.31c-4.8-1.28-9.7-.74-14.57-0.78a1.88,1.88,0,0,0-1.33.4c-1.28,1.44-2.86,1-4.37,1-0.31,0-.45-0.17-0.41-0.6,0.15-.19.37-0.48,0.6-0.74a1,1,0,0,0,.23-1.57h-8.83c1.3-1.58,2.95-1.2,4.41-2.51-3.12-.64-5.86-1.52-8.64-1.29a32.69,32.69,0,0,0-10,2.69c-1.16.49-2.59,0.82-2.72,2.65-0.1,1.46-1.13,1.44-2.1,1.46-1.91,0-3.82,0-6.32,0,1.41,1.16,2.71,1.07,3.23,2.93-3.31-2.18-6.41-1.35-9.47-.35a13.63,13.63,0,0,1-4.95.46c-0.44,0-1.19.16-1.24-.41-0.23-2.81-1.83-1.13-2.79-.94s-2.07.45-3.14,0.59c-2.5.34-5.34-1.13-7.42,1.53-2.77-.25-5.41.77-8.15,0.88a34.73,34.73,0,0,0-12.53,2.41c-2.12.91-4.48,1.12-6.26,2.91-0.27.27-.9-0.22-1.06,0.48a9,9,0,0,1,1.9,1c1,0.92-1.2.66-.54,1.41s1.62,1.09,1.83,2.24a1.77,1.77,0,0,1-2.49.78c-2.52-1.34-2.76-1.54-4.35-1.12a12.77,12.77,0,0,1-3.15.58,130.31,130.31,0,0,0-16.39.69c-3.24.44-3.28,0.3-1.69,3.62a14,14,0,0,1,.59,1.81,1.68,1.68,0,0,0,1.54,1.4c3.28-.38,5.46,2.35,8.28,3.25a6.63,6.63,0,0,0-1.63,0c-3.42.8-6.44-.11-9.55-1.76s-6.92-1.71-10.5-1.31c-1.82.21-1.1,1.22-.33,2.13a5,5,0,0,1-3.79-.28,4.19,4.19,0,0,0-2.46-.23,1.43,1.43,0,0,0-1.4,1.43,1.3,1.3,0,0,0,1.08,1.33c1.64,0.29,3.17,1.09,4.88,1.07,1.18,0,2.35.16,2.89,1.61a1.84,1.84,0,0,1-.69.43c-2.72-1.63-5.71-1.18-8.63-1.39-3.36-.24-4-1.61-2.63-5,0.93-2.25.92-2.28-1.94-3.93,0.36,3.56-1.65,4.75-4.33,5.09-1.6.2-2.53,1.24-3.51,2.79a4,4,0,0,1,.83.58c1.06,1.2,2.4,2.27,3,3.7s-1.27,2.21-1.81,3.44c-0.9,2,.49,4.84,2.58,5a6.21,6.21,0,0,0,2.83-.1c3.56-1.61,6.78.3,10.07,1.07,2.07,0.49,2.56,2.75,1.33,4.66-0.72,1.12-.45,1.9.83,2.09s2.38,0.17,4,.27c-2.28,1.9-4.07.58-5.77,0-1.28-.42-0.79-1.94-0.91-3a5,5,0,0,0-5.15-4.1c-1.17.13-2.32,0.49-3.5,0.68-3,.49-3.24.87-2.14,3.86,0.37,1,.75,1.8-0.17,2.74-3.16,3.22-7.09,5.16-10.72,7.61a1.79,1.79,0,0,1-1.36,0c-1.88-.58-3.79-0.26-5.69-0.34a11.87,11.87,0,0,1-6.46-2c2.25-.37,3.8-1.36,5.52.23s3.59,0.88,5.17-.49,3.06-3.33,4.88-4.43,2.17-2.56,2.8-4.2c0.38-1,.38-1.8-0.68-2.14-2.31-.74-2.74-2.51-2.52-4.8,0.17-1.76-.07-3.54.51-5.31,0.5-1.51.32-3.05-1.36-3.88-1.25-.62-1.59-1.44-0.35-2.58a11.66,11.66,0,0,0,1.57-2.09c1.14-1.68.82-3.08-.89-4-1.23-.65-2.56-0.47-3.86-0.55h-2.06l-2.21,0,2.21,0h2.06c-1.72-.22-0.14-1.78-0.94-2.63-1.34-1.41-2.72-1.27-4.25-.95-1.91.41-1.86,2-1.88,3.59a2,2,0,0,0-2.87.31,9.63,9.63,0,0,0-2,3.15,7.11,7.11,0,0,1-4.95,4.53,14.81,14.81,0,0,0-2,.71c-1.88.85-2,1.4-.38,2.92,0.81,0.75.56,1.55,0.74,2.37,0.32,1.39-1.24,2.07-1.07,3.66,3.93-.71,5.13,4.19,8.65,4.35-1.61,3.81-1.61,3.81-4.59,2.57-0.56-.23-1.09-0.51-1.64-0.75-9.61-4.25-19.46-7.18-30-6.86h0c-1.45-1.7-3.64-1.77-5.39-2.83-0.77-.47-2-0.71-2.34.7s0.85,1.18,1.61,1.47c2.43,0.93,5,1.46,6.56,4.17,0.88,1.57.85,2.13-.81,2.59-1,.28-1.93.07-2.65,1.41a1.27,1.27,0,0,1-2.47-.52c-0.07-2.47-1.65-2.66-2.82-2.17a31,31,0,0,1-13.27,2.19,5.78,5.78,0,0,0-2.65,1.09,6.93,6.93,0,0,1-4.42.25c-0.36-1.23.56-2.49-.59-3.46-1.87.52-4,.37-5.12,2.77a0.69,0.69,0,0,1-1.2.19c-0.85-1-1.75-.3-2.65-0.21-4.67.5-8.76,3.18-13.34,4a3.29,3.29,0,0,0-3.06,2.7,2.45,2.45,0,0,1-1.64,1.83c-3.59,1.37-6.7.49-9.53-2.06-0.75-.68-0.56-1.27.18-1.82a4,4,0,0,1,2.35-.78,6.44,6.44,0,0,0,3.5-1.15c-3.39-4.26-7.61-3.44-12.1-3.27,1.95,1.57,2.28,3.23,1,5.1-0.84,1.18-.67,2,0.57,2.76,1,0.63,2.13,1.48,1.06,3.05-0.84,1.23-1.52,2.61-3.4,1.87-3.17-1.24-6.23-1.54-9.34.68-1.52,1.09-3.61,1.21-5.27,2.26s-1.77,1.55-.49,3.21c0.65,0.84,1.82,1.33,1.64,3.06a25.57,25.57,0,0,1-11.55-2.35c-2.91-1.19-2.87-1.3-4.78.81,1.42,2.18,1.47,2.13,4,2.55,0.92,0.15,1.7.49,1.68,1.59s-1,1.34-1.81,1.44a6.46,6.46,0,0,1-4.81-1,9.71,9.71,0,0,0-4.58-2,2.36,2.36,0,0,1-2.18-2.13c-0.34-1.49-1.13-2.92-.59-4.48,0.63-1.84-.22-2.81-1.64-3.11-2.81-.57-4.86-2.49-7.06-4.17l0.12-.15a10.23,10.23,0,0,1,1.75.35c3.58,1.38,7.41,1.5,11.08,2.61,2.54,0.76,5.42.54,8.08,1.24,5,1.33,9.66.19,14-2.58,0.91-.58,2.33-1.35,1.84-2.45-0.55-1.26-.58-3.26-2.25-3.63-1.87-.42-3.36-1.77-5.3-2.1a18.39,18.39,0,0,1-5.36-1.93c-6-3.16-12.15-5.07-18.88-4.61-2.54.17-4.92-.81-7.42-1.59,0.75-1,1.85-.1,2.58-1.32-3.37-.42-6.56.41-9.76,0.22-2.07-.12-3.81-0.09-5.59-1.81,2.68,0,5.22.21,7.38-1.87-3.7-.1-7.05-3.76-11-0.87-0.36.26-.9-0.17-1.24-0.55-0.2-.22-0.12-0.43.19-0.56,0.54-.22,1.29-0.4.76-1.22a1.59,1.59,0,0,0-1.32-.29,5.54,5.54,0,0,0-3.36,2c-0.73.82-1.55,1.46-2.05-.26-0.34-1.15-1-.86-1.62-0.35-1.47,1.15-2.92,2.31-4.41,3.5-0.95-2.1,1.42-2.29,1.44-3.69a3,3,0,0,0-3.11-.39,14.81,14.81,0,0,1-6.82,2.23c-0.35,0-.43.22-0.43,0.71,0,1.92-.11,2-1.4,1.3-1.7-.9-3.49-0.46-5.24-0.54-0.33,0-.46.13-0.38,0.39,0.22,0.84,1.85-.1,1.53,1.43-0.76.54-1.36-.23-2-0.25-1.84-.05-3.39,3.11-5.46.59a2.23,2.23,0,0,0-.54.45c-0.76.95-1.36,0.83-1.82-.29-0.76-1.82-1.8-1.7-3.1-.61a25.6,25.6,0,0,1-2.4,1.61c0.12,0.81,1.5.42,1.19,1.65-0.58.37-1.07-.09-1.59-0.31a9.05,9.05,0,0,0-1.66-.67c-1.95-.39-4.09,1.17-3.51,2.53,0.8,0.38,1.81-1,2.52.32a1.51,1.51,0,0,1-1.45,1.43c-2.07.16-3.4,1-3.43,3.45,0,0.46-.44,1.1-1,0.88-1.92-.85-3.41,1.34-5.26.5,0,1.07,1.5.79,1,1.93-3,.87-5.14,3.39-7.74,5a3.94,3.94,0,0,0-1.66,2.23c-0.63,1.9-2.18,3.24-2.74,5.49-0.43,1.77-4.1,1.11-4.54,4.06a2.25,2.25,0,0,1-1,.13c-2.33,0-3.92,1.39-5.34,3.27-0.44.57-.34,1.65-1.16,1.74-3.42.36-5.85,3.68-9.61,3.33-3-.27.05,1.34-0.33,2.13-1.82-.27-3.56-0.09-4.92,1.63-0.35.45-.75,1.33-1.72,1-1.71-.66-2.34,1-2.34,2a40,40,0,0,0,0,5.89c0.37,2.48,1.52,3.28,4,2.87-1.18,1.33-1.44,2.82-3,3.09a1,1,0,0,0-.6,1.67c1.22,0.31,2.08-1.36,3.35-.68-0.51,2.51-.45,2.79-1.36,3-1.9.47-1.07,1.4-.27,1.88,4.4,2.64,8.86,4.56,13.45.42,1.42-1.28,2.85-2.62,4.9-2.91a2,2,0,0,0,1.71-2.78c-0.14-.54.23-0.94,1-1.15,0.45,0.78,0,2.19.82,2.64,2.3,1.19,1.1,5.14,4,5.78a0.93,0.93,0,0,1,.11.69c-0.68,1.93.56,3.13,1.42,4.48,1.35,2.11,3.4,3.88,2.62,7-0.1.39,0.43,0.91,0.51,1.4,0.19,1.19.35,2.48,1.85,2.2s3.2,0.91,4-1.39a4.34,4.34,0,0,1,5.11-3.14c1.67,0.22,2.57-.65,3.46-2a15.4,15.4,0,0,0,2-7.67,5.5,5.5,0,0,1,2.6-4.62c1.12-.81,2.76-0.75,3.81-2.58-2.84.05-5.13-1-7.56-1.41,2.26,0.36,4.48-1.3,6.81.2,0.82,0.53,2.08-.32,3-1a1.42,1.42,0,0,0,.1-2.5,17.29,17.29,0,0,0-4.61-2.9,2.26,2.26,0,0,1-1.74-1.17c-0.47-1.22.59-8.37,1.59-9.06,2.94-2,5.4-4.88,9-5.81a8.28,8.28,0,0,0,3.28-1.47c1.61-1.35,4.25-2.12,3.32-5.37a1.81,1.81,0,0,1,.55-1.33c1.81-3.12,4.07-5.12,7.81-4.64,2.57,0.33,5.23-.35,7.74.85a2.31,2.31,0,0,1,1.54,2.3c0,1.18-.46,2.06-1.61,2.14-1.46.09-2.28,1.2-3.32,2.06a61.5,61.5,0,0,1-10.84,7.52,5.6,5.6,0,0,0-2.29,2.37c-0.56,1,.52,1.58.72,2.38,0.48,1.94,1.57,3.77.66,5.94-0.77,1.83.22,3,1.69,3.6a36.5,36.5,0,0,1,5.5,2.73,3.73,3.73,0,0,0,2.77.43c3.14-.63,6.25-1.49,9.4-2,4.38-.76,8.83-2.87,13.13.46a4.51,4.51,0,0,0,1.75.23c0.76,0.14,1.64.12,1.93,1.42-2.6-.11-5.23.19-7.21,1.74a5.49,5.49,0,0,1-5.65,1c-4.19-1.45-8.18-.18-12.18.79-0.92.22-2.23,0.35-2.24,2,0,1.38.25,2.93,1.46,3.24,2.54,0.66,2.09,2.6,2.14,4.46,0,1.24-.11,2.43-1.35,2.82s-2.64.71-3.6-.68a7.92,7.92,0,0,0-2.19-1.95,3.47,3.47,0,0,0-4.73.78c-1.84,2.73-3.29,5.6-2.07,9.19a10,10,0,0,1,.34,2.64,1.48,1.48,0,0,1-1.42,1.79c-1.55.17-3.64-1-3.88,2.33-0.07,1-4.93,1.43-5.61.3-1.81-3-4.09-1.94-6.27-1.12-3.35,1.25-6.5,3.15-10.1,3.61a1.86,1.86,0,0,0-1.31.5c-1,2.26-1.68.81-2.83,0-2.29-1.56-4.46-3.66-7.72-1.46-1.15.78-4,3.3-5.21-.8a1.27,1.27,0,0,0-1-.21c-2.11.36-2.92-1.45-3.9-2.8-1.36-1.87-1-2.85,1.35-4.22a3.81,3.81,0,0,1,2.62-2.74c0.68-.26,1.17-1.37.25-1.69-2.57-.91-2.35-2.32-1-4.24a1.38,1.38,0,0,0-.07-1.74,1.52,1.52,0,0,0-1.64-.27,2.23,2.23,0,0,0-1.52,1.45,5.81,5.81,0,0,1-2,.73c-2.56-.07-3.91,1.31-4.41,3.88,0,1.75-.73,3.84.56,5.15,2.34,2.39,1.47,5.76,2.66,8.45a0.79,0.79,0,0,1-.15.66c-1.1.29-1.64,1.41-2.55,2s-1.26-.25-1.87-0.54c-0.89-.41-2.29-0.62-2.63.27-0.73,1.88-1.92,1-3,1a7.38,7.38,0,0,0-3.49.56c-1.19.66-2.14,1.33-1.07,2.9a1,1,0,0,1-.26,1.6c-0.68.43-1.38,0.51-1.74-.49-0.21-.57-0.25-1.29-1.18-1.21a41.26,41.26,0,0,1-2.13,3.88,13.8,13.8,0,0,1-8.77,6c-1.65.33-3.34,0.73-3.05,3.3,0.22,2-1.15,2.53-2.6,3-1,.34-2.34.3-2.81,1.46-1,2.52-2.66,1.83-4.47,1.47-1.15-.23-1.85-1.1-2.83-1.5a1.35,1.35,0,0,0-1,.08,0.92,0.92,0,0,0-.22,1.32c0.14,0.35.34,0.68,0.46,1,0.87,2.74.34,3.5-2.34,3.42-0.82,0-1.87.27-2.41-.17-3-2.44-5.53.26-8.7,0.33a4.85,4.85,0,0,1,1.34,1.25c-0.44,2.17.69,2.63,2.32,2.77a7,7,0,0,1,2.05.6c2.46,1.06,5.34,1.46,6,5.15a3.78,3.78,0,0,0,1.94,2.16c2.17,1.13,2.32,3.23,2,5.2-0.37,2.66-.71,5.31-1,8-0.38,3.28-1.91,4.26-4.93,3.77a42.78,42.78,0,0,0-7.35-.52c-4.22,0-8.44-1-12.7-.8a1.94,1.94,0,0,1-1-.43,2.39,2.39,0,0,0-3.27.41,6.26,6.26,0,0,1-3,1.92c-0.73.16-1.47,1-1,1.7,1.77,2.68.76,5.78,1.4,8.58a11.48,11.48,0,0,1-.14,5.63,19.41,19.41,0,0,1-2.22,6c-0.85,1.29-1.05,2.71.47,3.61,1.71,1,1.85,2.6,1.74,4.42-0.09,1.37,0,2.76,0,4.22a7.53,7.53,0,0,0,3.11.28,7.73,7.73,0,0,0,2.08-.41c3.22-.79,4.18-0.22,5.61,3.29,1,2.45,2.62,2.88,4.54,1.14a10.74,10.74,0,0,1,1.51-.94c2.71-1.81,5.71-1.46,8.68-1.49,1.54,0,3.26.15,4.1-1.65s2.6-2.37,4.18-3.28,1-3.72,2.8-4.7c1.27-.68,1.38-1.56.59-2.77-1.12-1.73-.8-3.34.43-4.91a33.08,33.08,0,0,0,3.67-5.15,3.13,3.13,0,0,1,2.48-1.86c2-.27,3.51-1.49,5.16-2.48,2.92-1.75,2.92-1.75,2.26-5.44-0.5-2.79,1.91-5.77,4.5-5.19,2,0.46,4.19.27,6.18,1.57a3.5,3.5,0,0,0,4.64-.53c2.24-2.6,5.92-2.72,8-5.59a1.85,1.85,0,0,1,1.32-.41c2-.09,5.76,2.52,6.32,4.75a11.47,11.47,0,0,0,4.7,6.45,19.6,19.6,0,0,1,2.73,2.45c1.85,2,3.63,4.11,6.6,4.06,0.77,0,1.17.77,1.72,1.25,1.87,1.62,3.83,3.11,5.69,4.76a8.35,8.35,0,0,1,2.32,2.59,7.68,7.68,0,0,1-.16,7.5c-3.94.5-7.76,2.5-11.87,1a1.54,1.54,0,0,0-2.25,1.18c-0.24,1.34.68,1.76,1.55,2.22,2,1.06,4.1,2,6.07,3.2,2.92,1.74,3.55,1.42,3.74-2.19,0.16-3,.51-3.3,3.16-3.39a2.12,2.12,0,0,0,.55-0.9c1.84-.61,1.76-2.87,3-4,2.07-2,2.24-2.12.35-3.89-1.47-1.38-1.24-2.36-.36-3.91,1-1.83,2.06-.74,3.3-0.54,1.58,0.26,2,2,3.3,2.67,1-2.43-.39-3.75-1.8-4.55-1.77-1-3.39-2.36-5.37-3-1.25-.39-2.51-0.83-2.6-2.69-0.06-1.25-1.1-1.14-1.92-1.15-3.57-.06-5.84-2.46-7.08-5.56-1.07-2.68-2.44-4.67-4.83-5.82-3-1.47-1.74-4.22-1.87-6.62s1.74-2.17,2.85-2.75c1.69-.88,2-0.57,2.32,1.5,0.39,2.42,1.11,2.78,2.87,1.16,0.73-.66,1-0.57,1.7,0,1.05,0.76,1,2,1.51,3,1.31,2.76,2.85,4.91,5.82,6.27a46.25,46.25,0,0,1,12.45,8.54,3.55,3.55,0,0,1,1.28,2.9,20.07,20.07,0,0,0,2.71,10.26,2.85,2.85,0,0,0,.16.34c2.41,3.13,4.07,7.45,9.1,6.3a2.2,2.2,0,0,1,2.68,1.68c-1.42.88-2.43-.28-3.57-0.37s-2.71-.42-3.29.81c-1,2.23,2.33,3.38,1.57,5.81-0.17.55,0.53,0.72,1,.38,1-.74,1.31.23,1.52,0.85,0.65,1.91,1.44-.12,2.21.12,1.2,0.39,1.11-1,.84-1.42-1.38-2.17,2-3.08,1.08-5.1-0.08-.18.53-0.36,0.9-0.32,0.77,0.08,1.36,1.08,2.22.56a24.83,24.83,0,0,0,.67-2.66c0.17-1.28-1.14-2.57-2.2-2.19-0.57.2,0.25,1.43-.64,1.36-1.54-.12-3-2.47-2.24-3.88a1.72,1.72,0,0,0-.07-2.27,20.39,20.39,0,0,1-1.17-1.93c-0.52-.92-0.92-2.07,0-2.74s1.38,0.63,2,1.11c0.45,0.35.72,1,1.41,0.91a3.41,3.41,0,0,0,.9-1.17c0.59-3.14,2.81-3.42,5.15-3.59a9.09,9.09,0,0,1,4.83,1c1.71,0.85,3.68,1.8,5.28,0,1.41-1.61,3-1.77,4.86-1.77,0.76,0,1.63.5,2.51-.62-2.11-1.16-4.18-2.37-4.54-5.22-0.14-1.11-1.83-1.86-.61-3.36,0.77-.94.48-2.7,1.71-3.25,1.72-.77,1.41-2.35,1.82-3.79,0.56-2,.19-5,3.57-4.79,0.9,0.06,1.19-1.14,1.2-2.08,0-1.2.07-2.34,1.22-3a10.3,10.3,0,0,0,3.3-3.43,4.94,4.94,0,0,1,6.22-1.39c0.23,0.15.91-.16,0.51,0.8-0.63,1.49-.19,2.08,1.15,2.21,1,0.09,1.81-.82,2.77-0.43a2.06,2.06,0,0,1,1.06.94,1,1,0,0,1-.61,1.2c-1,.64-2.15.89-2.89,1.88,1.46,1.16,3.55,1,3.85,3.64,0.27,2.39,1.36,2.73,3.16,1.26,1-.81,2.13-1.13,3.09-1.8,1.71-1.19,3.85-.7,5.81-1.71-0.93-1.31-1.81-.9-2.71-0.77-1.64.22-2.92-.95-3.5-2.92-0.51-1.72.54-2.23,1.67-2.83,3.43-1.84,7.14-2.72,10.8-3.72,1.81-.5,3.7-1.28,6-0.62a11.4,11.4,0,0,1-5.39,3.27c0.34,1.38,1.87,1.14,1.86,2.48-0.91.77-2.24,1.08-2.63,2.45-0.58,2-1.89,2.7-4.16,2a6.57,6.57,0,0,0,3.11,3.3,31.41,31.41,0,0,1,10.16,6.87,21.91,21.91,0,0,0,3.33,2.21,20.6,20.6,0,0,1,2.68,1.89c1.82,1.69,2.38,5.31.87,6.92-1.9,2-4.39,3.35-7.06,2.9a10.22,10.22,0,0,0-5.23.13,4.32,4.32,0,0,1-2.83-.08c-2.93-1.06-5.95-1.61-8.77-3.29-2.21-1.31-4.72-3.22-7.69-2a1.05,1.05,0,0,1-.71,0c-3-1-5.76.15-8.05,1.94a11.3,11.3,0,0,1-8.81,2.56c-0.82-.1-1.62-0.31-2.44-0.41a0.92,0.92,0,0,0-1.12.68,1.17,1.17,0,0,0,.49,1.3c0.42,0.36,1.13,0,1.41.69-2.6.64-4.9,2.24-7.76,2-1-.09-2.05,0-3.1-0.13a4.24,4.24,0,0,0-3.88,2.79c-0.19.63-.18,1.51,0.48,1.61,2.84,0.43,1.65,3,2.22,4.65a1.36,1.36,0,0,1-.73,1.54c-1.45.95-1.45,1.13,0,1.78,1.32,0.58,2.22,1.19,2.19,3a4,4,0,0,0,1.68,3.05c0.52,0.41,1.47-.27,1.94.42,0.23,0.33-.75,1.18.21,1.45,0.67,0.19,1.36-.47,2.09-0.1a8.41,8.41,0,0,1,2.63,1.88,3.6,3.6,0,0,0,5.57-.31c1.71-2.75,1.73-2.79,4.28-1.46,1.16,0.61,2.44,1.05,3.22,2.32a2.77,2.77,0,0,0,2.82,1.25c2-.11,4-0.35,5.42-2.28,0.66-.9,1.78-1.89,2.76-1.41,2,1,3.76.32,5.83-.5-1.86,2.8-1.31,5.75-1.21,8.62a14.48,14.48,0,0,1-1,6.74,66.83,66.83,0,0,0-3.93,11.11c-1.11,4.2-2.71,5.29-6.75,5.45a8.26,8.26,0,0,1-5.39-1.47,4.77,4.77,0,0,0-2.65-.84,8.66,8.66,0,0,0-6,1.89c-1.31.93-2.68,1.76-4.34,1.16-2.47-.9-5.06-1.22-7.51-2.32-2-.9-4.21-1.73-6.53-0.92a1,1,0,0,1-1.32-.23c-1.23-3-4-2.31-6.13-3-1.34-.45-2.85-0.47-3.4-2.3a2.32,2.32,0,0,0-1.69-1.26,9.36,9.36,0,0,0-10.23,2.41,4.4,4.4,0,0,0-1.15,4.85,3.6,3.6,0,0,1,.16,3.28c-1.76,3.4-4,4.12-6.86,1.66a14.45,14.45,0,0,0-8.46-3.58,4.76,4.76,0,0,1-4.75-4.31c-0.17-.9-0.23-2-1.12-2.23-3.3-.72-6.19-3.47-9.87-2.3a3.59,3.59,0,0,1-2.74-.61c-2.63-1.4-5.22-2.91-7.77-4.48-1.67-1-1.78-2.28-.41-3.68,0.51-.52,1.21-0.84,1.72-1.37,1.56-1.59,2.34-4.33,1.08-5.51-2.46-2.33-1.36-4.17.08-6.21a0.93,0.93,0,0,0,.09-1c-1.07-.64-1.93,1.55-3.15.17-2.35-2.64-2.43-2.67-5.17-1.14a9.45,9.45,0,0,1-5.5.92c-2.66-.16-5.42-1.06-8.05.71a3.11,3.11,0,0,1-3.7.21c-1.71-1.16-3.65-.85-5.54-0.42s-3.73,1.29-5.55,1.15c-5.56-.43-9.39,4.35-14.47,5.28a3.72,3.72,0,0,0-1.57,1.52,4.49,4.49,0,0,1-5.19,1.62,20.8,20.8,0,0,0-7.06-.57c-2,0-3.7-.45-4.82-2.52a1.38,1.38,0,0,0-2.64,0,31.14,31.14,0,0,0-1.61,4.27c-1.09,3.26-2.73,6-5.94,7.18-2.33.88-3.89,2.84-5.68,4.53-1.45,1.36-1,3.38-2.07,4.79-1.78,2.28-1.71,5-1.08,7.67a4.27,4.27,0,0,1,.1,3c-2.4,4.93-5.9,8.94-10.72,10.65C5099.6-1192.72,5098.31-1190.87,5097.39-1188.19Zm212.15,132.67a6.42,6.42,0,0,1-.28-0.6,6.42,6.42,0,0,0,.28.6,1.69,1.69,0,0,0,1.42,1A1.69,1.69,0,0,1,5309.54-1055.52Zm1.47,1.09h0a3.4,3.4,0,0,0,.31,1.91A3.41,3.41,0,0,1,5311-1054.43Zm642.15-352.47h0a0.84,0.84,0,0,1,.23.14A0.84,0.84,0,0,0,5953.17-1406.9Zm-440.39-24.91-0.15-.23Zm0.57,122.86c0,0.74,0,1.49,0,2.23C5513.34-1307.47,5513.35-1308.21,5513.35-1309Zm0,2.31h0c1.09,0.22,1.7,1.2,2.49,1.9C5515.07-1305.45,5514.46-1306.43,5513.37-1306.65ZM5513-1431.47l0.18,0.29Zm-1.18-3.35,0.12-1.41-0.12,1.41,0.26,0.29a3.78,3.78,0,0,0-.26-0.29,25,25,0,0,0-3,1.23A25,25,0,0,1,5511.82-1434.82ZM5266-1383.08a8,8,0,0,0-.84-3.05A8,8,0,0,1,5266-1383.08Zm0,0.08h0a4.16,4.16,0,0,0-2.41,1.75A4.16,4.16,0,0,1,5265.91-1383Zm-69.32,27.8a1.46,1.46,0,0,1-1.46,1.49A1.46,1.46,0,0,0,5196.59-1355.2Zm-3.37,3a1.42,1.42,0,0,0,1.22-.65l0.15-.88-0.15.88A1.42,1.42,0,0,1,5193.22-1352.19ZM5151-1085c0.64,1.77,1.26,3.54,3.19,4.3,0.46,1.56,1.64,3.14.63,4.59,1-1.45-.17-3-0.63-4.59C5152.23-1081.48,5151.61-1083.25,5151-1085Z"/></clipPath><clipPath id="clip-path-10" transform="translate(-4308.5 1563)"><path class="cls-2" d="M4436.64-1400.46c-0.48,3.06,0,3.85,2.4,4.31,3.31,0.63,6.6-.2,9.9-0.08a17.09,17.09,0,0,0,8.31-1.26,5.38,5.38,0,0,1,2.47-.15c0.48,0,1.11.69,0.69,0.92-2.11,1.13-.5,2.26,0,3.25,0.64,1.38.11,2.17-.85,2.91a3.12,3.12,0,0,1-2.39.53,6.49,6.49,0,0,0-5,1.49,2.9,2.9,0,0,1-3.63.23c-1.85-1-4-.56-4.4,1.32s-1.63,2.26-2.73,3.09a15.1,15.1,0,0,0-2.05,2.62c-1.37,1.63-.35,3,0.72,3.27,2.22,0.65,4.07,2.72,6.67,2,0.55-.14,1.46-0.48,1.76.65-1.85,1.72-4.61-1.77-6.28,1.39a9.23,9.23,0,0,1,2.39,1.59c2.32,2.92,5,2.87,8.06,1.65,2.16-.86,3.89.29,3.65,2.69-0.18,1.8.57,3.12,0.73,5.09,4.3-3.22,8.2-2.7,11.73.56,1-.66.57-2.23,1.94-2.48,0.57,1.12,1.3,1.89,2.81,1.32,1-.39,2.09-1.32,3.5-0.65-1.8,1.2-2.23,3.13-2.41,5-0.15,1.54-1,1.92-1.94,2.74a26.62,26.62,0,0,1-8.44,5.26,2.79,2.79,0,0,0-1.7,1.89c-0.36,1.4-1,1.86-2.34,1.34-2.77-1.07-4.84.14-6.45,2.57-2.17.75-4.15,2-6.53,2.23-1.43.12-3,.7-3.22,2.9a3.18,3.18,0,0,0,1.1.24c3.15-.61,5.93-2.21,8.71-3.82a2.24,2.24,0,0,0,2.9-1.51c0.46-1,1-1.24,1.83-.27,0.43,0.51,1.1.11,1.67-.08,2.94-1,5.91-1.87,8.85-2.86,0.78-.26,2-0.61,2.14-1.12,0.52-2.87,3-2.37,4.58-3.36,1-.63,2.58-0.44,3.2-1.53,1.65-2.88,4.5-3.78,7-4.91,2.74-1.23,4.48-3.52,6.8-5.17-0.89-1.22-2.54-.7-3-2.21a3.53,3.53,0,0,1,2.13-1.9,10.29,10.29,0,0,0,5-4,11.93,11.93,0,0,1,5.67-4.47c1.73-.56,3.58-1.21,5.69,1.22-4.13-.82-6.53.56-7.58,4.33-0.18.66-1.12,1.09-.81,2s1.46,0.3,2,.88c-0.59,1-2,.81-2,2.34a17.05,17.05,0,0,0,4.9-1.47c2.36-1.31,4.68-2.93,7.63-2.81,2,0.08,2.67-1.38,2.22-3.64-0.41-2.06-.41-2,1.75-1.94a13.49,13.49,0,0,1,6.65,1.52c2.93,1.68,6.61,1.69,9.56,3.7a2.54,2.54,0,0,0,2.07,0,17.28,17.28,0,0,1,11.29,1.4,2.91,2.91,0,0,0,1.7.43c2.07-.44,4-0.76,5.26,1.74,0.26,0.51,1.28.56,2,.82a13,13,0,0,1,5.28,3.05,5,5,0,0,0,6.27,1.09l-2.61-2.36c1.49,0.91,4.29-1.35,4.66,2.19,0,0.43.78,0.54,1.25,0.37a1.12,1.12,0,0,0,.64-1.21c0-.92-1.09-1.79.07-3a10,10,0,0,0,5.28,5.76c1.09,0.48,2.8,1.48,2.92,3.13,0.15,2,1.4,2.93,2.67,3.76a11.85,11.85,0,0,1,3.95,4.71l-0.22.57,0.51-.26c3.45,0,3.7.23,4.06,3.66,0,0.38,0,.78,0,1.15,0.3,1.73,1,2,2.33.88,0.34-.27.48-0.92,1.37-0.42-2.34,2.9-1.24,5.77.13,8.64a0.53,0.53,0,0,1-.1.36c-0.73,1.32-.25,1.44.9,1.15,1.56-.38,2.15-2.31,3.72-2.76,0.55,1.59-.62,2.51-0.9,3.7s0,2,1.37,1.94c0.46,0,.91-0.37,1.37-0.39,1-.05,1.52.2,0.45,1.12-0.22.19-.68,0.62-0.33,0.63,3.22,0.15,2.35,2.82,2.73,4.82,0.63,3.34,1,3.61,4.19,3.9a7.67,7.67,0,0,1,1.75.28,1.15,1.15,0,0,1,.8,1.13,0.88,0.88,0,0,1-1,.86,6.69,6.69,0,0,1-4.13-.93,3.26,3.26,0,0,0-3.56-.2,3.07,3.07,0,0,0,1.53,2.28c4.52,3.24,9.09,6.41,13.71,9.47a18.57,18.57,0,0,0,3.7,1.36,1.24,1.24,0,0,0,1.6-.38c0.4-.54-0.07-0.93-0.3-1.34a5.78,5.78,0,0,0-1-1.62c-2.85-2.34-6.05-4.25-7.94-7.76-0.15-.28-0.9,0-0.91-0.68,3.49-.11,3.5-0.12,5,2.62a2.08,2.08,0,0,0,1,1c3.62,1.68,5.29,2.65,6.78,5.12a12.15,12.15,0,0,1,2.18,6.73,3.23,3.23,0,0,1-2.4,3.39c1.51-3.62.88-5.28-2.42-5.73-1.69-.23-3.28-1.22-5-1.09a8.59,8.59,0,0,0-.11,1,1.65,1.65,0,0,0,.13.75,19,19,0,0,1,2.77,13.75c-0.82,4.49-.1,9.24-2,13.56a6.19,6.19,0,0,0-.07,3.81c0.62,2.72,2.31,5.57,1.07,8.19-1.69,3.56,2.15,5.27,1.69,8.21a1.88,1.88,0,0,0,.07.76,5.24,5.24,0,0,0,1.2,2.74c1.44,1.2,1.59,4,3.37,4.26,3.38,0.56.28,3.33,1.62,4.5,0.43,0.38.76,0.95,1.26,1.31a1.27,1.27,0,0,1,.79,1.17c-0.85,3,1.58,4.32,2.79,6.16,1.09,1.65,2.66,2.91,2.56,5.26a1.4,1.4,0,0,0,1.34,1.53c2.75-.4,4.68,1.66,6.94,2.62s4.78,2.59,5.79,5.39c0.82,2.27,1.76,4.44,2.73,6.64,2.62,5.93,4.31,12.44,9.77,16.39a2.29,2.29,0,0,1,.25.27c1.25,1.22.85,2.8,0.9,4.33,0.06,1.86-1.85,1.15-2.48,2.11,1.35,2.72,3.69,3.64,5.84,5,2.51,1.55,5.6,3,5.24,7-0.29,3.2,1.22,5,3.3,6.7s4.41,3.45,5.42,6.41c0.44,1.29,1.3,1.26,2.11.18a2,2,0,0,0,.26-2.46c-1.05-1.43-1.28-3.74-3.51-4-0.87-.1-1.08-0.8-1.22-1.63-0.62-3.8-3.07-6.88-3.63-10.71a4,4,0,0,0-1.08-1.47c-1.51-2.25-3.39-4.39-4.27-6.93a23.54,23.54,0,0,0-5.6-9c-3.44-3.39-2.6-7.48-3.26-11.34,1.61-.71,2.22.7,3.33,0.8,2.07,0.17,3.32,1.5,4.07,3.88,1.64,5.19,3.59,10.26,7.29,14.32,1,1,2.63,1.37,3,2.59,0.83,3,3.07,4.37,5.16,6,1,0.78,1.9,1.67.75,3.15-0.83,1.06-.37,1.86.57,2.52,1.49,1,3.13,1.9,4.29,3.4,3.18,4.13,6.43,8.2,9.41,12.5a19.34,19.34,0,0,1,2.95,9.65c0.08,1.08.25,2.32-.77,3.21-0.82.71-.55,1.63-0.12,2.44,1.06,2,2,4,4.18,5.05a8,8,0,0,1,3.58,3.08,4.66,4.66,0,0,0,3.17,2.34c3.53,0.47,6,2.88,8.6,5a18.11,18.11,0,0,0,2.23,1.18c2.9,1.72,6,2.93,9,4.38,8.63,4.17,7.58,4.51,14,.36a2.33,2.33,0,0,1,2.29-.24c3.4,1.11,5.52,3.81,7.63,6.62,2.32,3.11,4.64,6.23,8.9,6.28,1,0,2,.87,2.95,1.26,3.39,1.35,6.61,4.07,10.35,1.81,1,1.16-.41,2.46.68,3.41,1.78,1.56,2.87,3.72,4.14,5.74,0.63,1,1.44,2.08,2.81,2.08,0,1.86.85,3.57,0.17,5.62a2.45,2.45,0,0,0,3.18,3c0.9-.37,1.21-0.41,1.58.37a3.9,3.9,0,0,0,1.93,1.63c1.42,0.85,2.62,1.83,2.45,3.84-0.09,1.09.84,0.86,1.26,1.25,1.41,1.29,3,1.33,4.63,1.33,2.11,0,2.41,2.76,4.24,3,1.1,0.14,1.19,1.05,1.54,1.83,0.57,1.25,1.4,1.19,2.31.39s1.41-1.8.53-3-0.91-2,.42-2.74a6.09,6.09,0,0,0,1.8-2.35c0.69-1.11,1.82-1.56,2.81-.9,1.58,1.06,3.42,2.18,3.31,4.6s0.9,3.85,2.09,5.53a7.61,7.61,0,0,1,1.85,5.48,33.5,33.5,0,0,0,.54,10.88c1,4-1.07,6.62-3,8.36a12.86,12.86,0,0,0-4.26,7.3c-0.14.66-.31,1.36-1,1.42-2.67.23-3.6,1.94-3.69,4.6a7.65,7.65,0,0,1-.94,2c-1.31,3.35-2.78,6.59-2.35,10.48,0.23,2,.67,3.2,2.69,3.11,1.69-.07,1.68.94,1.3,2.25s-1.37,2-2.32,2.78c-3.61,3-4.25,5.34-2.85,10,0.34,1.12.77,2.16,0.22,3.31s0.19,1.83,1,2.48c1.23,1,2.79,1.54,3.59,3.08,1.68,3.23,3.83,6.28,4.91,9.73a170,170,0,0,0,9.19,22.43c1,2.16,2.6,4.26,1.74,7.12-0.37,1.23.61,2.42,1.3,3.47a30.85,30.85,0,0,0,9.86,9.23c4,2.45,8.38,4.36,10.78,9,3,1.66,4.06,4.44,3.76,8a6.74,6.74,0,0,0,.23,1.12c0.53,5.24.9,10.52-.09,15.7a60.84,60.84,0,0,0-1.3,12.88A78.72,78.72,0,0,1,4847-888.2c-0.71,5.2-3.42,10.07-2.14,15.59a2.39,2.39,0,0,1-.29,1.48c-1.67,3.14-1.26,6.41-.65,9.73,0.76,4.13-.39,8-1.3,12-0.95,4.12-2.77,7.85-4,11.82-0.8,2.5-1,5.27-3.18,7.07a1.62,1.62,0,0,0-.41,1.77c1.07,2.29.17,4.87,1,7.19,0.73,2,.29,3.82-0.74,5.8-1.57,3-2.71,6.37-.25,9.66-2.55,1.25-2.92,3.67-2.86,6.3,0,1.18-.5,2.83,1.38,2.83,1.53,0,1.39-1.43,1.42-2.54a17,17,0,0,1,1.45-6.56c0.75-.23,1.76-1.38,2.18-0.48s1.55,2.28.77,3.61a10.25,10.25,0,0,0-.93,3.22c-0.61,2.84-.34,6-1.11,8.51-1.08,3.57-1.39,7.3-2.55,10.83a2.16,2.16,0,0,1-2.09-1.63c-0.69-1.54-2.54-1.32-2.91-.43-0.74,1.8-2.88,2.21-3.34,4.34,2.45-.95,4.31.63,6.31,1.17,0.79,0.22.63,1.07-.22,1.64-1.25.84-1.53,1.86-.69,3.48a6,6,0,0,1,.36,3.91,1.43,1.43,0,0,1-1.63,1.15,5.65,5.65,0,0,0-.5-3.34c-0.49-.9-1-1.31-2-1a2,2,0,0,0-1.58,2.19c0.09,1.36.87,1.32,1.76,1.06s0.94,0.45,1.11,1c0.51,2.1-1.45,3.26-1.86,4.89,1.07,1.06,1.57-.66,2.23-0.22s-0.24,1.89,1.06,1.89c0.57-.47.27-0.95,0.17-1.43-0.22-1.09.19-1.95,1.24-1.66s0.47,1.22.23,1.93c-1,2.92,0,5.37,1.27,7.95,0.84,1.68,2.4,3.33,1.45,5.67a2.09,2.09,0,0,0,.48,2.45,2.83,2.83,0,0,1,.74,2.42h0v0a1.26,1.26,0,0,0-1.14.68c-0.46,2.44,2.58,5.35,4.7,4.49,0.84-.34.74-1.14,0.4-1.89-0.51-1.14-2-.71-2.53-1.74h0v0a2.9,2.9,0,0,0,2.2-.69,9,9,0,0,1,4.68-2.13c-0.1,2.77-2.5,2.3-3.83,3.36a6,6,0,0,0,1,.94c3.17,1.69,3.75,1.38,4.66-2.32,0.39-1.6.79-3.28,2.82-3.26l0.62-.52,2.25,0-2.25,0-0.63.52a4.67,4.67,0,0,1-.06.77c-0.85,3.41-.85,3.4,2.43,3.38a1.63,1.63,0,0,1,.62.31c-2.54,2.37-2.54,2.37-.9,5.06-3-.36-5.72.61-8.59,1.22,1.54-.14,2.17,1.55,3.47,1.76l0.13,0.16a1.29,1.29,0,0,0,1.83.4,4.91,4.91,0,0,1,2.32-.57l0.22,0.28a2.37,2.37,0,0,0,1.61,2.27c3.43,1.52,6.67-.39,10-0.59,0.54-1.88,1.73-1.42,3.06-1.17,1.75,0.32,3.3-.63,5-1.46-3.16-.52-5.47-2.75-8.19-4-2.1-1-2.92-3.28-4.6-4.65,0.08-3.87-2.54-3.54-4.89-3.63,0.51-3.06,2.77-.74,4.18-1.64a27.11,27.11,0,0,1-2.11-4.3c-1.26-4.61-.91-5.93,3.16-7.77a3.58,3.58,0,0,0,2.41-3c0.28-3.13,2.2-4.64,4.43-6a22.8,22.8,0,0,1,2.11-1.42c2.08-1,1.31-3.08,1.48-4.66s-1.49-1.21-2.41-1.59a13.27,13.27,0,0,1-2.32-1c-3-2-3.26-4.09-1.41-7.3a6.84,6.84,0,0,1,4-2.93c1.12-.43,2.54.2,3.16-1.78,0.44-1.4,1.53-2.56,1.28-4.23a4.42,4.42,0,0,1,1.92-4.26c0.78-.64,1.53-0.91.62-2.28-0.8-1.21.28-1.55,1.2-1.29a7.64,7.64,0,0,1,1.45,1.07,1.07,1.07,0,0,0,1.59-.23,2.41,2.41,0,0,0-.07-2.84c-0.45-.56-1-0.2-1.57.11a2.36,2.36,0,0,1-3.71-1.59c-0.16-.61-0.06-1.28-0.18-1.91-0.25-1.34-1.25-2.92-.06-4s2.67,0.13,3.88.77a7.2,7.2,0,0,0,4.52.59,4.46,4.46,0,0,0,2.82-1.53c0.68-.8.23-1.67,0-2.54a4.79,4.79,0,0,1,.62-2.94,3.87,3.87,0,0,0,0-3.29,1.7,1.7,0,0,1,.28-2.14c5.36,0.89,10.53-.26,15.69-1.91,4.61-1.47,5.62-6.17,8-9.66a1.68,1.68,0,0,0,.05-0.76c0.07-2-2-2-2.65-3.35-0.78-1.58,1.22-3.2-.22-4.73a9.34,9.34,0,0,0-2.89-2.21c-1.89-.86-2.4-2.3-1.66-4.69,1.56,2.4,4.21,2.22,6.1,3.5,2.86,1.94,6,.66,8.87,1.54a3.23,3.23,0,0,0,1.66-.58c2.95-1.21,4.17-4,5.32-6.84l-0.25-.29,0.25,0.29a3.7,3.7,0,0,0,2.72-3.25,16.68,16.68,0,0,0,2.16-6.29,3.72,3.72,0,0,1,.93-2.38,8.13,8.13,0,0,0,2.54-4.4c0.25-.93.56-1.64,1.65-1.54,1.38,0.14,1.17,1.28,1.29,2.22a2.79,2.79,0,0,0,1.47-2c1.32-3.58,2.64-7.15,5.75-9.51a3.48,3.48,0,0,0,1.22-2.71c0-2.54.69-5,.27-7.6-0.6-3.62,0-6.86,2.76-9.64,1.89-1.92,4.06-3.45,5.91-5.41a6,6,0,0,1,2.81-1.58,10.54,10.54,0,0,0,5.64-3.63,3.21,3.21,0,0,1,2.88-1.07c2.28,0,4.57,0,6.85-.11a1.72,1.72,0,0,0,1.26-.48c0.42-2.29,2-3.29,3.7-4.31a2.46,2.46,0,0,0,.87-2.39,8.08,8.08,0,0,1,1.88-5.23c1.5-2.13,1.94-4.93,3.53-7.06a2.05,2.05,0,0,0,.07-1.86c-0.81-2.46.11-4.5,1.33-6.48a6.41,6.41,0,0,0,1.06-3.22c0.2-5.11,1.19-10.16.74-15.32a41.1,41.1,0,0,1,0-5.78c0.13-2.41.61-2.92,2.77-3.93a3,3,0,0,0,1.25-1.31,19.75,19.75,0,0,0,2.19-4.83c0.57-2.83,2.29-4.59,4-6.57,2.72-3.18,5.29-6.49,6.72-10.71,2-6,.34-11.62-1-17.3-0.39-1.6-1.53-2.81-3.15-2.58-4.19.6-6.73-2.19-9-5.14a39.59,39.59,0,0,0-5.86-5.51,6.52,6.52,0,0,0-6.35-1.58c-2.38.68-4.51,0-6.51-1s-3.56-1.68-5.72-.81c-1.41.57-2.88,0.22-2.92-2.07,0-1.62-1.13-2.45-2.27-3.18a72.85,72.85,0,0,0-9-4.59c-1.72-.81-3.64-0.52-4.41,1.14-1.27,2.75-3.74,4.23-5.76,7.26,0.4-1.68-.5-2.07-1-2.92a19.59,19.59,0,0,0,2.21-1.25,7.37,7.37,0,0,0,3-5c0.11-.75.21-1.8-0.57-2a17.08,17.08,0,0,0-4.57-.86c-2.74-.08-4.58,1.28-5,4.41a1.27,1.27,0,0,1-.55.39c-2.09-3-2.19-3.59.05-5.85a26.35,26.35,0,0,0,3.19-4.59c1.54-2.4,1.66-2.87-.33-5.26a16.64,16.64,0,0,1-3-7,15.45,15.45,0,0,1-.62-3.77c0-.79-0.1-1.78-0.79-2-2.31-.83-3.26-3.19-4.85-4.79-3.79-3.82-8.2-5.71-13.28-5-3.83.56-7-.13-9.43-3.42-0.95-1.29-2.78-1.52-3.16-3.45-0.57-3-2.49-4.69-4.75-6.34-2.45-1.78-4.93-1.67-7.71-1,0.45-1,.82-1.66,1.06-2.37,1-2.85.41-4.5-2.42-4.85-2.51-.3-3.73-1.78-4.92-3.72,0.41-.75,1.44-0.06,1.86-1-1-1.35-2.19-.1-3.26-0.15a6.44,6.44,0,0,0-4.73,1.51c-2.57,2.08-5.44,2.46-7.85-.75-0.77-1-2-.72-3-0.56s-1.85.47-2.79,0.57c-1.73.19-3.17,0.15-3.8-2.31-0.54-2.12-2.27-3-4.44-3.14-2-.08-3.7.75-5.47,1.51-4,1.68-4.25,2.3-2.62,6.51a5.24,5.24,0,0,1,.29,4.07c-0.53,1.28-1.93,1.43-2.47.24-0.78-1.73-1.57-3.58-.28-5.44a4.07,4.07,0,0,0,.06-5c-0.92-1.41-.57-2.35.82-3a5.5,5.5,0,0,0,1.22-.78,1.65,1.65,0,0,0,.62-2,1.81,1.81,0,0,0-2.08-1.11,3.07,3.07,0,0,0-1.43,1.1,29.06,29.06,0,0,1-4.6,4.23c-0.87.74-1.67,1.51-2.87,1-1.38-.6-2,0.15-2.34,1.45-0.21.77-.7,1.14-1.26,0.5-1-1.16-1.63-.34-2.36.36a8,8,0,0,0-2.07,5.17,4.91,4.91,0,0,1-1.39,3.17c-1.68,1.84-4.17,3.48-3.68,7.6a43.15,43.15,0,0,0-4.39-6c-1.75-1.87-4.1-1.91-6.23-2.57-1.47-.46-2.38.79-3.45,1.58a20,20,0,0,1-3.44,2,4.72,4.72,0,0,1-5.57-1.2c-1.38-1.92-3.12-3.51-4.34-5.54-1.84-3.07-3.15-6.29-2.44-10.13a34.57,34.57,0,0,0,1-5.79,15.31,15.31,0,0,1,1.11-6.64c0.74-1.58-.23-3-0.15-4.51s-1.2-1.29-2.07-1.62a1.33,1.33,0,0,1-.69-0.79c-0.71-2.55-2.84-2.55-4.62-2.76a11.86,11.86,0,0,0-4.95.33c-3.36,1-6.83-.11-10.25.25-1.19.13-1.69-.89-0.7-2s2.06-2,1.86-3.56c-0.38-3,1.54-6,.17-9.09-0.21-.47.23-1.24,0.68-1,2.21,1.24,1.89-.62,2-1.85,0.21-1.76-.05-3.54.51-5.33a16.76,16.76,0,0,1,2.39-4.66c1.1-1.58.59-4.56-.4-4.28-2.07.59-4-1-5.92-.1a15.92,15.92,0,0,1-4.8,1.29c-2.37.31-4,1.82-3.84,4.26,0.31,4.45-2.51,7.29-4.06,10.77a1.19,1.19,0,0,1-2.1.31,2.49,2.49,0,0,0-3.59,0,5.26,5.26,0,0,1-2.7.81c-1.45.21-6.11-.75-7.52-1-3.53-.62-4.75-3.33-5.77-6.44a15.39,15.39,0,0,0-1.8-3.31,24,24,0,0,1-4-13.66c0.1-3.42.47-6.83,0.46-10.24,0-1.81-.28-3.38,1.48-4.6a2.64,2.64,0,0,0,.53-3.17,16.27,16.27,0,0,1-.89-2.92c-1.12-5.25,1.77-10.47,6.54-11.76a5.43,5.43,0,0,0,3.9-3.59c0.2-.53.06-1.36,1-1.27,3.2,0.32,6.39-2.55,9.61,0a1,1,0,0,0,1,0c2-1.8,3.26-.14,4.5,1.13,0.71,0.74,1.24,1.68,2.36,1.07a5.7,5.7,0,0,1,6.46.45c-1.69-2.09-1.2-5.79-4.69-6.34,3,0.44,5.63-1.17,8.39-.75a15,15,0,0,0,6.12-.12,5.5,5.5,0,0,1,6,2.19c1.42,1.76,2.37,1.95,4.1.59s2.94-1.1,4.27.73a16.58,16.58,0,0,0,2.52,3.22,3.82,3.82,0,0,1,1.18,4.47,7.44,7.44,0,0,0,1.34,7.2c2.25,2.82,2.91,6.52,5.15,9.29,1.07,1.32,2.84,1.83,3.48.25,1.09-2.69,2-5.72,1.17-8.53-1.26-4.5-2.61-9-4.09-13.43a47.4,47.4,0,0,1-1.71-7c-0.66-3.83,1.67-6.73,3.12-9.88,1.92-.23,3.05-1.88,4.39-3,2.49-2.18,4.54-4.79,7.43-6.66,2.11-1.37,3.89-3.45,6.54-4-1.38-2-1.24-2.79.57-3,1.08-.15,2-0.52,2-1.7,0.06-1.58-1.29-1.1-2.12-1.35-0.23-.06-0.44-0.17-0.66-0.26,2.84-2.19,2.71-2.11.77-5.3-0.4-.67-1.59-1.79-0.46-3.35a2.47,2.47,0,0,0-1-3.55c1.15-1.6.38-3.78,1.12-5.65,1.16,0.79,1,1.74,1,2.6s-0.51,1.6.2,2.16c1.6,1.29,1.31,3.11,1.34,4.85,2.4-2.76,3.62-5.83,2.12-9.6a0.75,0.75,0,0,1,0-.33c1.7,0.66,3,.62,4-1.45s2-3.66,1.07-6.08c2.56-.31,4.93-0.3,7-1.73h-4.17c2.42-1.65,5.45-1.37,7.41-2.65,2.3-1.5,4.66-.57,6.84-1.71a3.06,3.06,0,0,1-2-1.58c-2-3.29-.21-9.06,3.28-10.22,1-.34,2.31-0.44,2.89-1.34,1.19-1.83,3-2,4.66-2.38s3.62-.33,4.33-2.67a1.13,1.13,0,0,1,1.22-.61c2.72,0,5.05-1.26,7.41-2.48,0.41-.21,1.13-0.71,1.25-0.25,0.61,2.25,2.54.46,3.5,1.46a0.69,0.69,0,0,1-.68.73c-3.16-1-5,1.86-7.29,3.09-1.46.77-1.76,3.05-1,4.37,1,1.64,2.14,1.86,4,.66a5.87,5.87,0,0,0,1.89-1.72c1.5-2.52,3.8-3.2,6.31-3.6a9,9,0,0,0,2.41-.67c2.61-1.23,6.1-1.2,6.65-5.48,0.08-.66,1.3-1.78,1.79-0.59,0.8,2,1.47,1.13,2.27.27,1-1.1.56-1.7-.63-2.14-0.9-.33-0.77-1.15-0.51-1.93a1.93,1.93,0,0,0-.25-2.34,11.22,11.22,0,0,0-4.32,6c-0.23.61-.3,1.43-1,1.24-2.4-.6-5,0.24-7.27-0.8-4.35-2-7.18-3.48-6.14-9.8,0.17-1.06-.48-1.37-1.32-1-1.9.73-3.29,0.07-4.79-1.88a5.09,5.09,0,0,1,1.81,0c2.24,1.22,3.89-.06,5.5-1.44s1.41-3.14-.57-4a9.15,9.15,0,0,0-6.65-.46,86.71,86.71,0,0,0-8.74,3.34c-3.21,1.41-5.3,4.27-8,6.34l0,0c2-5.1,5.33-8.66,10.39-10.07a4.14,4.14,0,0,0,2.54-2.46,4.94,4.94,0,0,1,4.41-2.82c6.06-.1,12.12-0.27,18.2.14,4.36,0.29,9,.42,12.12-3.68,2-2.64,4.58-3.1,7.23-3.35,2.16-.2,3.79-1.42,5.59-2.33a1.68,1.68,0,0,0,.78-2.54c-1-1.24-.46-2.42-0.33-3.59,0.3-2.59.35-2.57-2-3.34a10.09,10.09,0,0,1-3-1.19c-3.29-2.49-4.81-2.68-7.78-.08-1.45,1.27-3.25,1.54-4.76,2.55a0.72,0.72,0,0,1-1.12-.51c-0.25-.67-0.33-1.19.52-1.41,1.93-.49,3.45-2,5.51-2.37,1.9-.33,3.69-1.38,5.51-2.1a1.6,1.6,0,0,0-1.74-1.3c-3.05-.4-5.73-2.2-8.76-2.61-0.54-.07-1.43.13-1.37-0.76,0.14-2.05-1.51-2-2.5-2.75s-2-1.37-3-2.06a1.62,1.62,0,0,1-.54-2.32c2.16-2,.58-2.88-0.74-4a3.19,3.19,0,0,1-1.13-1.32,31.38,31.38,0,0,0-5.57-8.94,60.88,60.88,0,0,1-5.39-6.86c-0.68,1.84-2.61,2.9-2.81,4.41-0.71,5.71-5.51,5.46-8.72,7.48a1.91,1.91,0,0,1-2.27-.68c-1.46-1.58-3.08-2.8-5.33-2.47-0.51.07-1.13-.38-0.91-0.83,0.78-1.58-.8-2.23-1-3.42-0.36-2.42-1-4.85.46-7.2-2.09-.3-4.16-0.47-6.17-0.95-1.11-.26-2.48-0.31-3.16-1.55-1.3-2.36-3.67-3.1-5.6-4.51-1.64-1.19-3.34-1.85-5.34-.69a5.25,5.25,0,0,1-3.43.33c-3.06-.39-6.09-0.94-9.12-1.56-2-.4-4.43,1.15-3.86,2.16,1.39,2.45.59,5.19,1.32,7.47,1.73,5.38,2,5.27-1.64,9.2-0.17.18-.35,0.35-0.52,0.53-1.13,1.2-.93,2.3.34,3.16,1,0.68,2.13,1.14,3.15,1.8,5,3.25,5.6,9.17,1.49,13.57a11.63,11.63,0,0,1-3.49,2.63c-1.74.82-3.49,1.63-5.29,2.28a1.66,1.66,0,0,0-1,2.66c1.26,2,1.45,4.25,2.11,6.4,1,3.31,1.86,6.35,0,9.66-1-.83-2.1-1.37-3,0.37s-2.42,1-3,.12c-2.1-3.09-5.55-4.81-7.12-8.38l0,0,0,0h0c-1.25-3-1.11-6.34-1.41-9.53-0.24-2.54-.49-3.24-2.81-3.45s-4.75-.09-7.13-0.16c-1,0-2.23.32-3.06-.61-1.86-2.09-4.45-2.31-6.79-3.09-1.14-.38-2.4-0.54-3.24-1.45-3.78-4.1-9.07-4.11-13.67-6a3.17,3.17,0,0,0-1.38.09c-1.64.14-3.45,1.8-4.75,0.74-1.13-.91-1.43-3-2.05-4.67-1-2.7-2.13-5-5.59-4.46a2.7,2.7,0,0,1-3.08-2.54c-0.3-2.72-.22-5.6,1.11-7.84,2.25-3.78,4.55-7.67,8-10.3,1.17-.88,2.11-2.95,4.36-1.9,0.82,0.38,2.23-.57,3.32-1.05,0.85-.37.81-1,0.35-1.85-0.35-.63-1.45-0.17-1.41-1.18,1.49-.66,3.56.67,4.47-1.59,0.61-1.53,1.52-1.66,2.87-1.2a5.53,5.53,0,0,0,5.71-1.13c1.2-1,2.38-2.12,3.53-3.22a1.64,1.64,0,0,0,.42-2.37c-5,.91-9.62-0.82-13.89-3.59a12,12,0,0,1,8.69,2.07,5.21,5.21,0,0,0,6.07.07,17.53,17.53,0,0,0,3.74-3.25c-0.28-1-1.73-.8-1.74-2.08,3.12-.11,3.12-0.12,5.93,1.07,1.5,0.63,3.05.33,4.58,0.27,0.7,0,.81-0.77,1-1.37,1,0.44,1.87.85,3,.23a63.65,63.65,0,0,0,5.74-3c2.34-1.6,2.46-2.27.3-4-1.13-.92-2.4-1.7-2.43-3.51,1.1-1,2.75-.71,3.91-2-1.09-.68-0.28-2.41-1.6-3a35.79,35.79,0,0,0-11.84-3.19,13.72,13.72,0,0,0-2.85.08c-1.21.17-1.69,1.34-1.16,2.55a2.38,2.38,0,0,0,1.33,1.18c1.71,0.81.5,2-.12,2.07-2,.12-2.81,1.17-3.24,3.19-0.15.67-1.09,2.44-2.31,0.86-0.56-.73-0.78-1.75-1.77-0.69-0.67.71-.21,1.32,0.27,2,1.31,1.84,1.28,1.9-.55,2.82-1.61.81-5.8-1.82-6-3.78a1.38,1.38,0,0,1,.7-1.59c2.31-1,.92-2.27,0-3.08a18.47,18.47,0,0,0-3.44-2c-1.33-.76-2.3-0.28-3,1-0.53,1-1,2.07-1.51,3.06-0.43.76-1.44,1.14-1.68,0.32-0.51-1.7-2.31-3.44-2-4.6,0.69-2.22-.61-1.57-1.42-1.93-1.85-.83-4.06.91-5.74-1a6.87,6.87,0,0,1,3.23-2.34c-2-2-4.73-3.18-5.59-6.28-0.21-.75-1.05-1-1.71-1.3-1.37-.63-2.75-1.24-4.54-2,1.52-1,3.43-1.4,3.5-3.19,0.07-1.63.8-1.5,1.78-1.53,1.77-.05,3.73.72,5.27-0.31a82,82,0,0,0,6.52-5.35c-0.16-.81-0.48-1.1-0.81-1.09-5.23.17-10.39-1-15.63-1-2.54,0-3.17,2.61-5.2,2.93a1.65,1.65,0,0,0-.28,1c0.05,1.63-.13,3.2,1,4.7,1.75,2.27,1.47,3-.41,5-0.84.9-1.15,2.31-2.81,2-0.69-.13-1.3.78-1.31,1.57a16.54,16.54,0,0,0,.33,5.09c0.55,1.71,2.46,1.82,3.92,2.3a20.16,20.16,0,0,0,2.48.29c2.66,0.5,2.94,1.11,2,4.05a1.81,1.81,0,0,0,.1.69c0.46,0.47.87,0.16,1.27-.11,0.56-.4,1.19-1.2,1.75-0.18a1.49,1.49,0,0,1-.64,2,23.14,23.14,0,0,1-3.08,1.9c-1.18.55-2.8,0.51-3.59,1.39-1.08,1.21.85,2.8,0.3,4.35a3.29,3.29,0,0,1-.5.64,2.64,2.64,0,0,0-2.57-1.75,1.12,1.12,0,0,1-1-1.63c1.13-2.21,0-2.64-1.67-3.28-0.71-.28-2.18-0.16-2.2-2.35,2.84,2,5,.12,7.59-0.79-1.53-.7-2.67-1.41-3.17-2.81-0.28-.77-0.55-1.48-1.44-1.37-1.77.22-3.22-.67-4.75-1.37-1-.45-2.32-0.75-2.89.49-1,2.27-2.9,3.07-5,4.15l6.5,1.68c-0.28,1.06-.46,1.82-1.47,1.63-0.48-.09-0.92-0.58-1.28.52-1,3.09-1.44,3.35-4.23,2.62a12.48,12.48,0,0,0-6,0,14.08,14.08,0,0,1-8.44-.52,11.78,11.78,0,0,0-4.52-.83,8,8,0,0,1-6.3-2.77,4.2,4.2,0,0,0-4.32-1.79c-2.24.25-4.46,0.62-6.69,1a3.32,3.32,0,0,0-1.31.57,1.44,1.44,0,0,0-.57.87,1.14,1.14,0,0,0,.76,1.15,2.51,2.51,0,0,0,2.05-.16,5.62,5.62,0,0,1,4.32-.11,27.24,27.24,0,0,1-3.52,1.32c-1.13.42-2,1.07-.86,2.47a3.68,3.68,0,0,1,.61,2.9c-0.07.62-.2,1.35-1,1.28a0.84,0.84,0,0,1-.79-1c0.48-1.69-.72-2-1.67-2.37a18.15,18.15,0,0,0-2.56-1.06c-2.2-.52-4.08-2.24-6.69-1.47-6.06,1.79-12.3.7-18.46,0.7a1.22,1.22,0,0,1-1.33-1c-0.07-.71.58-1,1-1.46,0.95-.92,2.62.17,3.49-1.45-2.43-1.79-5-3.41-7.7-2.62-3.09.9-5.94,0.15-8.77-.53a59.71,59.71,0,0,0-6.93-1.61c-2.52-.29-4.74-1.63-7.15-2.24-2.62-.68-5.45-1.39-7.88.35-3.36,2.4-4.38,2.23-6-1.71a1.66,1.66,0,0,0-.56-0.43c-1.08.07-1.57,1.07-2.19,1.78-1.87,2.11-2.86,2.3-5.14.87a11.61,11.61,0,0,1-2.61-2.6,7.79,7.79,0,0,0-3.18-2.41c-0.66-.26-1-0.27-1.57.71-1.27,2.37-3,4.23-6,3a5.66,5.66,0,0,0-2.09-.07c0.09-.73,1.39-0.66,1-1.61-3.23-.44-6.13.77-9,1.79-2.11.74-4.47,0.48-6.41,2a1.86,1.86,0,0,1-2.05-.22c-3-2-6-.43-7.75,1.49-2.15,2.37-4,1.91-6.27,1.39a38,38,0,0,1-8.85-2.87,8.2,8.2,0,0,0-4.15-.82,22.18,22.18,0,0,1-9.71-1.75,15.61,15.61,0,0,0-4.86-1c-2.18-.16-4.35,1.22-6.33.64-4.41-1.31-9-1-13.38-1.89s-8.87-1.56-13.43-.58a4.16,4.16,0,0,1-4.72-1.73,2.08,2.08,0,0,0-2.15-1c-1.66,0-3.34-.28-5,0.36-0.69.27-1.62,0.56-2.07,0.09-2-2-3.83-1.37-5.63.11-0.65-.76.94-2-0.93-2.3s-3.41-.66-5,0.57a12.06,12.06,0,0,1-4.32,1.75c-2.55.69-5.65-1.16-7.69,1.91-2.27-.82-4.11,1.25-6.19,1.17-3.49-.12-5.81,1.68-7.67,4.57a5.39,5.39,0,0,1-3.55,2.4,34.1,34.1,0,0,1-6.35.78,3.31,3.31,0,0,0-3.68,2.87c1.86,1.45,4.2,1.62,6.26,2.57,1.42,0.65,3.28.94,4,2.32,1.38,2.58,3.43,2.3,5.56,2.36,1.16,0,2.9-.58,3.35.56,1,2.46,2.65,1.61,4.2,1.73,0.76,0.06,1.67-.31,2.31.81a1.7,1.7,0,0,1-2.16.49c-0.56-.18-1.16-0.56-1.66,0-2.64,3.08-6,1.4-9.13,1.72a1.36,1.36,0,0,1-1.72-1c-0.46-3-2.2-2-3.79-1.54-2.54.74-5,1.68-7.59,2.36-2,.55-4.48.85-6,2.93C4432.37-1400,4434.75-1401.35,4436.64-1400.46Zm523,379.34h0a1.69,1.69,0,0,0,.28-0.63A1.69,1.69,0,0,1,4959.66-1021.11ZM4920.88-854a1.6,1.6,0,0,0-.06,1.64A1.6,1.6,0,0,1,4920.88-854Zm-64.81-467.37a1.37,1.37,0,0,0,1.57-1.06A1.37,1.37,0,0,1,4856.07-1321.34Zm-28.4,65.53-0.14-.05Zm-39.67-40h0Zm1.13,2.32a1.91,1.91,0,0,1-.49.3A1.91,1.91,0,0,0,4789.14-1293.54Zm6.33-.79a28.33,28.33,0,0,1-5.66-.77A28.33,28.33,0,0,0,4795.46-1294.33Zm-5.66-.78h0a1.06,1.06,0,0,0-.62-0.6A1.06,1.06,0,0,1,4789.8-1295.11Zm-54.34-29.27h0a9.33,9.33,0,0,0-.68,3.37A9.33,9.33,0,0,1,4735.46-1324.38Zm0-.06a2.84,2.84,0,0,1-1.69-.3A2.84,2.84,0,0,0,4735.44-1324.44Zm-0.67,4.13q0,0.71.06,1.41Q4734.78-1319.6,4734.77-1320.31Z"/></clipPath><clipPath id="clip-path-11" transform="translate(-4308.5 1563)"><rect class="cls-1" x="4341.34" y="-4245.4" width="1752.97" height="6997.34"/></clipPath><clipPath id="clip-path-12" transform="translate(-4308.5 1563)"><path class="cls-2" d="M4741.59-1481.11c2.09,1.32,4,3.68,6.61,3.07,2.79-.65,5.59.11,8.34-0.58a1,1,0,0,1,1.36,1c-1.71,1.28-4.17-.4-6.09,1.56,3.43,2.19,6.63,4.14,10.53,4.37,2.69,0.16,5.29-.93,7.92-0.58,2.3,0.3,4.45.24,6.35-1.17a14.92,14.92,0,0,1,5.21-2.11h0a1.77,1.77,0,0,1-1.07,1.76,1.11,1.11,0,0,0-.64,1.51,1.08,1.08,0,0,0,1.2.57c2.37-.36,4.6.73,6.93,0.78a5.43,5.43,0,0,0,2.95,3l-0.15.2c-1.51-.15-3.16.4-4.46-0.84-2.92-2.77-6.16-1.27-9.74-1.43a6.45,6.45,0,0,0,3.66,3.54,15.42,15.42,0,0,1-2.94.26,16.26,16.26,0,0,0-5.51,1.41,1.35,1.35,0,0,0-.86,1.5,1.27,1.27,0,0,0,1.14,1.27c3.41-.27,6.82.9,10.19,0.15a7.76,7.76,0,0,1,3.08.06c2.64,0.42,5.36,1.68,7.91-.4a1.38,1.38,0,0,1,1-.15,25.06,25.06,0,0,0,9,0c1.39-.24,3.12-0.64,4.32,1a1.93,1.93,0,0,0,1.66.52c3.62,0.07,7-1.41,10.43-2.16a1,1,0,0,0,.84-1.39,1.3,1.3,0,0,0-1.41-.94c-0.82.12-1.6,0.46-2.42,0.55a1.06,1.06,0,0,1-1.34-.92,1,1,0,0,1,1-1.26c1.2-.09,2.84-0.05,3.27-1.14,1-2.42,2.65-2.15,4.39-2.08a15.67,15.67,0,0,0,5.22-1.06,6.57,6.57,0,0,0,3.78-2.76,6.89,6.89,0,0,0,.85-4.67,16.53,16.53,0,0,0,6.8-1.56c2-.89,4.84.34,7.3-0.1a9,9,0,0,0,2.29-1.07,51.5,51.5,0,0,1,13-4.93c3.72-.78,7.26-2.36,11.11-2.52a3.65,3.65,0,0,0,3.16-1.85,24.93,24.93,0,0,1-8.76.19c7.73-1.58,15.84-.75,23.23-4.52-3.83-1.19-8-.27-11.49-2.77a0.62,0.62,0,0,0-.35,0c-3.21.1-6.43-.35-9.61,0.27a2.57,2.57,0,0,1-2.07-.11c-1.74-1.19-3.67-.85-5.55-1-2.72-.14-5.44.14-8.16-0.64a8.15,8.15,0,0,0-4.95.2,3.33,3.33,0,0,1-2.42.12,9.7,9.7,0,0,0-7,.35,6.16,6.16,0,0,1-3.42.26,38.47,38.47,0,0,0-12.79,0,25.24,25.24,0,0,1-5.66.27c-3.14-.15-6.21-1-9.46,0-1.36.43-2.78,1.75-3.89,1.38-2.13-.71-3.42.48-4.86,1.49-0.92.64-1.66,1.29-2.91,0.81a17.43,17.43,0,0,0-15.08.9,2.42,2.42,0,0,1-2.1.06c-1.88-.82-3.72-0.47-5.59,0a26,26,0,0,1-8.11.9,6.57,6.57,0,0,0-4.54,1.26c1,1.47,2.11.83,3,.3,1.77-1.06,1.64,2.48,3.32,1.47a1.12,1.12,0,0,1,.54.28c-1,2.29.88,1.59,1.75,2,5.18,2.56,10.83,1,16.21,2.13,2.8,0.6,6.13,1.29,8.94-.95a1.65,1.65,0,0,1,1.35.18c2.6,1.3,5.38.82,8.09,1a17.82,17.82,0,0,1,4.8-1.09l1.08-.11-1.08.11a17.82,17.82,0,0,0-4.8,1.09l0,0c-1.53,1.36-3.35.55-5,.73-1.22.13-.85,0.85-0.69,1.56h0c-4.24-1.28-8.67-.43-13-1.41-2.27-.52-2.64,0-2.94,2.54-0.17,1.4-1.22,1.55-1.61.79-0.81-1.61-2.46-1.8-3.5-3-1.46-1.72-1.94-1.53-4,.33-1.68.69-2.32-1.72-3.79-1.52-3.44.47-6.2-1.41-9-3-3.22-1.85-6.56-1.82-10.18-1.42,0.68,1,1.86,0,2.27,1.37a44.93,44.93,0,0,0-5,.05c-0.87.1-3.15-1.19-2.09,1.79,0.17,0.46-.41.52-0.71,0.47-1.81-.28-3.09.84-4.41,2,0.66,0.66,1.69,0,2.3.75-0.58.61-1.32,0.19-2,.39-0.81.24-1,1-.45,1.37m86.51-16.14a0.63,0.63,0,0,0-.85,0h0a0.63,0.63,0,0,1,.85,0m-0.85.13s0,0.07,0,.1,0-.06,0-0.1"/></clipPath><clipPath id="clip-path-14" transform="translate(-4308.5 1563)"><path class="cls-2" d="M4888.37-1406.15a2.55,2.55,0,0,0,2-.56,1.6,1.6,0,0,0,.67-1.64,1.26,1.26,0,0,0-1.08-.86,6,6,0,0,0-1.75-.33c-1.8.15-3.83,1.34-4.8-1.52-2,.55-2.93-1.27-4.26-2.23-1.17-.85-2.49-2.05-3.84-1.77-3.1.62-5.5-.86-8-2.33a6,6,0,0,0-3.38-1,2.38,2.38,0,0,1-2.33-.89c0.16-1,2.26-1.35.63-3,3.5,0.81,3.5.81,5.93-.07-1.74-1.57-3.87-1.15-5.8-1.66,1.2-1.56,3.21.3,4.21-1.45-0.58-1.6-2-1.79-3.11-2.46-1.52-.91-2.07,2.22-3.57,1.11-0.58-1.34,1.25-1.59.86-2.8-1.53-.6-2.94-1.36-4.77-0.8a3.9,3.9,0,0,1-3.95-1c-1-1-1.95-.69-3-0.78l-0.11-.14c0-.9.13-1.8-0.93-2.19-1.81-.68-3.6-1.27-5.45-0.06-1.41.93-2.83,1.47-3.94-.53-0.56-1-1.33-.7-2.17-0.47a8,8,0,0,0-2.32,1.22c-0.24-1.74.9-1.6,1.48-2.1s0.61-1.33-.08-1.53c-2.94-.83-5.29-3.89-8.75-2.75,1-1.56.83-2.65-.81-3.73a15.11,15.11,0,0,0-8.13-2.41c-2.6-.08-5.24.39-7.8-0.5a1.51,1.51,0,0,0-2,1,3.2,3.2,0,0,1-1.23,1.83c-0.19-1.71-1.18-2.21-2.68-2.44-4.74-.73-9.08,1.4-13.6,2.16a4.31,4.31,0,0,0-2.77,2.26c-0.51,1.06.24,1.85,0.48,2.78,0.34,1.36-.77,2.57-1.76,3.37-0.64.53-1.32-.26-1.8-0.83-1-1.25-.09-3-1.12-4.53-0.45-.65,1.21-2,2.2-2.66,1.36-.9,2.83-1.59,5-2.78a23.93,23.93,0,0,0-7-.47c-5.47,0-10.19,1.69-13.62,6.76a7.07,7.07,0,0,0-.91,6.16c0.44,1.52,2.34,1.43,3.74,1.59a23.9,23.9,0,0,0,2.86.06,5.21,5.21,0,0,1,4,1.32,6.36,6.36,0,0,1-3.9-.12,10.73,10.73,0,0,0-2.46-.32,1.18,1.18,0,0,0-1.42.85,1.47,1.47,0,0,0,.88,1.5,8.46,8.46,0,0,0,5,2c3.17-.1,6.05.68,9.1,1.29a29.44,29.44,0,0,0,9.09.52,8.85,8.85,0,0,1,4.23.46c2.23,0.83,4.63-.91,6.86.39,0.65-3.25,2.59-.27,3.79-0.91a1.1,1.1,0,0,1,.7.07c0.32,0.09.4,0.28,0.26,0.49-0.44.6-1.48-.05-1.79,1.2a2.05,2.05,0,0,0,2.82.14c1.18-1.27,3.61-.36,4-2.62,0.26-1.65,1-1.07,2-1.07,1.93,0,2.74,1.75,4.17,2.47,2.31,1.16,4.63,2.28,7,3.44-0.71,1-1.64.48-2.37,0.76a1.26,1.26,0,0,0-1.08,1.29c0.1,0.9.85,0.81,1.39,0.7,1.51-.3,3-0.64,4.51-1.08a1.55,1.55,0,0,1,1.93.43,6.21,6.21,0,0,0,3.88,2.29c3.39,0.82,4.88,3.77,6.34,6.87-2.11,1.47-3.93,2.91-5.89,4.08-3.07,1.84-3.1,1.76-.26,4.3a1.6,1.6,0,0,1,.08.73c-4.11,1.16-8.25,2.27-12.46.81-1.88-.65-3.05-0.28-4.3,1.33-0.71.91-2.32,1.2-1.86,2.83s1.95,1.7,3.18,2.1a5.37,5.37,0,0,0,1.07.1c3.62,0.35,7-2.37,10.72-1a1.24,1.24,0,0,0,.32-0.15c1.83-.45,3.57-0.61,5.18.9a41,41,0,0,0,3.81,2.83c0.85,0.63,1.85.38,2.77,0.58,2.11,0.48-.19,1.85.44,2.62a2.37,2.37,0,0,0,.56.47c1.07,0.69,2.51.76,3,2.43a1.12,1.12,0,0,0,1.58.46c2.24-1.3,3.84-.13,5.83,1,3.69,2.13,8.14,1.4,12.07,2.92a1,1,0,0,0,1.21-.57,1.27,1.27,0,0,0-.48-1.65,33.87,33.87,0,0,0-7.05-4.44,11.84,11.84,0,0,1-3.89-2.79,0.83,0.83,0,0,1,1.11-.43q6.11,2.42,12.21,4.91c0.86,0.35,1.5.9,2.49-.11s-0.06-3.49,2.2-3.43a1.57,1.57,0,0,0-.06-0.74c-1.87-2.26-3.12-6-5.71-6.51-4.06-.82-5.81-4.76-9.37-5.89,0.87-1.25,2.38.1,2.9-1.44,0.81-2.37,1.12-2.66,2.74-1.77,2.09,1.14,4.42,2,6,4a8.29,8.29,0,0,0,7.65,3.4c0.74-1.06,0-2.34.63-3.44,1.11-.08,2.37.55,3.33-0.47,0.71-.75,2.43-1,1.32-2.83-0.19-.32.45-0.38,0.77-0.38m-79.8-33a2.57,2.57,0,0,1,.09-0.37,2.57,2.57,0,0,0-.09.37m0.43-1.78h0c0-.56,0-1.11.06-1.67,0,0.56,0,1.11-.06,1.67m0,0.18a2.23,2.23,0,0,1-.16.7,2.23,2.23,0,0,0,.16-0.7m15-.93-2.17,0c-0.7,1-1.7.65-2.6,0.71l-0.18,0,0.18,0c0.91-.05,1.9.27,2.6-0.71l2.17,0a1.61,1.61,0,0,0,1.32.75,1.61,1.61,0,0,1-1.32-.75m1.51,0.76h0m0.57,0h0"/></clipPath><clipPath id="clip-path-16" transform="translate(-4308.5 1563)"><path class="cls-2" d="M4618-1437.06c2.73,0.75,5.64,1.06,7.58,3.76,0.73,1,1.85,1,3,.61a25.15,25.15,0,0,1,6.59-1.47c1,0,2.43-.17,2.78-1.36,1.18-3.92,5-3.87,7.47-5.86a7.18,7.18,0,0,1,5.76-1.29c-3.42.2-4,4.15-6.58,5.46-0.57.29-.54,1.55,0.06,1.44,2.14-.39,3.39,2.2,5.37,1.69,1.34-.35,2.56.11,3.84,0.14-0.91,1.19-2.2.63-3.32,0.81s-2.3.26-2.86,1.78c3.56,2.1,7.36,1.38,10.93,1.54,2.54,0.12,5.21-.37,7.8-0.28a20.15,20.15,0,0,1,8.87,2c-7.78.7-15.69-1.16-23.65,1.67a8.27,8.27,0,0,0,6.79,4c2.14,0.12,4.29,0,6.43,0,1.12,0,2.15.22,2.55,1.6,0.9,3,3.18,3.3,5.48,2.8a26.88,26.88,0,0,1,6.38-.51,35.59,35.59,0,0,0,8.12-1c1.38-.29,2.54-1.43,4.06-1.34a6.08,6.08,0,0,0,5-1.67,1.56,1.56,0,0,1,1.95-.49c4.69,2.7,9.76,3.13,14.93,2.89a6.11,6.11,0,0,0,2.8-.46c0.52-.28,1.18-0.49.94-1.33a1.85,1.85,0,0,0-1.16-1.33c-1-.4-2,1-3.41-0.15,2.19-.86,3.69-2.94,6.2-1.54a4,4,0,0,0,1.77.08,1.07,1.07,0,0,0,1.3-1,1.23,1.23,0,0,0-1-1.32,37.88,37.88,0,0,0-7.5-2.34,10.15,10.15,0,0,1-5-2c-0.66-.52-1.63-1.11-1.24-2.09,0.62-1.6-.25-2.37-1.09-3.29a8.85,8.85,0,0,1-2.56-4.51c-0.25-1.63,1.5-2.14,2.21-3.27,0.84-1.33.59-2.32-.85-2.42-2.25-.17-4.52-0.06-6.77,0a1.32,1.32,0,0,0-.76.62c1,2.46-.9,1.48-1.7,1.64a14.69,14.69,0,0,1-2.14,0c-2.23.07-2.7,0.85-1.82,3.15,0.5,1.3,1.13,2.55,1.75,3.79,0.36,0.75.59,1.44-.25,2a1.42,1.42,0,0,1-2-.25,5.71,5.71,0,0,1-1-1.58c-1.72-4.31-5.37-4.8-9-5.67,0,1.54,1.95,1.42,1.51,3.07-1.46.11-3.64,0.86-4.35-.12-1.7-2.37-4.07-1.75-6.1-2.52a3.23,3.23,0,0,0-3.93.9c-1,1.2-2.26,1.23-3.63.93,0.34-1.12,2.16-1.76,1-3.22a2.57,2.57,0,0,0-3.26-.74c-0.65.28-1.42,0.23-2.08,0.49a11.24,11.24,0,0,1-4.9.57c0.82-1.27,2.27-.42,3.26-1.12,0.67-.48,1.24-1.27.26-1.69-3.72-1.63-7.35-4-11.56-3.27a20.88,20.88,0,0,1-10.11-.88c-5.56-1.8-10.89.46-16.17,0.15-0.34,2.23,1.55,2.55,1.94,4-2.63,1.61-3.21,5.07-5.73,6.71a2,2,0,0,0-1,2.23c0.29,0.92,1.19.61,1.84,0.79"/></clipPath><clipPath id="clip-path-18" transform="translate(-4308.5 1563)"><path class="cls-2" d="M5370.52-949.94a2.69,2.69,0,0,0,1.09-2.66,11.41,11.41,0,0,0-.53-1.83,10.54,10.54,0,0,1-.69-3c0.23-4.86-1.87-8.88-3.86-13.34a6,6,0,0,0-1.91,4.26c0,3-.32,3.31-3.08,4.08a1.1,1.1,0,0,0-1.07,1.1c-0.45,4.68-1.67,6.13-4.86,9-2.42,2.19-5.23,2.88-7.94,4.09-0.76.34-1.78,0.32-2,1.33-0.95,4-2.77,7.88-1.27,12.24,1.87,5.44,1,10.4-2.14,15.17a9.25,9.25,0,0,0-.63,9.44,7.07,7.07,0,0,1,.83,4.44c-0.44,2.37.83,4.21,1.63,6.14,0.72,1.73,5,3.87,6.28,3.41,6.67-2.37,7.49-3.34,9.23-10.95a3.65,3.65,0,0,0,.05-0.38c1.17-6.67,3.2-13.1,4.77-19.66,1.9-7.9,4.78-15.64,3.93-24.07a0.9,0.9,0,0,1,.27-0.13c0.8,0.15.92,1.8,1.93,1.22"/></clipPath><clipPath id="clip-path-20" transform="translate(-4308.5 1563)"><path class="cls-2" d="M5378-1434.71c0.86,0,1.2.28,2.68,1.68,1.07,1,1.39.94,1.92-.7,0.19-.6.52-1,0.94-0.67,0.73,0.55,2,.83,2,2,0,2.19,1.52,2.13,2.68,2.2,4.3,0.29,8.6.68,12.94,0a1.57,1.57,0,0,0-1.41-1.2c-2.61-.63-4.35-2.57-6-4.56-1.46-1.72-1.62-3.91.1-4.92,2.07-1.21,3.2-3.61,5.67-4.38,1.3-.4,2.57-1.8,3.85-2.62,2.52-1.6,4.64-4.17,8-4.12a3.32,3.32,0,0,0,3.09-1.63,3.26,3.26,0,0,1,2.4-1.49,148.94,148.94,0,0,1,16.73-3.48c4.56-.77,9.11-1.61,13.67-2.44a2.86,2.86,0,0,0,1.28-.63c0.61-.53,1.76-0.73,1.57-1.84a2.27,2.27,0,0,0-2.07-1.84,19.63,19.63,0,0,0-5.33.16c-3.78.61-7.12,2.94-11,3.17-3.5.21-6.94,1.75-10.55,0.52a3.8,3.8,0,0,0-3.48.29c-1.15.87-2.41,0.82-3.66,1.14-3.33.85-6.89,0.6-10.06,2.27a18.5,18.5,0,0,1-8.22,2.46c-0.73,0-1.07.47-.77,1.28a1.29,1.29,0,0,1-.41,1.6,13.86,13.86,0,0,1-6.1,4c-2.2.62-2.15,0.83-1.41,3.3-3.89,1-4.43,1.49-5.86,5.09a2.61,2.61,0,0,1-1.26,1.28,9,9,0,0,1-2.09.36c-1.14.2-2.2,0.78-2.21,2.09,0,1.53,1.24,1.61,2.36,1.65"/></clipPath><clipPath id="clip-path-22" transform="translate(-4308.5 1563)"><path class="cls-2" d="M5202.69-1477.55c1.42,0.5,2.59,1,3,2.69a1.08,1.08,0,0,0,.85.61c2.4-.09,3.61,3.06,6.16,2.59a1,1,0,0,1,1,1c0.3,1.37,1.31,1.2,2.26,1.28s1.92-.34,2.89.4a2.7,2.7,0,0,1-1.9.41c-0.56,0-1.33-.13-1.42.73a1.33,1.33,0,0,0,1.34,1.45c3,0.44,5.6,2.08,8.36,3.22,1.13,0.47,2.21.72,2.81-.53,1.71-3.55,5.2-4.86,7.78-7.32,0.75-.72.87-1.86,2.13-2.35,2.72-1.05,4.84-.28,6.82,1.59,0.59,0.56,1.6.77,1.64,1.86,0,0.84-1.21,1-1.08,2.22,1.77,0,3.5-.34,5.07.07,3.91,1,6.64.51,9.71-2.36-1.63-.56-3.69.66-4.92-1.43s-3.8.09-5.09-1.92c-0.76-1.19-2.62-.08-3.16-1.3-0.76-1.72-2-1.63-3.28-1.58-4.35.16-7.67-3.4-11.87-3.74-1.59-3-4.65-1.08-6.82-2.29-0.75-.42-1.87.36-2.38,1.28s0.21,1.42.58,2.06c0.28,0.49.94,0.8,0.64,1.65-1.48.42-2.09-.84-2.78-1.79a4.31,4.31,0,0,0-3.44-1.71c-1-.08-2,0.87-3.1.67l-0.1-.13c-0.09-.52-0.26-1.21-0.77-1.11a39,39,0,0,1-8.79.5,4.33,4.33,0,0,0-2.26,1c-1,.7-1,1.92.11,2.32m19.15,7.77a1.49,1.49,0,0,0-.57-0.31,1.49,1.49,0,0,1,.57.31"/></clipPath><clipPath id="clip-path-24" transform="translate(-4308.5 1563)"><path class="cls-2" d="M5076.4-1390.17c2.88-1.11,6-1.48,8.75-2.91a9.65,9.65,0,0,1,4-1.44c2.67,0,4.21-2.14,6.2-3.36a2.43,2.43,0,0,0-.23-4.12c-1.74-.73-2.89-2.16-4.36-3.14s-3.34-1.28-5.06-1.77c-0.59-.17-1,0.5-1.53.78a8.91,8.91,0,0,1-5.68,1.19c-1.69-.24-3.44,0-5.16-0.11-1.49-.06-2.82,2.39-4.69.64a0.74,0.74,0,0,0-.56.32c-0.51,2.39-2.88,1.69-4,3.21a5.49,5.49,0,0,1-.92-1.55c-0.4-3.07-2.79-3.54-4.86-4.37-0.58-.23-1.51-0.29-1.36,1,0,0.39-.17,1-0.46.87-2.93-1-3.51,2.14-5.38,3.06a1.71,1.71,0,0,0,2.41.71,8,8,0,0,1,3.51-.45c0.77,0,1.92-.32,1.95,1,0,1-.92,1.31-1.8,1.48-1.56.31-3.11,0.72-4.72,1.1,0.5,1.16,1.07.6,1.57,0.49a7.47,7.47,0,0,1,5.47,1.16c1.54,0.89,1.55,1.5.18,2.75-0.4.37-1.19,0.33-1.11,1.31A25.76,25.76,0,0,1,5068-1391c2.62,1,5.68,1.84,8.39.79"/></clipPath><clipPath id="clip-path-26" transform="translate(-4308.5 1563)"><path class="cls-2" d="M4762.69-1452.51a6.21,6.21,0,0,1,3.76.5,7.31,7.31,0,0,0,4.24.29c2.2-.33,4.17-1.61,6.49.51,1,0.95,3.45.51,5.2-.07a9.87,9.87,0,0,1,2.82-.33c4.07-.15,8.23.81,12.19-1a1.43,1.43,0,0,1,1.3.23c4.62,2,9.06,1.22,13.59-.68,1.35-.56,1-1.28,1.22-2.17,0.3-1.3-.49-1.52-1.31-1.81a24.78,24.78,0,0,0-7.64-1.52c-6.38-.23-12.8-0.29-19,1.85a2.23,2.23,0,0,1-1.73,0c-3-1.41-6.27-.25-9.43-0.84a12.65,12.65,0,0,1-6.33-2.93c0.87-.72,1.91.08,2.62-1.15a9.49,9.49,0,0,1-4.87-1.24,7.26,7.26,0,0,0-5.88-.56,5.9,5.9,0,0,1-4.56-.14c-4.15-1.92-8.52-2-12.92-1.92a2.28,2.28,0,0,0-2.56,1.6c4.57,2.31,9,3.84,14.07,2.43,1.92-.54,3.16,1.49,4.7,2.37,1.38,0.79.45,1.94,0.4,3a3.25,3.25,0,0,0,3.65,3.63"/></clipPath><clipPath id="clip-path-28" transform="translate(-4308.5 1563)"><path class="cls-2" d="M4650.55-1455.74c2.11,1.76,4.66,1.26,6.63,1.26,2.58,0,5.65,1.65,8-1a0.89,0.89,0,0,1,1.29-.17c1.44,1.8,3.41.46,5.4,1.23-2.37,1-4.91.69-7.2,2.12a4.24,4.24,0,0,0,2.49,1.34c3.93,0.32,7.94.41,11.66-1a32.7,32.7,0,0,1,15.67-1.72,13.58,13.58,0,0,0,4.54-.6c1.39-.31,3.49-3.28,3.29-4.18-0.3-1.37-3.18-2.15-5.09-1.37q-5,2-7.46-2.76c-1.21-2.31-2.09-2.63-4.33-1.39-1.19.66-2.31,1.49-4,2.62,3,0.35,3.41,3.23,5.55,3.93-2.49.56-4.84,0.07-7.18,0.07a4.46,4.46,0,0,1-2.79-.92c-2.48-1.64-5.1-3.48-8.19-3.1-1.36.16-2.5,0.49-3.63-.61-0.66-.64-1.58-0.46-2.4-0.48-5.16-.14-8.82,2.82-12.23,6.76"/></clipPath><clipPath id="clip-path-30" transform="translate(-4308.5 1563)"><path class="cls-2" d="M4922.92-1298.05c0.63,0.32,1.52-1.12,2.2.49s1.92,1.07,2.73-.29c0.94-1.59.75-2.8-.61-4.72-0.43-.6.77-1.37-0.08-2-1,.17-1.33,1.79-2.4,1.53-0.52-2.15,1.57-2.49,2-3.93-2.39-.72-2.41-0.73-1.68-3.59a1,1,0,0,0-.5-1.25c-0.83-.47-1.67-1-2.68-0.55-2,1-3.91-.51-5.89-0.46a0.59,0.59,0,0,1-.68-0.65c1-3.19-1.35-2-2.51-2.32l-0.21-.22c0.23-1.61,1.35-2.69,2.14-3.93s0.25-3.17,2.1-3.83c-3.33-.89-5.35,1-6.91,3.4a47.8,47.8,0,0,0-3.67,7,11.25,11.25,0,0,1-3.88,5.17c-0.6.4-1.08,0.66-.47,1.33,0.81,0.89.11,1.33-.34,1.87s-1.27,1.31-.76,2.31,1.47,0.58,2.26.63c4.86,0.3,9.79-.76,14.61.74l0.07,0.08c-0.24,1.42-2,1.33-2.43,2.81,3.85,1.26,4.67-3.85,7.67-4.07,1.29,1.45-.47,2.86,0,4.45"/></clipPath><clipPath id="clip-path-32" transform="translate(-4308.5 1563)"><path class="cls-2" d="M5111.71-1325.15c1.89,1.23,3.79,2,6,.82a31.33,31.33,0,0,1,6.9-3c1.78-.43,3.07-0.83,3.79-2.79,0.63-1.71,1.22-3.33.43-5.15-0.24-.57-0.42-1.17-0.65-1.82a11.57,11.57,0,0,0,1.41-1.24c0.61-.73,1.94-1.43,1.42-2.39-0.68-1.26-1.22-3.24-2.54-3.49-2.84-.54-5.81-1.15-8.65.27-1,.51-2.16,1.66-1.94,2.41,0.95,3.16-1,2.38-2.41,2.29a8.37,8.37,0,0,0-1.71-.37c-1,.19-2.24.45-1.45,2.17a1.36,1.36,0,0,1,.16,1.44c-1,1.32-.09,1.69.79,2.15,0.63,0.33,1.44,0,2.11.78-1.4,1.58-1.56,4.12-3.91,5.15-1,.45-1,2,0.22,2.75"/></clipPath><clipPath id="clip-path-34" transform="translate(-4308.5 1563)"><path class="cls-2" d="M4829.22-1148.45c2.75,1.08,4.93-.1,7.31-1.35a8.9,8.9,0,0,0-3.11-2.74c-3.06-1.78-6.28-3.18-9.3-5.13-2.77-1.79-5.4-4.23-8.82-4.71a2.78,2.78,0,0,1-1.58-.8c-3.87-3.72-8.46-3.4-13.12-2.77-3.92.54-7.27,2-8.78,6.35,0.32,0.41,1,.78,1.2.53,1.59-1.85,4.16-1.66,5.83-3.44,1.09-1.15,4.53-1.1,4.52-.35,0,2.43,1.8,2.41,2.92,2.49a14.39,14.39,0,0,1,6,2,5.37,5.37,0,0,0,3,1c1.62-.28,2.11.62,2.62,1.87,0.64,1.59,1.5,2.78,3.29,3.11,2.29,0.43,2.26.56,1.13,3.09a5,5,0,0,0-.2,1.06,3.36,3.36,0,0,0,3.15.09,5.73,5.73,0,0,1,3.86-.26"/></clipPath><clipPath id="clip-path-36" transform="translate(-4308.5 1563)"><path class="cls-2" d="M4722.32-1441.64a6.5,6.5,0,0,1-3.37-1.07c-0.85-.41-1.61-1.22-2.64-0.88a1.83,1.83,0,0,0-1.56,1.37,1.3,1.3,0,0,0,.93,1.44c1.08,0.51,2,1.31,3.27,1.46a17.85,17.85,0,0,1,9.64,4.54c1.06,0.9,2.75,1.88,3.5,1.09,1.86-1.93,4.17-1.56,6.25-2.25a4.05,4.05,0,0,0,2.69-4.48,1,1,0,0,0-.83-1.07c-2.06-.07-3.42-2.42-6-1.63,1.06-1.59,2.2-1.41,2.92-2.06,1.07-1,.83-1.75-0.29-2.83-1.88-1.81-3.86-1.43-6-.86-1.24.33-2.32,1.15-3.76,0.87a7.13,7.13,0,0,0-6.94,2.3c0.58,1.16,1.62.88,2.53,1,0.74,0.09,1.54.32,1.53,1.24a1.77,1.77,0,0,1-1.89,1.83"/></clipPath><clipPath id="clip-path-38" transform="translate(-4308.5 1563)"><path class="cls-2" d="M4808.24-1390.53c0.55-.44,1.32-0.79,1.17-1.72s-0.83-.77-1.41-0.87c-1.89-.34-4.2.11-4.59-3a2.25,2.25,0,0,0-1.43-1c-2.15-.69-4.12-2-6.25-2.59-1.55-.44-3.12-2.35-5-0.7a1.73,1.73,0,0,1-.75-0.65,0.72,0.72,0,0,1,.46-1.15c0.55-.17,1.32-0.24.68-1.16-0.35-.5-0.85-1-1.43-0.32a1.4,1.4,0,0,1-1.59.51c-1.82-.52-2.26.79-2.63,2.23-0.22.86-.4,1.73-0.63,2.59a17.92,17.92,0,0,1-3.73,7.17,6.47,6.47,0,0,0,1.35.43,8.84,8.84,0,0,0,3.16-.44,1.17,1.17,0,0,1,1.77.64c0.3,0.93.24,2.09,1.58,2.16a4.4,4.4,0,0,0,2.72-.74,40.28,40.28,0,0,0,4.16-2.91c2-1.73,2.91-2.17,4.8-.56,1.72,1.46,3.71,1.55,5.55,2.3a1.89,1.89,0,0,0,2-.17"/></clipPath><clipPath id="clip-path-40" transform="translate(-4308.5 1563)"><path class="cls-2" d="M4723.67-1463.86a2.21,2.21,0,0,0-2.61.6c-1,.33-2,0.72-3.06,1-2,.52.94,2-0.7,2.74-0.76-.49-1.79-0.54-2.71-1.29a18,18,0,0,0-5.78-2.78c-0.85-.29-1.71-0.45-2.2.52-0.39.78,0.31,1.42,0.63,2.06a2.58,2.58,0,0,0,3,1.41c0.81-.15,1.62-0.37,2.44-0.46a0.8,0.8,0,0,1,1,.76c0.35,1.93.38,2,.94,2.06,0.94,0.1,1.9,0,2.83.14,2.64,0.32,5.22-.85,8-0.56-0.57.87-1.82,0.89-1.39,2.17a1.89,1.89,0,0,0,1.89,1.45c1.55,0,3.1.1,4.63,0,2-.14,4.74,1,4.8-2.92,2.38-1.45.46-3.38,0.24-4.9s-2.14-1.59-3.33-1.33C4729.36-1462.56,4726.53-1463.17,4723.67-1463.86Zm0.36,2.79,0,0.05Z"/></clipPath><clipPath id="clip-path-42" transform="translate(-4308.5 1563)"><path class="cls-2" d="M5235.53-1480.56c4.28,0.72,8.4,2.57,12.88,2,1.36-.19,2.89-0.46,4.15.55,1.49,1.19,3.19,1,4.81.8a45.34,45.34,0,0,0,12.88-3.67,1.17,1.17,0,0,0,1-.87,1.18,1.18,0,0,0-1.08-1.27,7,7,0,0,0-1.76-.18c-2.49,0-5,.07-7.4-0.74s-5,1.78-7.41-.49a1.45,1.45,0,0,0-1.31.36c-1.68,1.64-3.5,1.19-5.49.88a13.15,13.15,0,0,1-4.44-1.12,2.09,2.09,0,0,0-2.05-.28c-2.27,1.56-4.89,1.16-7.42,1.57a3.07,3.07,0,0,0,2.64,2.49"/></clipPath><clipPath id="clip-path-44" transform="translate(-4308.5 1563)"><path class="cls-2" d="M4836.73-1139c0.82,0.79,1.72.41,2.63,0.49,2.9,0.26,6.23-1.52,8.58,1.86a1,1,0,0,0,.94,0c1-2.42,3.17-1.76,4.88-2.46a7.38,7.38,0,0,1,5.78-.4,1.41,1.41,0,0,0,1.85-.69c0.61-1.05-.23-1.6-0.75-2.26-0.8-1-2.09-.64-3.08-1.61-3-2.89-6.27-5.39-10.72-3.73a4.66,4.66,0,0,1-3.13-.39c-1.23-.42-2.56-0.77-3.87,1.29,3.84,0,2.26,3.72,4.22,5.94a14.82,14.82,0,0,1-6.59-.24c-0.7-.22-1.46-0.48-1.78.52s0.53,1.24,1,1.73"/></clipPath><clipPath id="clip-path-46" transform="translate(-4308.5 1563)"><path class="cls-2" d="M4630.91-1459.45c2.82,0.24,5.77-1.34,8.48.7a0.66,0.66,0,0,0,.68-0.06c1.39-1.66,3.45-1.5,5.13-2.3,1.14-.54,1.65-2.12,3.2-2.66,0.6,1.2,1.37,3.61,2.64,2.6,2.12-1.68,6.68,0,6.39-5.05,2.16-1,1-1.35-.28-1.82s-2.49-.85-3.67.24a3.52,3.52,0,0,1-3.39.55,13.36,13.36,0,0,0-8.92,1.29c-3.33,1.64-6.66,3.22-10.36,3.62-1,.1-2,0.53-1.85,1.84s1.13,1,1.95,1.08"/></clipPath><clipPath id="clip-path-48" transform="translate(-4308.5 1563)"><path class="cls-2" d="M4707.09-1475.85c1.44-.49,1.95.61,2.78,1.66-1.75.43-3.29-.2-5.55,0.79,2,0.82,3.13,1.51,4.61,1.22,3.67-.73,7.29-0.25,10.94.31,1.86,0.28,3.08,1.86,4.89,2.1s3.87,0.88,5.19-1.21c-2.76-2.52-5.2-5-9-5.21-1.68-.1-3.31-1.3-5.12-0.4a1.21,1.21,0,0,1-1.33-.25c-3.28-2.63-7.06-1.62-10.68-1.67a1.53,1.53,0,0,0-1.73,1.74c1.68,0.16,3.11,1.57,5,.93"/></clipPath><clipPath id="clip-path-50" transform="translate(-4308.5 1563)"><path class="cls-2" d="M4735-1472.12c2.08,1.33,4,3.12,6.78,2,0.34-.14,1.77-0.53,1.35.67-0.55,1.56.2,1.54,1.07,1.55,2.86,0,5.71,0,8.57,0a1.39,1.39,0,0,0,1.43-1.24c-2.54-.23-5-0.92-7.54-0.54,0.83-2.95.78-3.61-.73-3.95-3.36-.75-6.75-1.33-10.14-1.87-0.85-.14-2.09-0.4-2.33,1-0.19,1.17.72,1.83,1.54,2.36"/></clipPath><clipPath id="clip-path-52" transform="translate(-4308.5 1563)"><path class="cls-2" d="M5190.33-1263.4c1,2.32.45,4.78,0.57,7.17,0.11,2.1.9,2.44,2.74,1.8,2.26-.79,3.28-2.2,2.95-4.79a5.48,5.48,0,0,1,.4-3,6.06,6.06,0,0,0-1.42-3.76,0.92,0.92,0,0,0-1.27-.34,10,10,0,0,1-3.52,1.68,0.94,0.94,0,0,0-.45,1.28"/></clipPath><clipPath id="clip-path-54" transform="translate(-4308.5 1563)"><path class="cls-2" d="M5360.47-1485.69c-0.71,2.56-3.13.82-4.6,3a8.39,8.39,0,0,1,5,0,4.72,4.72,0,0,0,3.84-.3c2.44-1.59,5.09-1.86,7.82-1.93,1,0,2.17.25,3.22-1.29-3.74-.86-7.14-2.41-10.24,1a1.41,1.41,0,0,1-2.21-.41c-1-1.78-2.67-1.62-4.15-1.43-3.35.44-6.67,1.1-10,1.67,3.84,2.07,7.57-.21,11.36-0.36"/></clipPath><clipPath id="clip-path-56" transform="translate(-4308.5 1563)"><path class="cls-2" d="M4670-1468.13c3.8,1.66,7.65,1.07,11.48.11a1.12,1.12,0,0,0,.66-0.75c-0.48-1.94,1.65-1.06,2.07-2.63-4.8-.93-9.31.35-13.84,0.66a1.36,1.36,0,0,0-1.26,1.15,1.3,1.3,0,0,0,.89,1.46"/></clipPath><clipPath id="clip-path-58" transform="translate(-4308.5 1563)"><path class="cls-2" d="M4742.34-1455.58c-0.37.28-.95,0.32-0.91,1a1.24,1.24,0,0,0,1.18,1.2c2.46,0.27,4.83,1.38,7.18,1,0.9,0,1.61,0,2.32,0s1.49,0,1.7-1a2.4,2.4,0,0,0-.45-2.15,5.52,5.52,0,0,0-1.13-.89c-3.49-2.39-6.74-1.51-9.89.86"/></clipPath><clipPath id="clip-path-60" transform="translate(-4308.5 1563)"><path class="cls-2" d="M4827.44-1410.85a8,8,0,0,0,4.21-1.12c1.89-1,2.15-3.62.6-4.69s-6.78-.74-8.14,1.54c-0.91,1.54-.77,2.91.68,3.84a4.88,4.88,0,0,0,2.66.42"/></clipPath><clipPath id="clip-path-62" transform="translate(-4308.5 1563)"><path class="cls-2" d="M4502.7-1361.58c-1.52-.94-3.09-1-3.78.23-1.07,1.9-2.55,2.3-4.31,2.66a10.23,10.23,0,0,0-2.58,1.3c-1,.55-0.9,1.35-0.4,2.23a2.71,2.71,0,0,0,3.85,1.29,29,29,0,0,0,4.63-2.55c1.7-1.08,1.24-1.82,0-2.76a0.67,0.67,0,0,1,0-1.06c0.54-.75,1.81-0.07,2.57-1.34"/></clipPath><clipPath id="clip-path-64" transform="translate(-4308.5 1563)"><path class="cls-2" d="M4590-1338.28c-1.67,0-3,0-4.24,0-1.73.08-2.4,1.05-1.41,2.34,1.83,2.39,2.9,5.6,5.88,6.85,0.28-3-1.28-5.83-.22-9.21"/></clipPath><clipPath id="clip-path-66" transform="translate(-4308.5 1563)"><path class="cls-2" d="M4575-1359.86c-1.66-.2-3.28-1.75-5.26-0.16,3,5.17,5.51,8.29,7.56,9.4a10.29,10.29,0,0,0-2.34-7.58c-0.91-1.14,1.64-1.47,0-1.66"/></clipPath><clipPath id="clip-path-68" transform="translate(-4308.5 1563)"><path class="cls-2" d="M5202.63-1342.28c1.94,1.62,2.83,1.64,3.82-.07,0.68-1.18,1.21-2.45,1.82-3.68,0.4-.81.78-1.72,0.18-2.5-0.76-1-1.42-.33-2,0.4s-1.06.17-1.62,0.1a2,2,0,0,0-2.31,1.32c-0.36,1.07.34,1.95,1,2.64a9.31,9.31,0,0,0,1.24.69,1.35,1.35,0,0,1,0,.64c-0.69.45-1.64-.7-2.18,0.45"/></clipPath><clipPath id="clip-path-70" transform="translate(-4308.5 1563)"><path class="cls-2" d="M5411.38-1484.16c1,0,1.9,0,3.33,0,1.84,0.45,4-.48,6.12-1.16a1.14,1.14,0,0,0,.57-0.88,1,1,0,0,0-.59-0.79,56.09,56.09,0,0,0-9.82.41,1.19,1.19,0,0,0-1.13,1.25c0.05,1,.8,1.13,1.53,1.16"/></clipPath><clipPath id="clip-path-72" transform="translate(-4308.5 1563)"><path class="cls-2" d="M4685.55-1472.71c0-.91-0.13-1.19-0.48-1.37-3.07-1.55-11.7-.75-15.16,1.6,5.46-.24,10.59.29,15.65-0.23"/></clipPath><clipPath id="clip-path-74" transform="translate(-4308.5 1563)"><path class="cls-2" d="M5365.79-1424c-1.5.28-2.9,0.55-3.72,2a1.52,1.52,0,0,0,.21,1.76c1,1.23,2.38.83,3.66,0.74a0.93,0.93,0,0,0,.34-0.1c1.31-.68,3.78-0.58,3.6-2.29s-2.67-1.47-4.09-2.14"/></clipPath><clipPath id="clip-path-76" transform="translate(-4308.5 1563)"><path class="cls-2" d="M4889.64-1310.77a1.24,1.24,0,0,0-.37-1c-3.2-1.87-6.49-3.43-10.29-2.64,1.39,1,2.79,1.88,4.16,2.85,1.66,1.17,3.67.87,5.47,1.52a0.82,0.82,0,0,0,1-.77"/></clipPath><clipPath id="clip-path-78" transform="translate(-4308.5 1563)"><path class="cls-2" d="M5434.65-1486.64a1.16,1.16,0,0,0,.56-0.88,1,1,0,0,0-.87-1,5.66,5.66,0,0,0-2.47-.09c-2.58,1-5.42.54-8.69,2.25a19.73,19.73,0,0,0,11.46-.28"/></clipPath><clipPath id="clip-path-80" transform="translate(-4308.5 1563)"><path class="cls-2" d="M4802-1387.56a30.21,30.21,0,0,0-5.16,1,2.19,2.19,0,0,0-1.23,2.5c0.24,1.17,1.25.9,2,1,2.09,0.17,3.48-1.34,5-2.45a1.11,1.11,0,0,0,.43-1.31,1,1,0,0,0-1.12-.72"/></clipPath><clipPath id="clip-path-82" transform="translate(-4308.5 1563)"><path class="cls-2" d="M5194.15-1267.89c0.63-.05.83-0.8,1-1.43a9.6,9.6,0,0,0,.31-6.24c-4,1.67-4.43,2.72-2.88,6.28,0.31,0.71.74,1.46,1.53,1.39"/></clipPath><clipPath id="clip-path-84" transform="translate(-4308.5 1563)"><path class="cls-2" d="M5263.83-1231.89c1.23-.09,2.59.37,3.89-0.93-3.51-2-7.21-1.11-10.47-2.5a0.75,0.75,0,0,0-1.12.49,0.94,0.94,0,0,0,.53,1.24c2.38,0.61,4.64,1.88,7.18,1.69"/></clipPath><clipPath id="clip-path-86" transform="translate(-4308.5 1563)"><path class="cls-2" d="M5295-1230.31c1.92,0.71,3.4-.27,4.92-1.35a1.77,1.77,0,0,0,.86-2.22c-0.4-1.07-1.24-.14-1.85-0.24a5.57,5.57,0,0,0-4.36,1.27,1.45,1.45,0,0,0-.62,1.64,1.4,1.4,0,0,0,1,.91"/></clipPath><clipPath id="clip-path-88" transform="translate(-4308.5 1563)"><path class="cls-2" d="M4819-1139.82c2.14,3.53,4.92,2.89,7.56,2.75a0.65,0.65,0,0,0,.7-0.67,1.45,1.45,0,0,0-.41-1,7.94,7.94,0,0,0-7.84-1.13"/></clipPath><clipPath id="clip-path-90" transform="translate(-4308.5 1563)"><path class="cls-2" d="M4868-1140.7a1.43,1.43,0,0,0-1.48,1.3,2.17,2.17,0,0,0,1.17,2.15c1.57,0.82,3.94-.06,5.58-2.21a7.75,7.75,0,0,0-5.26-1.23"/></clipPath><clipPath id="clip-path-92" transform="translate(-4308.5 1563)"><path class="cls-2" d="M4588.6-1341.81c-0.63-3.34-1.65-6.12-4.72-7.44h0l-0.51-.27,0.25,0.55c-1.11,3.08.06,4.71,5,7.16"/></clipPath><clipPath id="clip-path-94" transform="translate(-4308.5 1563)"><path class="cls-2" d="M4880.44-1298c-0.23-.54-0.59-0.39-0.81-0.12a1.36,1.36,0,0,0-.3,1c0.87,3.22,3.91,2.64,5.95,3.77,1.37,0.76,1.81-1.08,3.1-2.49-1.59,0-2.52.05-3.44,0-1.73-.12-3.57,0-4.49-2.14"/></clipPath><clipPath id="clip-path-96" transform="translate(-4308.5 1563)"><path class="cls-2" d="M4444.21-1371.57c-0.07-1.18-.88-1.36-1.75-1.41a8,8,0,0,0-5.31,1.5,7.76,7.76,0,0,0,5.47,1.47c0.89-.1,1.66-0.36,1.59-1.56"/></clipPath><clipPath id="clip-path-98" transform="translate(-4308.5 1563)"><path class="cls-2" d="M5402.07-1482.57c2,0.13,3.76-.94,5.69-1.14,0-.36-0.06-0.72-0.09-1.08-2,0-3.9,0-5.85,0a1,1,0,0,0-1.24,1c0,1,.73,1.16,1.48,1.21"/></clipPath><clipPath id="clip-path-100" transform="translate(-4308.5 1563)"><path class="cls-2" d="M4813-1384.41a2.78,2.78,0,0,0-2.39,2.73,1.73,1.73,0,0,0,1.68,1.61c1.06,0.1,2.49-1.62,2.38-2.89a1.65,1.65,0,0,0-1.67-1.45"/></clipPath><clipPath id="clip-path-102" transform="translate(-4308.5 1563)"><path class="cls-2" d="M4768.63-1466.43a1.19,1.19,0,0,0,1.25-1.08,1.29,1.29,0,0,0-1.31-1.06,3.91,3.91,0,0,0-1.07-.1c-1.11.13-3-1.52-3.13,0.73-0.1,1.48,1.92,1.45,3.07,1.59,0.47,0,.83,0,1.19-0.07"/></clipPath><clipPath id="clip-path-104" transform="translate(-4308.5 1563)"><path class="cls-2" d="M4649.81-1460.13c-2.21.22-4.15,0.58-5.92,2.3,3.62,1.12,4,1,5.92-2.3"/></clipPath><clipPath id="clip-path-106" transform="translate(-4308.5 1563)"><path class="cls-2" d="M4707.19-1466c-2.2-2.14-3.88-3.41-6.49-3.26,1.2,3.09,3.38,3.21,6.49,3.26"/></clipPath><clipPath id="clip-path-108" transform="translate(-4308.5 1563)"><path class="cls-2" d="M4727-1481.05a1.22,1.22,0,0,0,.35,0c1.33-.37,3.47,2.15,3.8-0.26,0.26-1.94-2.6-.78-3.77-1.62-0.91-.2-1.64.11-1.71,1s0.73,0.84,1.32.88"/></clipPath><clipPath id="clip-path-110" transform="translate(-4308.5 1563)"><path class="cls-2" d="M4707.67-1456.85c-0.93.12-2.07,0.4-2.11,1.64s1.09,1,1.88,1.15c0.88-.13,2.13.17,2-1.39a1.48,1.48,0,0,0-1.81-1.4"/></clipPath><clipPath id="clip-path-112" transform="translate(-4308.5 1563)"><path class="cls-2" d="M4892.49-1097.46c-1.21-.21-1.6.72-1.84,1.76-0.11.49-.19,1-0.33,1.71,0.66,0.1,1,.18,1.34.19,1.45,0.06,1.75-.9,1.67-2.2,0-.65-0.15-1.34-0.83-1.46"/></clipPath><clipPath id="clip-path-114" transform="translate(-4308.5 1563)"><path class="cls-2" d="M5199-1343.73c0.75,0.16,2,.44,2.11-0.65,0.26-1.79-.92-2.39-2.43-2.34a5.47,5.47,0,0,1-.69-0.05c-0.81,1.46-.83,2.67,1,3"/></clipPath><clipPath id="clip-path-116" transform="translate(-4308.5 1563)"><path class="cls-2" d="M5169-1256.74a1.5,1.5,0,0,0-.3-2.31c-1.49-1.13-2.31,0-3.35,1.44,1.36,0.29,2,2.66,3.65.87"/></clipPath><clipPath id="clip-path-118" transform="translate(-4308.5 1563)"><path class="cls-2" d="M4820.81-1172.91a1.28,1.28,0,0,0,.62-1.88,5.28,5.28,0,0,0-1.54-2.59,3.2,3.2,0,0,0-.76,3.13c0.15,0.92.6,1.77,1.68,1.34"/></clipPath><clipPath id="clip-path-120" transform="translate(-4308.5 1563)"><path class="cls-2" d="M4437.64-1334.3c1.73-.17,3.22-0.57,3.54-2.82-2.79-.37-2.79-0.37-3.54,2.82"/></clipPath><clipPath id="clip-path-122" transform="translate(-4308.5 1563)"><path class="cls-2" d="M4808-1331c-1.68-3.29-3-3.37-4.73-.4,1.58-.45,3.07,1,4.73.4"/></clipPath><clipPath id="clip-path-124" transform="translate(-4308.5 1563)"><path class="cls-2" d="M4840-1414.62a7.72,7.72,0,0,0-4.14-1.42,0.91,0.91,0,0,0-1,.9,0.93,0.93,0,0,0,.79,1.06,6.2,6.2,0,0,0,4.31-.54"/></clipPath><clipPath id="clip-path-126" transform="translate(-4308.5 1563)"><path class="cls-2" d="M5130.35-1354.55c-0.53,1.54-3,3.17.22,4.55a2.6,2.6,0,0,1,.23,1.44c0,1,0,1.92,0,2.9,0.79-.08.83-0.86,1.12-1.36,0.38-.67.68-1.45,1.58-1.16,1.09,0.35.75,1.42,0.87,2.25,0.18,1.32-1.5,2-1.05,3.37,2.39,1.7,4.64.12,7.3-.15-1.61,2-.94,3.31.7,4.15a1.43,1.43,0,0,1,1,1.93c-0.5,2.57-.81,3-3.26,2.93a12.76,12.76,0,0,1-2.09-.39c-1.07-.23-1.1.64-1.23,1.38s-0.79,1.11.45,1.64a1.76,1.76,0,0,1,.24,3.15,12.35,12.35,0,0,1-2,.87c-0.63.32-1.47,0.58-1.36,1.54s0.93,1,1.66,1c2.26,0,4.21,1,6.66,2.19-2.23.47-4.31-.44-5.52,1.44s-3.14,2.91-4.47,4.65a1.25,1.25,0,0,0,1.92.17c2.49-2.21,6.26-.09,8.6-2.94a2,2,0,0,1,1.37.14,3.37,3.37,0,0,0,1.72.21,48.27,48.27,0,0,1,11-1.19,6.26,6.26,0,0,0,4.69-2.29c-2.37-1.84-2.36-1.84-.43-3.73a10.29,10.29,0,0,0,1.28-1.34c1.25-1.78.84-3.33-1-4.33a6.63,6.63,0,0,0-3.84-.45,3.91,3.91,0,0,0-.27-0.29c-1.32-3.49-2.22-7.25-5.85-9a3.47,3.47,0,0,1-1.77-2.31c-0.75-3.49-3.29-4.68-6-5.67,0.49-1.85,1.73-3.16,2.79-4.6,0.72-1,1.78-2.1,1.32-3.35-0.51-1.41-2-1-3.16-1-1.65,0-3.31,0-5,0l-0.16-.19c0-1.7,1.28-2.29,2.31-3.1a1.12,1.12,0,0,0,.47-1.29,0.84,0.84,0,0,0-1.15-.52,11.55,11.55,0,0,1-2.43.35c-2.72-.19-5,0-6.08,3.51-0.34,1.12-1.93,1.82-1.36,3.5-0.94.08-1.47-.59-2.06-1.22a0.81,0.81,0,0,0-1.25.06,1,1,0,0,0,.15,1.32,3.42,3.42,0,0,0,3.17,1.28"/></clipPath><clipPath id="clip-path-128" transform="translate(-4308.5 1563)"><path class="cls-2" d="M4433.54-1335c-1.17.78-2.53,1.37-3.14,3.33,1.86-.15,2.76-1.47,3.95-2.18a0.61,0.61,0,0,0,.13-0.94,1,1,0,0,0-.94-0.21"/></clipPath><clipPath id="clip-path-130" transform="translate(-4308.5 1563)"><path class="cls-2" d="M4591.67-1327.81c0.51-.64-0.15-0.83-0.49-1a2.6,2.6,0,0,0-1-.18,3.67,3.67,0,0,0,.58.86,1.36,1.36,0,0,0,.86.36"/></clipPath><clipPath id="clip-path-132" transform="translate(-4308.5 1563)"><path class="cls-2" d="M4592.14-1346.92a0.5,0.5,0,0,0-.78-0.38,0.72,0.72,0,0,0-.24.61,0.5,0.5,0,0,0,.78.35,1.25,1.25,0,0,0,.25-0.58"/></clipPath><clipPath id="clip-path-134" transform="translate(-4308.5 1563)"><path class="cls-2" d="M4937-865.52a0.93,0.93,0,0,0-1.13,1,0.34,0.34,0,0,0,.23.25c0.77,0,.86-0.58.93-1.2a1.48,1.48,0,0,0,.68-1.52,1.5,1.5,0,0,0-.71,1.49"/></clipPath><clipPath id="clip-path-136" transform="translate(-4308.5 1563)"><path class="cls-2" d="M4899.12-749.8c0,1.65.31,2.83,2.26,1.76,1.14-.63,2.39-1,3.57-1.59,1-.46,2.25-1,1.76-2.37s-1.34.1-2,.1a0.93,0.93,0,0,1-.58-0.29c-1.09-1.1-1.93-.54-2.6.51a1.78,1.78,0,0,1-1.66,1.1v0h0c0-.59,1.29-1.79-0.4-1.63s-4-.65-4.11,2.61c0,0.58-1.08.31-1.22,1.17,2.09,1.23,3.37-.95,5-1.39v0h0"/></clipPath></defs><title>amerlight_logos</title><g class="cls-3"><g class="cls-4"><g class="cls-5"><rect class="cls-6" y="51.03" width="950.83" height="490.95"/></g></g><g class="cls-7"><g class="cls-8"><rect class="cls-9" x="528.34" y="50.5" width="270.36" height="148.4"/></g></g><g class="cls-10"><g class="cls-8"><rect class="cls-9" x="102.55" y="164.87" width="25.82" height="16.78"/></g></g><g class="cls-11"><g class="cls-8"><rect class="cls-9" x="766.63" y="87.13" width="901.74" height="637.75"/></g></g><g class="cls-12"><g class="cls-13"><rect class="cls-9" x="116.06" y="106.95" width="582.94" height="732.79"/></g></g><g class="cls-14"><g class="cls-8"><rect class="cls-9" x="426.7" y="56.82" width="163.11" height="51.83"/></g></g><g class="cls-15"><g class="cls-8"><rect class="cls-9" x="454.31" y="108.6" width="134.38" height="79.49"/></g></g><g class="cls-16"><g class="cls-8"><rect class="cls-9" x="301.47" y="104.79" width="117.79" height="47.01"/></g></g><g class="cls-17"><g class="cls-8"><rect class="cls-9" x="1026" y="585.72" width="43.2" height="87.93"/></g></g><g class="cls-18"><g class="cls-8"><rect class="cls-9" x="1061.09" y="90.93" width="86.62" height="48.77"/></g></g><g class="cls-19"><g class="cls-8"><rect class="cls-9" x="887.23" y="74.03" width="70.47" height="32.7"/></g></g><g class="cls-20"><g class="cls-8"><rect class="cls-9" x="736.51" y="149.51" width="57.45" height="30.37"/></g></g><g class="cls-21"><g class="cls-8"><rect class="cls-9" x="425.29" y="90.86" width="85.85" height="28.03"/></g></g><g class="cls-22"><g class="cls-8"><rect class="cls-9" x="335.96" y="91.72" width="63.98" height="27.04"/></g></g><g class="cls-23"><g class="cls-8"><rect class="cls-9" x="586.03" y="232.43" width="39.99" height="40.54"/></g></g><g class="cls-24"><g class="cls-8"><rect class="cls-9" x="796.17" y="211.65" width="32.58" height="34.17"/></g></g><g class="cls-25"><g class="cls-8"><rect class="cls-9" x="477.23" y="390.09" width="56.88" height="31.63"/></g></g><g class="cls-26"><g class="cls-8"><rect class="cls-9" x="400.14" y="107.11" width="38.5" height="29.06"/></g></g><g class="cls-27"><g class="cls-8"><rect class="cls-9" x="466.53" y="152.36" width="40.48" height="28.75"/></g></g><g class="cls-28"><g class="cls-8"><rect class="cls-9" x="391.9" y="92.42" width="42.3" height="23.14"/></g></g><g class="cls-29"><g class="cls-8"><rect class="cls-9" x="918.3" y="71.64" width="50.56" height="20.8"/></g></g><g class="cls-30"><g class="cls-8"><rect class="cls-9" x="521.03" y="407.91" width="38.15" height="25.12"/></g></g><g class="cls-31"><g class="cls-8"><rect class="cls-9" x="314.36" y="87.92" width="41.86" height="22.97"/></g></g><g class="cls-32"><g class="cls-8"><rect class="cls-9" x="387.52" y="77.77" width="40.02" height="22.3"/></g></g><g class="cls-33"><g class="cls-8"><rect class="cls-9" x="418.79" y="80.81" width="32.94" height="20.86"/></g></g><g class="cls-34"><g class="cls-8"><rect class="cls-9" x="875.65" y="289.95" width="18.93" height="25.48"/></g></g><g class="cls-35"><g class="cls-8"><rect class="cls-9" x="1034.52" y="69.16" width="38.81" height="18.01"/></g></g><g class="cls-36"><g class="cls-8"><rect class="cls-9" x="354.53" y="84.71" width="27.3" height="17.77"/></g></g><g class="cls-37"><g class="cls-8"><rect class="cls-9" x="426.83" y="98.58" width="24.63" height="18.65"/></g></g><g class="cls-38"><g class="cls-8"><rect class="cls-9" x="508.94" y="139.16" width="21.9" height="19.57"/></g></g><g class="cls-39"><g class="cls-8"><rect class="cls-9" x="176.67" y="194.16" width="23.61" height="21.87"/></g></g><g class="cls-40"><g class="cls-8"><rect class="cls-9" x="269.25" y="218.14" width="18.54" height="22.35"/></g></g><g class="cls-41"><g class="cls-8"><rect class="cls-9" x="255.1" y="195.71" width="19.8" height="23.23"/></g></g><g class="cls-42"><g class="cls-8"><rect class="cls-9" x="887.82" y="207.41" width="18.52" height="21.08"/></g></g><g class="cls-43"><g class="cls-8"><rect class="cls-9" x="1095.26" y="69.36" width="23.72" height="16.17"/></g></g><g class="cls-44"><g class="cls-8"><rect class="cls-9" x="355.31" y="81.56" width="27.83" height="15.52"/></g></g><g class="cls-45"><g class="cls-8"><rect class="cls-9" x="1047.28" y="132.48" width="20.18" height="17.78"/></g></g><g class="cls-46"><g class="cls-8"><rect class="cls-9" x="564.39" y="241.86" width="22.83" height="17.74"/></g></g><g class="cls-47"><g class="cls-8"><rect class="cls-9" x="1108.6" y="67.71" width="24.2" height="16.22"/></g></g><g class="cls-48"><g class="cls-8"><rect class="cls-9" x="480.94" y="168.86" width="19.79" height="17.63"/></g></g><g class="cls-49"><g class="cls-8"><rect class="cls-9" x="877.19" y="280.88" width="16.27" height="20.79"/></g></g><g class="cls-50"><g class="cls-8"><rect class="cls-9" x="941.48" y="321.03" width="23.83" height="16.66"/></g></g><g class="cls-51"><g class="cls-8"><rect class="cls-9" x="979.31" y="322.04" width="19.19" height="17.46"/></g></g><g class="cls-52"><g class="cls-8"><rect class="cls-9" x="504.43" y="416.07" width="20.43" height="16.56"/></g></g><g class="cls-53"><g class="cls-8"><rect class="cls-9" x="551.92" y="415.68" width="18.92" height="16.93"/></g></g><g class="cls-54"><g class="cls-8"><rect class="cls-9" x="268.65" y="206.92" width="17.54" height="20.83"/></g></g><g class="cls-55"><g class="cls-8"><rect class="cls-9" x="564.72" y="258.1" width="21.24" height="18.31"/></g></g><g class="cls-56"><g class="cls-8"><rect class="cls-9" x="122.56" y="183.44" width="19.23" height="16.17"/></g></g><g class="cls-57"><g class="cls-8"><rect class="cls-9" x="1085.99" y="71.64" width="19.35" height="15.36"/></g></g><g class="cls-58"><g class="cls-8"><rect class="cls-9" x="495.96" y="172.02" width="16.25" height="17.46"/></g></g><g class="cls-59"><g class="cls-8"><rect class="cls-9" x="449.78" y="87.31" width="17.69" height="15.9"/></g></g><g class="cls-60"><g class="cls-8"><rect class="cls-9" x="329.31" y="96.31" width="18.09" height="16.05"/></g></g><g class="cls-61"><g class="cls-8"><rect class="cls-9" x="386.11" y="87.13" width="18.66" height="16.39"/></g></g><g class="cls-62"><g class="cls-8"><rect class="cls-9" x="411.08" y="73.47" width="17.67" height="15.86"/></g></g><g class="cls-63"><g class="cls-8"><rect class="cls-9" x="390.96" y="99.57" width="16.1" height="15.93"/></g></g><g class="cls-64"><g class="cls-8"><rect class="cls-9" x="575.73" y="458.95" width="15.19" height="16.82"/></g></g><g class="cls-65"><g class="cls-8"><rect class="cls-9" x="882.89" y="209.66" width="15.86" height="16.32"/></g></g><g class="cls-66"><g class="cls-8"><rect class="cls-9" x="850.75" y="296.94" width="16.24" height="16.54"/></g></g><g class="cls-67"><g class="cls-8"><rect class="cls-9" x="504.44" y="379.06" width="14.74" height="17.7"/></g></g><g class="cls-68"><g class="cls-8"><rect class="cls-9" x="123.05" y="219.16" width="15.72" height="16.1"/></g></g><g class="cls-69"><g class="cls-8"><rect class="cls-9" x="488.73" y="222.91" width="16.9" height="15.83"/></g></g><g class="cls-70"><g class="cls-8"><rect class="cls-9" x="520.3" y="140.4" width="17.28" height="15.24"/></g></g><g class="cls-71"><g class="cls-8"><rect class="cls-9" x="812.23" y="193.05" width="47.64" height="60.84"/></g></g><g class="cls-72"><g class="cls-8"><rect class="cls-9" x="115.8" y="221.38" width="16.42" height="16.51"/></g></g><g class="cls-73"><g class="cls-8"><rect class="cls-9" x="275.64" y="227.42" width="13.8" height="14.35"/></g></g><g class="cls-74"><g class="cls-8"><rect class="cls-9" x="276.51" y="209.06" width="13.21" height="14.25"/></g></g><g class="cls-75"><g class="cls-8"><rect class="cls-9" x="621.27" y="689.43" width="14.01" height="15.84"/></g></g><g class="cls-76"><g class="cls-8"><rect class="cls-9" x="579.49" y="803.66" width="24.9" height="18.28"/></g></g><path class="cls-77" d="M4701.92-1555.38a2.46,2.46,0,0,0,.87-2.39,8.08,8.08,0,0,1,1.88-5.23" transform="translate(-4308.5 1563)"/><path class="cls-77" d="M4701.92-1555.38a2.46,2.46,0,0,0,.87-2.39,8.08,8.08,0,0,1,1.88-5.23" transform="translate(-4308.5 1563)"/><rect class="cls-1" x="3.26" y="54.09" width="944.31" height="484.83"/></g><circle class="cls-78" cx="491.59" cy="284.08" r="72.03"/><circle class="cls-79" cx="491.59" cy="284.08" r="48.02"/><circle class="cls-79" cx="4800.09" cy="-1278.92" r="24.01" transform="translate(816.22 5241.01) rotate(-78.83)"/><circle class="cls-79" cx="491.59" cy="284.08" r="6.24"/></svg>