<svg id="Layer_1" data-name="Layer 1" xmlns="http://www.w3.org/2000/svg" viewBox="0 0 15.12 19.26"><defs><style>.cls-1{fill:#ffffff;}</style></defs><title>location</title><path class="cls-1" d="M76.5,105.76a0.85,0.85,0,0,1-.57-0.23h0c-0.93-.81-7-7.95-7-11.47a7.56,7.56,0,0,1,15.12,0c0,3.5-6,10.64-7,11.47h0A0.8,0.8,0,0,1,76.5,105.76Zm0.06-1h0ZM76.5,87.5a6.57,6.57,0,0,0-6.56,6.56c0,3.08,5.7,9.81,6.57,10.65,0.74-.69,6.56-7.5,6.56-10.65A6.57,6.57,0,0,0,76.5,87.5Z" transform="translate(-68.94 -86.5)"/><path class="cls-1" d="M76.5,97.86A3.83,3.83,0,1,1,80.33,94,3.84,3.84,0,0,1,76.5,97.86Zm0-6.67A2.83,2.83,0,1,0,79.33,94,2.84,2.84,0,0,0,76.5,91.19Z" transform="translate(-68.94 -86.5)"/></svg>
