<svg id="page_1_and_page_6" data-name="page 1 and page 6" xmlns="http://www.w3.org/2000/svg" viewBox="0 0 245.69 245.69"><defs><style>.cls-1{fill:#f9ce12;}.cls-2{fill:#edb220;opacity:0.4;}.cls-3{fill:#fff;}</style></defs><title>mail_icon</title><circle class="cls-1" cx="122.84" cy="122.84" r="122.84"/><path class="cls-2" d="M-3001.87,2727.84l-55.12-55.23-133.74,3.22,58.08,58.34-1.65,9.33-59.81-59.69-1.22,71.64,80.76,80.7A122.87,122.87,0,0,0-3001.87,2727.84Z" transform="translate(3246.74 -2590.81)"/><path class="cls-3" d="M-3121.27,2718.13l64.06-41.87a2.4,2.4,0,0,0-1.31-4.41h-130.75a2.4,2.4,0,0,0-1.31,4.41l64.06,41.87A4.8,4.8,0,0,0-3121.27,2718.13Z" transform="translate(3246.74 -2590.81)"/><path class="cls-3" d="M-3126.52,2727.73l-67.09-43.85a2.4,2.4,0,0,0-3.71,2v64.76a4.8,4.8,0,0,0,4.8,4.8h137.27a4.8,4.8,0,0,0,4.8-4.8v-64.76a2.4,2.4,0,0,0-3.71-2l-67.09,43.85A4.8,4.8,0,0,1-3126.52,2727.73Z" transform="translate(3246.74 -2590.81)"/></svg>