<svg id="page_2_and_page_5" data-name="page 2 and page 5" xmlns="http://www.w3.org/2000/svg" viewBox="0 0 248.18 248.18"><defs><style>.cls-1{fill:#f9ce12;}.cls-2{fill:none;}.cls-3{fill:#edb220;opacity:0.4;}.cls-4{fill:#f9f9fa;}</style></defs><title>money_icon</title><circle class="cls-1" cx="124.09" cy="124.09" r="124.09"/><path class="cls-2" d="M-461,3165l1.67-76.67-15.89-7c-38.89-39,10.64-47,10.64-47l10.91-24,26.5,26.5,2.68-.55,85.91,85.91a124.1,124.1,0,0,0,5.09-35.25,124.09,124.09,0,0,0-124.09-124.09,124.09,124.09,0,0,0-124.09,124.09A124.09,124.09,0,0,0-457.58,3211a124,124,0,0,0,37-5.61Z" transform="translate(581.66 -2962.86)"/><path class="cls-3" d="M-427.16,3036.84l-26.5-26.5-10.91,24s-49.53,8-10.64,47l15.89,7L-461,3165l40.42,40.42a124.36,124.36,0,0,0,82-83.22l-85.91-85.91Z" transform="translate(581.66 -2962.86)"/><path class="cls-4" d="M-464.46,3148.73c0,0.66-16-4.46-17.41-5.16a37.54,37.54,0,0,1-16.3-15.1c-2.3-4.22-1.5-8.28,2-10.26s7.43-.67,9.85,3.46c4.83,8.25,12.69,11.41,21.82,13.13v-3.19c0-12.12-.05-24.24,0-36.36,0-2.24-.5-3.33-2.83-4-8-2.45-15.54-6-21.77-11.8-10.8-10.07-13.73-24.84-5.46-37.52,6.52-10,18.61-15,30-16.7,0-2.81,0-5.59,0-8.36,0-2.23.37-4.35,2.1-5.93a6.77,6.77,0,0,1,11.25,3.08c0.84,2.83.37,5.85,0.26,8.79a2.49,2.49,0,0,0,.34,1.65,2.57,2.57,0,0,0,1.42.74c13,3.6,25.62,8.05,32.3,20.73,2.43,4.62.79,9-3.78,10.43a6.48,6.48,0,0,1-7.79-3.2c-4.53-8.39-12.19-11.86-20.93-13.77a7,7,0,0,0-1.34,0c0,0.73-.09,1.44-0.09,2.15,0,12.68,0,25.37-.05,38a2.61,2.61,0,0,0,2.21,3c14.08,4.2,29.64,16,32.46,31.2,3.49,18.88-16.22,31.95-32.52,34.42-1.55.24-2.24,0.71-2.14,2.39,0.14,2.4.06,4.81,0,7.22-0.06,4.19-2.86,7.19-6.73,7.26s-6.61-2.68-6.91-6.83c-0.12-1.6,0-3.21-.06-4.81S-464.46,3150.33-464.46,3148.73Zm-0.12-109.51a29.76,29.76,0,0,0-13.67,5.62c-9.88,7.62-10.16,17-.72,25.13a34.89,34.89,0,0,0,14.4,7.4v-38.15Zm13.94,95.57c8-1.58,14.75-4.69,19.13-11.63a12.16,12.16,0,0,0-.22-14.21c-4.53-6.72-11.34-10.08-18.91-12.69v38.52Z" transform="translate(581.66 -2962.86)"/></svg>