<svg id="Layer_1" data-name="Layer 1" xmlns="http://www.w3.org/2000/svg" xmlns:xlink="http://www.w3.org/1999/xlink" viewBox="0 0 2347.65 1102.85"><defs><style>.cls-1,.cls-2{fill:none;}.cls-2{clip-rule:evenodd;}.cls-3{clip-path:url(#clip-path);}.cls-4{clip-path:url(#clip-path-2);}.cls-5{clip-path:url(#clip-path-3);}.cls-6{fill:#030404;}.cls-7{clip-path:url(#clip-path-4);}.cls-8{clip-path:url(#clip-path-5);}.cls-9{fill:#202020;}.cls-10{clip-path:url(#clip-path-6);}.cls-11{clip-path:url(#clip-path-8);}.cls-12{clip-path:url(#clip-path-10);}.cls-13{clip-path:url(#clip-path-11);}.cls-14{clip-path:url(#clip-path-12);}.cls-15{clip-path:url(#clip-path-14);}.cls-16{clip-path:url(#clip-path-16);}.cls-17{clip-path:url(#clip-path-18);}.cls-18{clip-path:url(#clip-path-20);}.cls-19{clip-path:url(#clip-path-22);}.cls-20{clip-path:url(#clip-path-24);}.cls-21{clip-path:url(#clip-path-26);}.cls-22{clip-path:url(#clip-path-28);}.cls-23{clip-path:url(#clip-path-30);}.cls-24{clip-path:url(#clip-path-32);}.cls-25{clip-path:url(#clip-path-34);}.cls-26{clip-path:url(#clip-path-36);}.cls-27{clip-path:url(#clip-path-38);}.cls-28{clip-path:url(#clip-path-40);}.cls-29{clip-path:url(#clip-path-42);}.cls-30{clip-path:url(#clip-path-44);}.cls-31{clip-path:url(#clip-path-46);}.cls-32{clip-path:url(#clip-path-48);}.cls-33{clip-path:url(#clip-path-50);}.cls-34{clip-path:url(#clip-path-52);}.cls-35{clip-path:url(#clip-path-54);}.cls-36{clip-path:url(#clip-path-56);}.cls-37{clip-path:url(#clip-path-58);}.cls-38{clip-path:url(#clip-path-60);}.cls-39{clip-path:url(#clip-path-62);}.cls-40{clip-path:url(#clip-path-64);}.cls-41{clip-path:url(#clip-path-66);}.cls-42{clip-path:url(#clip-path-68);}.cls-43{clip-path:url(#clip-path-70);}.cls-44{clip-path:url(#clip-path-72);}.cls-45{clip-path:url(#clip-path-74);}.cls-46{clip-path:url(#clip-path-76);}.cls-47{clip-path:url(#clip-path-78);}.cls-48{clip-path:url(#clip-path-80);}.cls-49{clip-path:url(#clip-path-82);}.cls-50{clip-path:url(#clip-path-84);}.cls-51{clip-path:url(#clip-path-86);}.cls-52{clip-path:url(#clip-path-88);}.cls-53{clip-path:url(#clip-path-90);}.cls-54{clip-path:url(#clip-path-92);}.cls-55{clip-path:url(#clip-path-94);}.cls-56{clip-path:url(#clip-path-96);}.cls-57{clip-path:url(#clip-path-98);}.cls-58{clip-path:url(#clip-path-100);}.cls-59{clip-path:url(#clip-path-102);}.cls-60{clip-path:url(#clip-path-104);}.cls-61{clip-path:url(#clip-path-106);}.cls-62{clip-path:url(#clip-path-108);}.cls-63{clip-path:url(#clip-path-110);}.cls-64{clip-path:url(#clip-path-112);}.cls-65{clip-path:url(#clip-path-114);}.cls-66{clip-path:url(#clip-path-116);}.cls-67{clip-path:url(#clip-path-118);}.cls-68{clip-path:url(#clip-path-120);}</style><clipPath id="clip-path" transform="translate(4.59 -123.3)"><rect class="cls-1" y="128.31" width="1314.14" height="677.48"/></clipPath><clipPath id="clip-path-2" transform="translate(4.59 -123.3)"><rect class="cls-1" y="128.31" width="1328.78" height="677.48"/></clipPath><clipPath id="clip-path-3" transform="translate(4.59 -123.3)"><rect class="cls-1" y="-1594.37" width="1321.63" height="4557.08"/></clipPath><clipPath id="clip-path-4" transform="translate(4.59 -123.3)"><path class="cls-2" d="M813.66,153a19.15,19.15,0,0,0-7.47-.55c-7.65.8-14.92,3.59-22.36,5.46a8.06,8.06,0,0,0-4.88,2.94c4.75-.32,8.16,1.73,12.07.66,2.5-.69,3.61.62,3.3,3.1a2,2,0,0,1-1,1.79c-2.21.8-4.18,2.77-6.58,2.5-9.35-1.07-18.16,2.33-27.22,3.63-2.92.42-5.88,0.6-8.82,0.89-1.66.17-3.19,1.12-3.31,2.82-0.12,1.93,2,2,3.08,2,7.51,0.6,14.44,4.88,22.2,4-5,3.7-11,.59-17.27,3.31,2.61,0.75,3.92,2.38,5.62,1.77,2.7-1,4.85.68,7.23,1.25a1,1,0,0,1,1,.75c0.83,2.53.9,2.49,1.46,2.68a24.16,24.16,0,0,0,10.41,1.11l-0.05.06,0.1,0-0.05-.08a2.48,2.48,0,0,1,1.06-.93c5.21,0.24,10.37.85,15.64-.07,2.4-.42,5-1.2,7.37-0.93,8.6,1,17.28,1.48,25.56,4.72,1.75,0.69,3.35.87,4.07,3.29,0.52,1.77,2.25,2.44,4,2.8a11.18,11.18,0,0,1,6.8,3.84c3.13,4.07,4.87,9.37,9.37,12.25,1.06,0.68.43,1.94-.16,2.9-1.16,1.88-2.36,3.73-3.37,5.7-1.14,2.2-.6,3.65,1.64,3.81,3.09,0.23,6.4,1.14,9-2,1-1.2,2.13-1.15,2.77.46,0.94,2.35,2.39,3.1,4.75,2.81,3-.37,5.32,2,8,2.83,0.86,0.26,2,.85,1.58,2.33a1.86,1.86,0,0,1-2.46,1.3,32.66,32.66,0,0,1-5.75-1.86c-3.88-1.88-7.92-1-11.91-1.14a0.89,0.89,0,0,0-.81,1.45,3,3,0,0,0,1.3.67l6,1.7,4.34,1.58-4.34-1.58-6-1.7a2.25,2.25,0,0,1-1.56,1.24c-1.76.41-2.4,1.68-2.46,3.59-0.06,2.17,1.09,2.79,2.76,3.11,0.58,0.11,1,.86,1.63,1.16,4,2.07,7.79.24,11.58-1a1.67,1.67,0,0,0,.76-1.28c0-1.32-.23-2.54,1.62-2.49,1.61,0,2.8.35,3.63,2.18,1.27,2.78.33,5.47-.26,8-0.41,1.76-2.62.89-4.06,1a15.74,15.74,0,0,0-2.5.15c-4.28,1.09-7,4-8.09,8.69-0.87,3.33-.87,3.33,3.54,5.33-3.81,4-3.79,4.58.44,8.28a20.13,20.13,0,0,1,2.41,1.92c1.43,1.73,2.78,3.41,2.84,6.13,0.08,4,.51,4.24,3.61,1.95,2-1.46,3.66-2.49,5.62-.27a3.15,3.15,0,0,1-1.95,1.79c-4.1,2.19-3.91,2.32-1.56,6.71,1.15,2.15,3.82,1.83,4.39,4.13,0.75,3,2.65,4.76,5,6.29a8.57,8.57,0,0,1,2.82,3.79,4.08,4.08,0,0,0,2,2.31c2.11,0.94,4.65,1.24,5.24,4.42,0.1,0.57.72,0.51,1.2,0.24,3.48-2,7.63-.39,11.18-3,0,2.08,0,3.79,1.58,4.49,1.13,0.52,2.71-.57,3.58,1.12,0.69,1.35.43,3.46,2.42,3.76a2.57,2.57,0,0,0,1.43-.31c0.52-.26.71-0.91,1.6-0.42,3.19,1.79,3.81,1.58,4.65-1.85a10.43,10.43,0,0,1,1.14-2.11c2-5,7.27-9.08,3.93-15.77a1.51,1.51,0,0,1,1.44-2.23c4.54-.17,5.76-5.59,9.44-7.1a1.69,1.69,0,0,0,.32-1.47c-1.89-2.69,1.16-4,1.48-5.06-0.65-2.75-3.3-1.24-3.53-3.54a2.21,2.21,0,0,1,.71-0.61c2.54-.36,5.94,1.17,6.42-3.66a1.45,1.45,0,0,1,1.27-.59c4.32,1.2,7.66-1,10.9-3.63l0.06,0.07c-0.2,3.3.53,4.24,2.39,2.74,3.61-2.92,8.08-2.37,12-3.94,4.63-1.83,8.48-4.15,11.42-8.15,1.8-2.44,3.83-4.42,6.47-4.76,3.32-.42,1.81-2.24,1.12-4.35,1.45,0.62,2.51,1,3.54,1.52,1.82,0.9,3.76,1.92,5.68,1,5.21-2.42,10.89-1.54,16.22-3,4.52-1.25,9.54-.89,13.59-3.45a64.77,64.77,0,0,1,11-5.14,78.18,78.18,0,0,0,9.79-4.38c-4.14-.22-7.45-0.12-10.73-1.09-4.2-1.23-8.5-2-12.83-.41a0.75,0.75,0,0,1-.81-1,2,2,0,0,1,.59-0.75c1.61-.44,3.41-0.17,4.82-1.36,2-1.73-2-3-.37-4.78a3.5,3.5,0,0,0,.36-1.41c3.7,0.55,6.77,1.69,8.66,5.65,1,2.18,3.7,2.68,5.8,2.56,2.5-.14,4.93-1.87,7.53-0.3a1.1,1.1,0,0,0,.84-0.42c1-1.09-.76-7.82-2-7.57-2.06.39-2.48-.76-3.17-2.28-0.81-1.79-2.44-2.4-4.14-2.77a22.61,22.61,0,0,1-11.83-6.38c1.81-1.33,3.47-2,4.54.57a4.38,4.38,0,0,0,3,2.64c3.15,1,6.33,1.88,9.44,2.8,0.36-1.85.19-4,1-4.67,1.65-1.29.7-2-.22-2.06-5.07-.21-9.19-4.44-14.73-3.63,3.21-3.19,3.21-3.18,5.77-1.32a13.11,13.11,0,0,0,11.06,2.06c1.3-.28,2.57-0.67,3.9-0.88,1.61-.25,4.34,1.29,4.53-1.63,0.16-2.46-2.57-2.24-4.23-2.83a2.6,2.6,0,0,1-.47-1c3.72,0.63,7-1.35,10.56-1.18a1.62,1.62,0,0,0,1.85-1.46c0-1.37-1.14-1.57-2.18-1.62l-4-.17a2,2,0,0,1-2.19-2.32c0.09-2.06,1.36-2.31,2.83-2.07a15.67,15.67,0,0,1,1.89.71,2.16,2.16,0,0,0,2.65-1,2.44,2.44,0,0,0-.39-3c-2-1.63-2.77-5.1-6.14-4.56a26.59,26.59,0,0,1-4.52,0c-1.93,0-3.23-.87-3.38-3.17l0.06-.09c4.77-2.82,9.94-2.33,15.06-2.16,1.54,1.69.76,5.11,3.88,5.95,0.08-2.3-.65-5,2.17-6,1.58-3.23-.85-3.36-2.44-3.25-3,.19-5.86-0.69-8.75-1.28-1-.19-1.94-0.83-0.91-2.22,2.1,0.12,4.07,2.25,6.71.37-2.26-1.81-4.55-1.16-6.72-1.19-2.22-1.38-4.36-2.08-6.08.85-0.39.66-1,1.09-1.67,0.62a1.83,1.83,0,0,1-.74-1.26c0.07-1.7,5.22-7.8,6.74-8.13,3.29-.72,3.25-0.74,5.32-5.06a5.53,5.53,0,0,1,6.68-2.1c2.32,0.81,3.95-.21,5.38-2.61h-14.44l-0.25-.26c1.35-1.59,3.12-1,4.73-1,4.18,0,8.36,0,12.53,0,1.83,0,3.7.11,5.1-1.67a18.18,18.18,0,0,0-12.06-.62,6.51,6.51,0,0,1,6.92-1.91c3.36,0.89,6.48.47,9.83-.1,3.8-.65,7.23-2.4,10.87-3.43,2.58-.73,5.52-0.92,8-3a4.73,4.73,0,0,0-1.33-1.06c-8.25-1.9-16.61-1.54-24.94-1.37a5,5,0,0,0-2.85.84c-5.15,3.95-11.05,2-16.46,1.91a21.19,21.19,0,0,0-9,1.59c-2.64,1.14-5.26,2.37-8.18,2.31l-0.17-.22c0.91-2.37,3.56-1.8,4.9-3.54s1.17-3.5-.65-3.81c-3.3-.57-6.92-1.22-9.88.4-3.54,1.94-7.32,2.37-11,3.41-3.06.87-6.37,0.75-9.56,1.07,3.38-2.85,7.92-.77,11.27-3.77a27.48,27.48,0,0,0-13.46-1.19c-4.34.73-8.67,0.58-13,.89a129.7,129.7,0,0,0-16.89,1.9c-0.58.12-1.38,0.2-1.39-1.52,6.79-.84,13.63-2,20.5-2.43a173,173,0,0,1,19.6,0c7.23,0.36,14.32-1.29,21.51-1.34,2.11,0,4.21-1,6.39-1.62a2,2,0,0,0-1.89-1.45c-4.85-.08-9.6-1.54-14.48-1.26a8,8,0,0,1-4.23-1.11c-2.9-1.51-6.15-3.09-9.25-3.08-9.55,0-19-1.88-28.55-1.36-3.68.2-7.37,0-11.06,0-1.14,0-2.38.24-3.2-1h-2a1.91,1.91,0,0,1-2.11,1.1c-6.66-.79-13.24,1.24-19.92.57-1.73-.17-3.57.73-5.43,0.64-0.69,0-1.6.4-1.14,1.2,1.54,2.72-1,3.07-1.79,2.83-4.27-1.32-8.67-.27-13-1.27-3.72-.87-7.47-2.51-11.32-1.41a20.75,20.75,0,0,1-7,.73c-4.68-.25-9.15,1.47-14.25,1.23,2.29,2,5.17-.15,7.08,2.69-3.73,1-7.65-2.21-11.09,1.52a42,42,0,0,0,13.33,2.77c2,0,2.28.7,2.44,2.33a4.24,4.24,0,0,1-3.88.15,80.12,80.12,0,0,0-14.1-3.39c-5.77-.84-11.56-1.54-17.32-2.47-0.87-.14-1.75-0.08-2,1.05a1.77,1.77,0,0,0,1.28,2c1.18,0.55,2.39,1,3.94,1.65-7.15,2-13.1-3.11-19.74-2.65,1.07,3.71,1.07,3.71-3,4.56-0.18-4.23-.53-4.88-4.18-4.8-5.12.12-10.26,1.19-15.35,0.93-8.1-.42-15.77,3.35-23.86,2.46a1,1,0,0,0-.49.1c-0.94.38-1.38,0.55-1.18,2.2,0.48,3.9-.47,4.75-3.78,3.78m68.67,89.65a3.75,3.75,0,0,0-.22-0.78h0a4.18,4.18,0,0,1,.21.78m-1.11-.85-1.44-.11c-2.73-1.66-5.66-.8-8.52-0.87,2.86,0.08,5.79-.79,8.52.87l1.44,0.11m-13.37-12.46,0.35-.19-0.35.19m0.06-.53,0.26,0.32-0.26-.32-0.7.35,0.7-.35"/></clipPath><clipPath id="clip-path-5" transform="translate(4.59 -123.3)"><rect class="cls-1" x="47.51" y="-3695.57" width="2466.71" height="9777.83"/></clipPath><clipPath id="clip-path-6" transform="translate(4.59 -123.3)"><path class="cls-2" d="M148.28,292.35v3.23c4.25-.56,8.47-1.2,12.51,1.29,2.21,1.36,4.09-.28,6.69-1.23-6.77-2.46-12.87-3.68-19.2-3.29"/></clipPath><clipPath id="clip-path-8" transform="translate(4.59 -123.3)"><path class="cls-2" d="M1105.5,576.47c-0.6,1.74-1.12,3.48-2.73,4.31-2.85,1.47-4.27,4.06-4.79,7.15-0.83,4.87-2.34,9.24-6,12.55-0.68.61-.71,2-1.24,2.87-2,3.35-2.4,7.45-4.65,10.68-2.85,4.11-2.93,7.79-.07,11.72,1.16,1.59,2.55,3,2.11,5.17a22.08,22.08,0,0,0,1,11.38,17.09,17.09,0,0,1-.84,12,11.31,11.31,0,0,0-1.14,4.64,17.48,17.48,0,0,1-3.46,11c-1.43,2.1-1.18,3.62.16,5.16a7.6,7.6,0,0,1,1.57,8.29c-1.2,3.51,1.35,9.79,4.14,10.83,2.13,0.79,4,1.16,3.92,4.26,0,0.82,1.05,1.75,1.76,2.48,3.46,3.57,6.21,7.77,9.38,11.6a9.65,9.65,0,0,1,2.38,6.33c-0.18,5.48,3.2,8.56,6.41,11.47,5.57,5,11.73,9.35,16.33,15.56,1.07,1.43,2.65,2.17,4,3.26,3.92,3.25,7.63,3.9,12.38,1.1,6.13-3.61,12.93-5.43,20.1-3.5q3.08,0.84,6.12,1.9c1,0.33,1.86.8,2.89,0.32,5.78-2.68,11.37-5.77,17.2-8.37a40.5,40.5,0,0,1,9.87-3.16,40.21,40.21,0,0,0,4.47-.54c3.53-1,6.54.13,9,3.07a17.8,17.8,0,0,1,4,8.41c0.45,2.42,1.46,4.8,4.25,4.16,3.78-.87,7.79-0.42,11.33-1.6,2.39-.8,3.46-0.17,4.49,1.36,1.14,1.72,1.62,4.08,4.4,3.18,0.6-.19.66,0.59,0.74,1.1,1,6,2.29,12-.53,17.82a2.44,2.44,0,0,0-.37,1.52c1.54,4.19-1.09,7.87-1.37,11.85-0.25,3.7-4.54,7.3.37,10.81-1.63,3,.75,4.56,2.06,6.4,3.54,5,7.24,9.82,10.76,14.81a24.28,24.28,0,0,1,4.29,10.14,39.05,39.05,0,0,0,2.8,9.67,117.8,117.8,0,0,1,3.94,11.58,3.63,3.63,0,0,1-.36,3.59c-1.72,2-.86,3.88-0.49,6,0.48,2.73,1.72,5,2.79,7.46a16.15,16.15,0,0,1-2.44,16.35,22.25,22.25,0,0,0-5.24,11.38c-0.9,7.6-3.41,14.85-3.78,22.62-0.21,4.34,0,8.23,2.28,11.74a51.4,51.4,0,0,1,3.72,7.58c2.81,6.31,4.69,13.11,8.31,19a16.32,16.32,0,0,1,2.49,9.58c-0.1,3.21-.72,6.59.39,9.62,2.12,5.75,1.94,11.92,3.34,17.82,1.25,5.25,2.88,9.86,6.52,13.56a18.12,18.12,0,0,1,4.87,9.21,34,34,0,0,0,3,8.53c1.21,2.35,2.51,4.65,3.74,7,1.84,3.52,1.73,5.33-.81,8.34-1.07,1.27-.69,2.19,0,3.3,1.13,1.79,2.26,3.57,2.21,5.88a2.34,2.34,0,0,0,.37,1.43c3.06,0.44,4.58,3.36,7,4.8a2.66,2.66,0,0,0,2.39.28c3.14-2.36,7.18-2,10.24-3.48,4.34-2.16,8.49-1.37,12.72-1.74,3-.26,6,0.73,9.17-0.34,1.53-.5,2.59-1.88,4.33-2,4.58-.19,8-3.14,11.47-6,3.79-3.09,6.33-7.37,9.81-10.7a33,33,0,0,0,6.66-9.34c2.34-4.66,4-9.87,8.75-12.78,1.6-1,2.39-3.07,2.49-5.1a23.6,23.6,0,0,1,1.27-5.73c0.9-3,1.29-5.91.1-8.91-0.92-2.33,0-4.24,1.56-5.77a16.56,16.56,0,0,1,5.15-3.29,38.06,38.06,0,0,0,6-2.8c2.35-1.48,4.4-3.35,3.31-6.88a6.68,6.68,0,0,1,.36-3.68,12.85,12.85,0,0,0,.09-7.44c-1.71-4.67-1.75-9.84-4.21-14.27-0.9-1.64-1.25-4.57.36-5.43,3.61-1.9,4.74-6.54,8.58-8.05a5,5,0,0,0,2.27-2.79c2.16-5.74,6.77-8.43,11.69-10.22,6.24-2.26,9-7.77,11.73-13.22a9.87,9.87,0,0,0,.65-8.33c-0.77-1.85-.47-3.9-0.48-5.86,0-6.83,0-13.65,0-20.47,0-1.64.13-3.46-1.28-4.42-3.14-2.16-3.34-5.73-4.56-9-1.74-4.63-1.6-9.31-1-13.76,0.41-3.13,0-5.12-1.93-7.05a5.13,5.13,0,0,1-1.3-5c0.8-3.62,1.14-7.4,3.18-10.65,1.3-2.08,2-4.52,2.9-6.79,1.34-3.24,2-6.69,4.75-9.57a53.4,53.4,0,0,0,7.66-10c5.79-9.81,12.18-19.36,21.87-25.49a11.31,11.31,0,0,0,3.2-2.56c7.43-10.09,15.72-19.63,18.8-32.62a40.42,40.42,0,0,1,1.66-3.89c2.7-7.6,8.36-13.93,8.47-22.65a2.06,2.06,0,0,1,.46-1.46c2.69-1,1.43-3.18,1.22-4.88-0.17-1.43-.54-2.74,0-4.19a2.32,2.32,0,0,0-3.73-2.74c-3.37,2.78-7.1,3.77-11.42,4.11-2.91.22-6.32,0.31-9,2-2.13,1.34-4.14,2.24-6.57,1.88-1.77-.26-3.26.54-4.78,1.33-4.89,2.55-7.11,1.9-9.81-3.18-1.22-2.29-2.46-4.38-5.24-5.11,4.21-3.32,4.43-5.39,1.13-8.79a45.31,45.31,0,0,1-3.74-4.24c-3.17-4.22-5.9-8.83-10.61-11.6s-8.51-6.49-8.81-13.46c-0.21-4.94-1.65-10.15-6.14-13.49-4.3-3.2-5.51-8.14-5.53-13.5a35.25,35.25,0,0,0-.09-4.3c-0.83-6.38-1.49-12.84-7.47-16.6a5.11,5.11,0,0,1-2.38-4.53c0.56-5.49-2.13-9.8-4.47-14-5-8.89-6-19.74-12.26-27.93a2.58,2.58,0,0,1,.23-3.58,2.38,2.38,0,0,1,1.83,2c0.3,2.95,2.42,4.67,3.86,6.8,1.62,2.37,3.08,2.06,3.65-.69s2.22-4.72,2.42-7.47c0.89,2.32-.06,4.39-0.06,6.47,0,2.36,2.91,2.44,3.91,4.51,3.73,7.75,9.15,14.53,11.25,23.22a6.27,6.27,0,0,0,2.73,3.7c5.92,4.06,8.26,10,7.89,17.42-0.3,6,1.93,10.68,6.68,14.05a13.81,13.81,0,0,1,5.57,8,32.43,32.43,0,0,0,5,10.48c3.51,5,7.16,10,5.16,16.92a3.49,3.49,0,0,0,.19,1.58,155.21,155.21,0,0,1,2.86,16.31c0.52,4.17,3.57,5.87,7.35,4.78a11.1,11.1,0,0,0,5.69-3.23,6.23,6.23,0,0,1,5.31-2.45,10.6,10.6,0,0,0,7.85-2.94c0.78-.71,1.6-1.47,2.65-1.36,3.06,0.35,5-1.25,6.7-3.76a6.45,6.45,0,0,1,3.43-2.1c2.74-.82,5.35-2.08,8-3.14,3.12-1.25,7.44-1.83,7.36-7.26a3.46,3.46,0,0,1,2.18-2.79c4.06-2,8-4.58,12.68-4.6,1.72,0,2.93-.41,3.13-2.54,0.27-2.7,1.59-4.12,4.3-4.17,2.26,0,3.56-1.55,4.14-3.93a4.35,4.35,0,0,1,3.37-3.59c2.64-.51,3.18-2.31,3.35-5,0.19-3-.5-7.2,4.34-7.32a2.22,2.22,0,0,0,.85-1.26,29.5,29.5,0,0,1,4.8-7.5,10.32,10.32,0,0,0,2.52-5.75c0.1-1.86-2.18-2-2.81-3.55-0.2-.48-0.64-0.84-0.87-1.32-1.72-3.63-4.44-5.38-8.22-6.2-5.51-1.19-8.6-5.79-8.84-12-0.08-2,0-4.11,0-6.16-4,4.8-8.84,8.2-12,13.24a4.21,4.21,0,0,1-3.77,2.16c-3.15.11-6.26-.35-9.44,0.71-2.44.81-5.2-2.6-4.42-5.23s0.3-5,.41-7.47c0.06-1.34-.37-2.64-1.79-2.79s-1.8,1.25-2.17,2.46-0.89,2.62-1.39,4.08c-1.86-2-3.59-4.29-3.21-6.65,0.67-4.15-1.45-6.37-3.79-8.67a19.49,19.49,0,0,1-5.4-8.27,58.29,58.29,0,0,0-2.75-6.92c-1.81-4.06-1.37-4.63,2.6-7,1.89-1.1,3.36-2.37,5.49-.87a1.76,1.76,0,0,0,1.47,0c1.67-.72,2.28.3,3.12,1.64a44.35,44.35,0,0,1,5.07,10.46c0.63,2,1.35,4.41,3.44,5,3.09,0.91,5.25,2.92,7.43,5.21,2.95,3.09,6.92,4.44,10.74,5.3,2.57,0.57,4.79-2.09,7.07-3.54,3.2-2,7.07-2.26,7.43,3.6,0.3,5,3.45,7.4,7.56,7.78,9.2,0.86,18.2,4.05,27.63,2.51,2-.33,4-1.36,5.87-1,4.72,0.89,9.24,0,13.79-.95,1.33-.27,2.63,0,2.9,1.34,0.7,3.57,4.26,5.23,4.87,8.88a3.21,3.21,0,0,0,3,2.5c1.88,0.29,3.13,1.27,3.83,3.57,1,3.27,4.18,4.69,7.64,4.15,0.91-.14,1.92-0.79,2.77.64-1.6,2.8-4.57,3.09-7.81,4.13,2.92,3.65,5.29,7.07,8.11,10,2.24,2.33,5,1.32,7.49,0,2.35-1.25,4.62-2.45,3.6-6-0.41-1.46.32-2.34,2-3.11,1,5,3.26,9.62,1.45,14.93-0.5,1.49-.14,3.14.14,4.77,1.14,6.85,2.63,13.71,3.29,20.56,0.54,5.59,2.62,10.26,4.67,15a49.52,49.52,0,0,1,3.83,12.67A31.56,31.56,0,0,0,1641,693.6a57.94,57.94,0,0,1,6.59,20.08,14.89,14.89,0,0,0,3.53,7.6c2.72,3.28,5.22,2.89,6.95-1,0.56-1.27.39-3.28,1.74-3.72,3.34-1.09,3.8-4.12,4.68-6.94,0.32-1,.45-2.44,1.43-2.71,3.62-1,3.12-4.09,2.56-6.47-0.81-3.44-.08-6.31,1.21-9.29a20.73,20.73,0,0,0,1.08-3.55c1.16-5-.1-9.91-0.65-14.8-0.61-5.48,0-7.48,4.67-9.62,0.62-.28,1.48-0.39,1.63-1.07,0.73-3.3,3.66-1.82,5.42-2.92,2.41-1.51,1.1-4.92,3.24-6.4l0.41-.3a59.08,59.08,0,0,0,15.05-17c1-1.74,2-2.55,3.95-2.58a5.49,5.49,0,0,0,5.46-4.72c0.43-6,3.77-9.26,8-12.14,0.22-.15.45-0.29,0.67-0.43,0.64,0.82,0,2.69,1.27,2.64,4.32-.15,8.75-0.24,12.49-3,0.89-.66,2.29-0.64,2.64-2.22,0.32-1.43-.94-2.37-1.08-3.72,5,0.14,5.57.56,6.86,4.81a15.36,15.36,0,0,1,.92,4.17c0.06,5.23,3.12,8.74,6.48,11.51,2.58,2.12,4.78,3.71,4,7.58a2.18,2.18,0,0,0,.85,1.81c4.79,5,5,11,3.3,17.35-1.29,4.94-1.21,5.43,3.2,6.66,1.76,0.5,3.53.68,5.18-1.53,2.24-3,6.86-3.72,6.92-9.22,3.64,6.24,3.5,6.27,4.17,10.32,0.9,5.44.83,11.59,3.33,16.08,3.87,7,3.31,14.21,2.9,21.21-0.38,6.29-.39,12.86-2.46,19a2.51,2.51,0,0,0,1,3.21c5.88,3.9,7.63,11,11.08,16.77a5.43,5.43,0,0,1,.69,3.08c-0.36,3.31.72,6.38,1.23,9.53,0.83,5.17,3.47,9.83,6.09,13.88,2.74,4.22,7.54,6.94,11.53,10.18a2.87,2.87,0,0,0,3.76-.24c0.91-.78.63-2,0.28-3-0.56-1.68-.8-3.77-1.89-4.92-3.16-3.35-2.84-7.43-2.82-11.53,0-1.62,0-3.23.08-4.85a9.3,9.3,0,0,0-2.68-7.28c-2.12-2-3.83-4.47-5.84-6.61s-3.79-4-6.76-4.84-3.25-2.47-3.24-6.52-1.45-8.32-4.3-10.72c-1.71-1.43-2.42-2.44-2.48-4.44a26.33,26.33,0,0,1,.87-6.87c1.45-6.18,5.07-11.8,4.25-18.58-0.19-1.62.35-2.79,2.13-2.92s3,0.42,2.93,2.6c0,2,.43,3.63,2.63,3.79,6,0.45,9.21,4.13,10.45,10.12,0.32,1.56.65,2.81,2.55,2.33a0.88,0.88,0,0,1,1.15.73c0,2.73,1.89,2.7,3.59,3.47a12.32,12.32,0,0,1,4.2,3.68c0.81,1-.58,2.28-0.52,3.55,0.1,2.22-.38,4.52.43,6.73,2.92-.27,3.19-3.36,5.16-4.42a9.12,9.12,0,0,0,5.13-7c0.23-1.7.91-2.77,2.92-2.86,4.89-.23,7.81-4.33,11.29-7.24,0.87-.73,1-2.17,1.22-3.45a55.84,55.84,0,0,0,.07-17c-1.09-6.85-3.31-13-8.46-17.72s-8.15-11.6-11.93-17.64a6.31,6.31,0,0,1-.58-4.12c0.35-4,3.41-6.42,4.82-9.71,1.89-4.41,5.73-6.07,9-8.61,1.53-1.21,3.52-1.06,5.35-.57,1.12,0.3,2.09,1,3.37.63,1.93-.55,2.52.64,1.9,2.37-0.74,2.07-.08,3.86.53,5.72,0.3,0.91.67,1.74,1.67,1.62,1.32-.16,1.43-1.25,1.36-2.4-0.28-4.66.23-5.56,4-6.83a5.52,5.52,0,0,0,1-.2c3.81-2.15,8.2-2.58,12-5,2.07-1.3,2.32-2.69,2.2-4.7,1.25,0.29,1.81,1.5,2.7,2.28,0.51,0.45,1.14,1,1.7.21,1.8-2.64,4.58-2.31,7.09-2.81,3.28-.64,6.56-1.14,8.17-5.05,0.54-1.29,2-1.9,3.17-2.54s2.57-1.2,3.24-2.47c1.91-3.59,5.81-5.1,7.66-8.69,1-2,2.87-3.25,2.82-6.2,0-2.47-.2-5.82,3.19-7.29,1.31-.57,2.42-2.57,2.95-4.17,0.83-2.58,1.45-5.1,4-6.33,3.28-1.55.33-5.48,2.51-7.53,1.66-1.56,1.44-3.61.4-5.34s-2.57-2.9-4.71-2a2.1,2.1,0,0,1-3-1c2.26-.46,3.83-2.2,5.71-3.33,3.18-1.91,3.19-2.73.19-5.25-1.08-.91-2.44-1.5-2.9-3.05,1.82-1,3.12,1.18,5.29-.38-4.58-3.77-6.7-9-8.22-14.62-0.74-2.71-1.89-4.65-4.47-6-3.83-2-4.25-4-1.16-6.92,4.72-4.47,8.2-11,15.51-11.58a1.51,1.51,0,0,0,.91-0.35,3,3,0,0,0,1.16-2.77c-0.25-1.09-1.27-1.09-2.06-1-2.24.14-4.47,0-6.22-1.55s-3.37-.94-4.89.43c-0.76.69-1.4,1.56-2.2,2.2-2.88,2.3-5.14,1.43-5.34-2.35-0.17-3.1-1.51-4.12-4.1-4.06a4.49,4.49,0,0,1-4-1.83c-1.6-2.16-.49-5.85,2-5.69,4.27,0.28,7.12-1.24,8.79-5.41a1.33,1.33,0,0,1,.74-0.69c3.58-1,5.73-4.06,8.33-6.49,2.13-2,4.45-1.86,6.2,0,2.11,2.26.52,3.84-.85,5.46-1,1.16-2.84,2.27-1.89,4,1.53,2.76-.52,3.72-2.17,5.17,2.75,0.58,4.22-.75,5.64-2.35a15.65,15.65,0,0,1,11.63-5.43,9.64,9.64,0,0,1,7.15,3c1.74,1.72-.59,4.26-0.66,6.5a3.83,3.83,0,0,1-.54.89c-1.1,2.8.1,5,3,4.78,1.37-.1,2.64.35,3.92,0.2,2.61-.3,2.83,1.52,3.4,3.54s1,3.27-1.51,3.81c-0.88.19-1.23,1.14-.63,2.53,1.06,2.47,2.61,5.1,1,8s-1.3,5.67.56,8.6c4.61-2.13,9-4.4,14-5.17,2.33-.37,3.72-3.11,3-5.85a31.91,31.91,0,0,1-.52-6.94c-0.06-1.61.12-3.32-.85-4.67-2.9-4.1-4.36-9.22-8.46-12.5-3.21-2.56-2.79-5.66.88-7.44,3.27-1.59,5.93-4,8.73-6.23a3.65,3.65,0,0,0,1.64-3.6c-0.54-3.59,1.62-5.57,3.69-7.73s5-2.88,6.74-5.32,3.43-2.72,5.86-.7a7.08,7.08,0,0,0,8.49.74c3.55-2,7.32-3.8,9.77-7.35,3.81-5.52,8.52-10.09,13-14.93a21.51,21.51,0,0,0,4.35-5.87,38.21,38.21,0,0,1,8.66-12.38,12.42,12.42,0,0,0,3.54-6.34,36.49,36.49,0,0,0,1.33-10.6,14.24,14.24,0,0,1,3.42-10.85c0.92-1,1.81-2.23,1.4-3.83-0.64-2.51-1.72-4.9-.23-7.57,0.47-.84-0.67-1.56-1.38-2a18.06,18.06,0,0,1-5.81-5c-1.65-2.17-7.39-2.44-8.12-.52-1.05,2.76-3.46,2.91-5.31,4-1.5.85-3.06,0.57-1.76-2.14,0.41-.87-0.25-2-1.24-2.6a2.25,2.25,0,0,0-.81.53c-0.5.84-.47,2.24-1.86,2.13s-1.35-1.36-1.33-2.4c0.06-2.48-1.3-3-3.25-2.91-2.19.08-4.17-.42-5.46-2.51a5,5,0,0,1,.8-1.15c6.91-4.29,14.34-7.79,19.56-14.69a6.43,6.43,0,0,1,2.48-1.79c6.4-2.87,10.55-9,16.37-12.86,4-2.64,7.84-4.56,12.49-4.59,3,0,6,0,9.06,0,2.77-.06,5.53,2.52,8.34.06a1.18,1.18,0,0,1,1,.14c2.45,1.22,5.19-.37,7.23.21,3.33,0.93,4.82-.91,6.87-2.53a3.07,3.07,0,0,1,2.34-.65,52.69,52.69,0,0,0,10.82,2c1.17,0.06,2.18,1.29,2.93,2.42-1,1.14-2.79-.42-3.48,1.55a2.91,2.91,0,0,0,3.19.93c5.48-1.13,10.88-3,16.59-2.06a4.4,4.4,0,0,0,1.5-.09,1.39,1.39,0,0,0,.3-2.76c-1.2-.53-2.72.31-4-1.43,1.1-2,2.55-4.11,4.64-5.1,4.09-1.93,7-5.33,10.32-8.34a9.31,9.31,0,0,1,5.84-2.73,92.75,92.75,0,0,1,15.8-.19,1.57,1.57,0,0,1-.36,1.61c-0.77,1.32-2.93,2.13-.84,4.36,1.7,1.82,3.16,2.42,5.24,1,1.13-.77,2.56-1.14,3.48-2.1a12.52,12.52,0,0,1,9.5-3.81c-0.56-3-.14-5.93,2.27-6.76,2.65-.91,5.74-2.41,9,0.48-3.91-.16-5.41,2-5.8,5.54a17.78,17.78,0,0,1-1.45,4.53,4.23,4.23,0,0,1-3.22,3,18.69,18.69,0,0,0-10.41,5.94,16.13,16.13,0,0,1-4.07,3.12,30.83,30.83,0,0,0-7.51,6.19,20.63,20.63,0,0,1-10.69,6.49c-2,.44-4.8,1-5.46,3.81a7.07,7.07,0,0,1-3.65,4.8,5.14,5.14,0,0,0-2.53,3.2c-1.09,4.27-2.51,8.32-1.4,13.09,1,4.3,1.91,8.69,2.62,13.1s2.54,8.46,3,13c0.11,1,.56,2.59,2.23,2.35,2.32-.33,9.43-7.23,9.29-9.9-0.23-4.15,2-5.08,4.89-6,1.56-.49,3.05-0.89,3.48-3.24,1-5.41,3.22-7.14,8.64-7.46,4.24-.25,4.47-0.63,3.05-5-1.37-4.22,1.36-8,5.42-7.34,1,0.16,2.08.72,2.67-.46a3.32,3.32,0,0,0-.41-4c-2.49-2.27-2.46-4.24-.18-6.72,1.31-1.43.17-2.19-1.25-2.32a2.86,2.86,0,0,0-1.47.22c-1.21.6-2.33,0.66-3.06-.68a3.43,3.43,0,0,1,.41-4,32.08,32.08,0,0,1,2.92-2.94,12.47,12.47,0,0,0,3.67-4.94c1.27-3.52,4.34-5.6,7.48-4.08,2.57,1.24,3.52.06,5.17-1.1a8,8,0,0,1,4.19-1.5c1.54,0,.27,2.65,1.85,3.3a16,16,0,0,1,10.88-5.18c4.18-.24,8.35-0.24,11.3,3.88a1.24,1.24,0,0,0,2.16-.06c1.56-3.55,5-3.92,7.75-5.44,3.54-2,6.72-4.6,10.43-6.31,2.83-1.31,6-1.14,8.64-2.66,3.73-2.11,8.15-2.31,11.71-4.58,4.38-2.8,7.9.94,11.84,1a3.67,3.67,0,0,0,1,.15c1.28-.41,2.68-0.77,3.35-2.15a3.12,3.12,0,0,0-1.11-3.78c-2.68-1.63-3.92-4-4.64-7a2.3,2.3,0,0,0-2.31-1.73,5.39,5.39,0,0,1-2.89-.78c-0.94-.6-1.73-1.38-1.25-2.57s1.38-.42,2.15-0.24c5.26,1.27,9.93-.57,14.33-3.39,1.37-.87,3.1-2.17,1.4-4.26s-0.41-3.3,1.07-4.24,3.26,0.18,4.09,2.44c0.74,2,2,3.32,4.08,3.32a47.14,47.14,0,0,0,5.49-.4c3.17-.37,6.46-0.33,8.18,3.48,0.47,1,1.21,2.08,2.16,2,4.36-.12,7.8,3,12,3.66,3.1,0.47,3.08.62,4.42-2.91a1.47,1.47,0,0,1,.61-0.8c2.6-1,2-3.23,1.26-5.79,6.17,2,10.77-.53,15.6-4.53a6.09,6.09,0,0,1-4.65-1.51c-5.53-5-12.55-3.93-19-5.14-1.45-.28-2.21.54-1.66,2.26a18.39,18.39,0,0,1,.43,2c-2.54.33-4.29-.18-5.26-3.36a10.54,10.54,0,0,0-7.8-7.53c-8.45-2.09-16-7-24.65-8.56a4.4,4.4,0,0,1-1-.34,70.13,70.13,0,0,0-28.2-6.08,157.38,157.38,0,0,1-18.33-1.27c-1.81-.22-3.57-0.87-5.44-0.84a3.07,3.07,0,0,0-3.24,1.92c-0.74,1.69.54,2.08,1.26,3,2.27,2.85,1.76,4.31-1.78,4.78-4.87.65-8.77-2.46-13-4.29a1.26,1.26,0,0,1-.17-1.86c1.53-.59,2.82,1,4.35.61a1.52,1.52,0,0,0,1.42-1.25,1.3,1.3,0,0,0-1-1.56c-2.15-.37-4.64-1.17-6.37.27-3.86,3.21-8.16,2.62-12.49,2.7-6.36.12-12.6-1.78-19-1.11-3.72.39-7.23,0.8-7.8,6a6.24,6.24,0,0,1-1.56-1.29c-1.31-2.8-2.75-5.16-6.22-5.13-1.25,0-1.91-1.35-1.26-2.85,1.26-2.88-.63-4-2.55-4.79a35,35,0,0,0-12.2-2.7,105.54,105.54,0,0,0-26,1.86,7.79,7.79,0,0,1-7.52-1.95c-0.87-.84-1.75-2-2.93-1.92-4.82.49-8.93-2.93-13.84-2.45,1.09-2.06,4,.26,4.46-2.72-2.35-2.13-5.4-1.74-8.11-2.33-3.58-.78-7.42.67-10.89,0.09s-7.05-2.1-10.7-2.4c-7.65-.63-15.33-0.71-22.92-2.13-0.64-.12-2.07-0.61-2,0.67,0.28,3.66-2.25,2-3.64,2.37-1.93.45-4.24-.75-6,1.5,2.75,1.26,2.75,1.26,2.51,5.94-1.7.55-3.23-.1-4.86-0.55s-3.92-1.18-4.93,1.08c-1.12,2.51-2.45,1.67-4.08,1-5.43-2.28-10.88-3.19-16.56-.68-2.8,1.24-5.64.16-8.27-1.05-4.75-2.18-4.71-2.24-7.93,2.2-2,2.71-3.9,3.89-7.66,3-5.65-1.34-9.19-5.32-13.11-9l0.08-.1c0.84,0,1.67,0,2.51,0,1,0,2.2-.11,2.24-1.52s-1.12-1.58-2.15-1.61c-3.28-.09-6.35-1.55-9.7-1.61,3-.69,6.23-0.72,9.5-4-5.18-.81-9-5-13.88-1.41a1.61,1.61,0,0,1-1.4-.1c-2.68-1.34-5.68-1-8.49-2.25a9,9,0,0,0-8.75.74c-1.69,1.19-.49,3.57-0.86,5.37a4.29,4.29,0,0,1-.43.91,5.75,5.75,0,0,1-1.46.08,119.82,119.82,0,0,0-13.28-1.7c-3.9-.26-8.06.94-11.81-1.31-1.05-.63-3.54.42-2.4-2.6,0.2-.54-0.48-0.78-1-0.74-6.05.52-12-2-18-.87-3.81.75-8.07-.33-11.71,2.78-1-3.21-2.84-4.11-6-3.14-2.13.64-4.45-.07-6.75-1.17a9.39,9.39,0,0,0-9.42.32c0.89,1.73,2.73.26,3.61,1.81-9,3.14-18.53,2.6-27.67,4.91,0.83-1.64,2.09-2.13,3.65-2.59,4-1.18,8.19-1.85,11.91-3.54a170.37,170.37,0,0,1,26.92-9.51c1.53-.4,4.39-1.65,3.72-2.78-1.88-3.16,2.28-2.23,1.78-4.21-1-.69-2.35-2.37-3.1-2.1-2.25.83-3.29-.77-4.81-1.68a18.44,18.44,0,0,0-4.71-1.83c-6.76-1.79-13.65-1-20.5-1.09a2.65,2.65,0,0,0-1.87.56c-1.8,2-4,1.33-6.15,1.34-0.43,0-.63-0.24-0.58-0.84,0.21-.27.52-0.66,0.84-1s1.2-.8.32-2.19h-12.43c1.83-2.2,4.15-1.68,6.21-3.51-4.4-.89-8.25-2.13-12.15-1.81a46.26,46.26,0,0,0-14,3.76c-1.64.69-3.65,1.15-3.83,3.7-0.14,2-1.6,2-3,2-2.69,0-5.38,0-8.89,0,2,1.62,3.81,1.49,4.55,4.1-4.65-3.05-9-1.89-13.33-.49a19.31,19.31,0,0,1-7,.64c-0.62,0-1.67.22-1.74-.57-0.32-3.93-2.58-1.59-3.93-1.32s-2.92.62-4.41,0.83c-3.52.48-7.52-1.59-10.45,2.14-3.89-.35-7.61,1.08-11.47,1.23-6,.24-11.89.94-17.63,3.37-3,1.27-6.3,1.57-8.8,4.07-0.37.38-1.26-.3-1.49,0.66a12.67,12.67,0,0,1,2.68,1.45c1.42,1.29-1.69.92-.76,2s2.28,1.52,2.57,3.13a2.5,2.5,0,0,1-3.51,1.09c-3.55-1.88-3.88-2.15-6.11-1.57a18.08,18.08,0,0,1-4.43.81c-7.69.07-15.38-.06-23.06,1-4.56.61-4.62,0.42-2.38,5.05a19.53,19.53,0,0,1,.83,2.53c0.36,1.13,1.18,2.07,2.17,2,4.62-.53,7.69,3.29,11.65,4.54a9.39,9.39,0,0,0-2.29,0c-4.81,1.12-9.06-.16-13.44-2.46-4.57-2.4-9.74-2.39-14.78-1.83-2.56.29-1.55,1.7-.47,3a7.15,7.15,0,0,1-5.33-.39,5.93,5.93,0,0,0-3.46-.33,2,2,0,0,0-2,2,1.81,1.81,0,0,0,1.53,1.86c2.3,0.41,4.46,1.52,6.86,1.5,1.65,0,3.31.22,4.07,2.24a2.6,2.6,0,0,1-1,.6c-3.83-2.27-8-1.65-12.15-1.94-4.73-.33-5.69-2.25-3.7-7,1.31-3.15,1.29-3.18-2.73-5.49,0.5,5-2.32,6.63-6.09,7.11-2.26.28-3.56,1.73-4.94,3.9a5.6,5.6,0,0,1,1.16.81c1.49,1.68,3.38,3.17,4.26,5.16,1,2.17-1.79,3.09-2.55,4.8-1.26,2.83.69,6.76,3.63,6.94,1.33,0.08,2.83.37,4-.15,5-2.25,9.54.42,14.17,1.49,2.92,0.68,3.6,3.85,1.87,6.52-1,1.57-.63,2.65,1.17,2.91s3.35,0.24,5.6.37c-3.21,2.65-5.73.82-8.12,0-1.8-.59-1.11-2.71-1.29-4.25a7,7,0,0,0-7.25-5.73c-1.65.19-3.27,0.69-4.92,0.95-4.21.68-4.56,1.21-3,5.4,0.52,1.4,1.06,2.52-.25,3.84-4.45,4.5-10,7.21-15.08,10.63a2.53,2.53,0,0,1-1.91,0c-2.64-.82-5.33-0.36-8-0.47a16.78,16.78,0,0,1-9.09-2.82c3.17-.52,5.35-1.9,7.76.32s5,1.23,7.27-.69,4.3-4.65,6.86-6.19c2.39-1.43,3.06-3.58,3.94-5.86,0.54-1.38.54-2.52-1-3-3.24-1-3.86-3.51-3.55-6.71,0.24-2.46-.1-4.94.72-7.42,0.7-2.1.45-4.26-1.92-5.43-1.76-.87-2.24-2-0.49-3.6a16.31,16.31,0,0,0,2.2-2.91c1.61-2.35,1.16-4.31-1.25-5.57-1.73-.91-3.6-0.66-5.43-0.76h-2.9l-3.11,0,3.11,0h2.9c-2.42-.3-0.2-2.49-1.32-3.67-1.89-2-3.83-1.78-6-1.32-2.68.57-2.61,2.83-2.65,5-1.44-.85-2.71-1-4,0.43a13.45,13.45,0,0,0-2.79,4.4,10,10,0,0,1-7,6.33,20.94,20.94,0,0,0-2.86,1c-2.64,1.19-2.83,2-.53,4.08,1.14,1,.78,2.17,1,3.31,0.45,1.94-1.75,2.89-1.5,5.12,5.53-1,7.22,5.85,12.16,6.07-2.27,5.32-2.27,5.32-6.46,3.59-0.78-.33-1.53-0.71-2.3-1.05-13.52-5.93-27.39-10-42.16-9.58l0,0c-2-2.38-5.13-2.47-7.59-4-1.09-.66-2.84-1-3.29,1-0.41,1.79,1.2,1.65,2.27,2.06,3.41,1.29,7.09,2,9.22,5.82,1.23,2.19,1.2,3-1.14,3.62-1.39.39-2.72,0.1-3.73,2s-3.41,1.41-3.48-.73c-0.1-3.45-2.33-3.71-4-3a43.84,43.84,0,0,1-18.67,3.06c-1.38,0-2.51.91-3.72,1.52-2.07,1-4.2.66-6.22,0.35-0.5-1.72.79-3.48-.83-4.84-2.62.72-5.69,0.51-7.21,3.87a1,1,0,0,1-1.69.26c-1.2-1.43-2.46-.42-3.73-0.29-6.57.7-12.33,4.44-18.77,5.6-2.17.39-3.74,1.27-4.3,3.77a3.44,3.44,0,0,1-2.31,2.55c-5.05,1.92-9.43.69-13.41-2.88-1.06-.95-0.78-1.78.25-2.54a5.71,5.71,0,0,1,3.3-1.09,9.1,9.1,0,0,0,4.93-1.61c-4.76-5.95-10.71-4.81-17-4.56,2.74,2.19,3.21,4.51,1.35,7.12-1.18,1.65-.94,2.78.81,3.86,1.42,0.88,3,2.06,1.49,4.26-1.18,1.72-2.14,3.65-4.79,2.61-4.46-1.74-8.77-2.15-13.15,1-2.13,1.52-5.08,1.7-7.42,3.16s-2.49,2.17-.69,4.49c0.92,1.18,2.56,1.86,2.31,4.27-5.68.39-11-1.16-16.26-3.29-4.1-1.67-4-1.82-6.73,1.13,2,3,2.06,3,5.62,3.57,1.29,0.21,2.39.69,2.36,2.22s-1.38,1.87-2.54,2a9.15,9.15,0,0,1-6.77-1.38A13.71,13.71,0,0,0,1400,287a3.31,3.31,0,0,1-3.06-3c-0.48-2.08-1.59-4.08-.83-6.26,0.89-2.57-.31-3.93-2.3-4.34-3.95-.8-6.84-3.48-9.94-5.83l0.17-.21a14.48,14.48,0,0,1,2.46.49c5,1.93,10.43,2.09,15.59,3.64,3.57,1.07,7.63.75,11.36,1.73,7.1,1.86,13.59.27,19.73-3.61,1.29-.81,3.28-1.88,2.59-3.43-0.78-1.76-.81-4.55-3.16-5.07-2.64-.58-4.73-2.47-7.46-2.93a26,26,0,0,1-7.54-2.7c-8.4-4.41-17.1-7.08-26.57-6.44-3.58.24-6.92-1.13-10.45-2.22,1.05-1.45,2.6-.14,3.63-1.84-4.74-.59-9.22.57-13.73,0.31-2.91-.17-5.36-0.12-7.87-2.53,3.77,0,7.34.29,10.39-2.61-5.21-.15-9.92-5.25-15.53-1.21-0.51.37-1.27-.24-1.75-0.77-0.28-.3-0.17-0.6.26-0.78,0.76-.3,1.81-0.55,1.07-1.71a2.24,2.24,0,0,0-1.86-.41,7.8,7.8,0,0,0-4.73,2.82c-1,1.15-2.18,2-2.89-.37-0.48-1.61-1.37-1.2-2.28-.49-2.06,1.61-4.11,3.23-6.21,4.89-1.33-2.93,2-3.2,2-5.16-1.47-1.06-3.43-1.19-4.38-.54-3,2-6.22,2.69-9.59,3.12-0.49.06-.6,0.31-0.61,1,0,2.68-.15,2.78-2,1.82-2.4-1.26-4.91-.64-7.38-0.75-0.47,0-.65.18-0.53,0.55,0.3,1.18,2.6-.14,2.15,2-1.07.75-1.91-.33-2.88-0.35-2.59-.08-4.76,4.35-7.68.83a3.13,3.13,0,0,0-.76.62c-1.07,1.32-1.91,1.16-2.57-.41-1.07-2.55-2.53-2.37-4.36-.86a36,36,0,0,1-3.38,2.24c0.17,1.14,2.11.59,1.67,2.31-0.81.51-1.51-.13-2.24-0.43a12.79,12.79,0,0,0-2.34-.94c-2.74-.54-5.75,1.64-4.94,3.53,1.13,0.53,2.55-1.42,3.55.44a2.11,2.11,0,0,1-2,2c-2.91.23-4.79,1.34-4.82,4.83,0,0.64-.62,1.54-1.34,1.23-2.7-1.18-4.8,1.88-7.4.69,0,1.49,2.11,1.1,1.43,2.69-4.25,1.22-7.23,4.74-10.88,7a5.51,5.51,0,0,0-2.33,3.12c-0.89,2.65-3.07,4.52-3.85,7.67-0.61,2.47-5.77,1.56-6.39,5.67a3.18,3.18,0,0,1-1.36.18c-3.28.07-5.52,1.95-7.52,4.56-0.61.8-.47,2.31-1.63,2.44-4.81.51-8.23,5.14-13.52,4.65-4.16-.38.07,1.88-0.47,3-2.57-.37-5-0.12-6.92,2.28-0.5.63-1.05,1.86-2.42,1.34-2.4-.92-3.29,1.38-3.29,2.85,0,2.73-.43,5.43,0,8.23,0.52,3.47,2.14,4.58,5.69,4-1.65,1.86-2,3.94-4.27,4.32a1.35,1.35,0,0,0-.84,2.33c1.71,0.44,2.92-1.9,4.71-1-0.71,3.5-.63,3.9-1.92,4.22-2.68.65-1.5,2-.38,2.62,6.19,3.69,12.46,6.38,18.93.59,2-1.79,4-3.66,6.9-4.07a2.85,2.85,0,0,0,2.41-3.89c-0.19-.75.32-1.32,1.4-1.61,0.63,1.09-.06,3.06,1.16,3.69,3.24,1.66,1.55,7.18,5.66,8.07a1.3,1.3,0,0,1,.16,1c-1,2.69.8,4.38,2,6.26,1.9,2.95,4.79,5.43,3.68,9.73-0.14.54,0.61,1.27,0.72,2,0.27,1.66.49,3.46,2.6,3.07,1.93-.37,4.5,1.27,5.64-1.94,1.25-3.54,3.84-4.81,7.19-4.38,2.35,0.3,3.62-.91,4.87-2.86,2.09-3.28,2.58-7,2.78-10.72a7.67,7.67,0,0,1,3.66-6.46c1.57-1.14,3.88-1,5.36-3.61-4,.08-7.22-1.35-10.64-2,3.17,0.5,6.31-1.81,9.58.28,1.15,0.74,2.92-.45,4.16-1.34s1.62-2.33.14-3.5a24.36,24.36,0,0,0-6.48-4.06c-0.9-.33-2-0.44-2.44-1.63-0.67-1.7.83-11.7,2.24-12.66,4.14-2.82,7.6-6.81,12.62-8.11a11.69,11.69,0,0,0,4.61-2c2.26-1.89,6-3,4.67-7.51-0.21-.72.42-1.25,0.78-1.86,2.55-4.35,5.73-7.16,11-6.49,3.62,0.46,7.36-.48,10.9,1.19a3.23,3.23,0,0,1,2.17,3.21c0,1.65-.65,2.88-2.26,3-2.06.13-3.21,1.68-4.67,2.87a86.55,86.55,0,0,1-15.25,10.51,7.85,7.85,0,0,0-3.22,3.32c-0.78,1.43.73,2.21,1,3.33,0.67,2.71,2.21,5.27.93,8.3-1.08,2.56.3,4.21,2.38,5a51.51,51.51,0,0,1,7.74,3.82,5.28,5.28,0,0,0,3.9.6c4.42-.89,8.79-2.08,13.23-2.84,6.17-1.06,12.43-4,18.48.64,0.59,0.45,1.64.17,2.47,0.33,1.07,0.19,2.31.17,2.72,2-3.66-.16-7.36.27-10.14,2.44a7.77,7.77,0,0,1-7.94,1.34c-5.9-2-11.51-.26-17.14,1.11-1.29.31-3.13,0.48-3.15,2.8,0,1.93.36,4.09,2,4.53,3.57,0.92,2.95,3.63,3,6.23,0,1.73-.16,3.4-1.9,3.94s-3.71,1-5.07-.95a11.12,11.12,0,0,0-3.08-2.72,4.91,4.91,0,0,0-6.66,1.09c-2.59,3.81-4.63,7.82-2.91,12.84a13.92,13.92,0,0,1,.48,3.69,2.08,2.08,0,0,1-2,2.5c-2.18.24-5.13-1.37-5.46,3.25-0.1,1.45-6.94,2-7.89.42-2.55-4.24-5.76-2.71-8.82-1.57-4.71,1.75-9.15,4.4-14.21,5-0.65.08-1.64,0.24-1.84,0.69-1.42,3.16-2.37,1.14-4,0-3.22-2.17-6.28-5.11-10.87-2-1.62,1.09-5.66,4.62-7.34-1.12a1.8,1.8,0,0,0-1.41-.3c-3,.5-4.1-2-5.48-3.91-1.91-2.61-1.39-4,1.89-5.9a5.34,5.34,0,0,1,3.68-3.83c1-.36,1.64-1.91.35-2.36-3.61-1.27-3.3-3.25-1.47-5.92a1.92,1.92,0,0,0-.1-2.43,2.16,2.16,0,0,0-2.31-.38,3.13,3.13,0,0,0-2.13,2c-0.93.36-1.87,1-2.79,1-3.6-.1-5.5,1.83-6.21,5.42,0,2.45-1,5.37.78,7.19,3.3,3.34,2.07,8.05,3.75,11.81a1.09,1.09,0,0,1-.21.92c-1.55.4-2.31,2-3.59,2.75s-1.77-.35-2.64-0.75c-1.25-.57-3.22-0.87-3.7.37-1,2.62-2.7,1.35-4.18,1.42-1.67.08-3.34-.09-4.91,0.78s-3,1.86-1.5,4.05a1.4,1.4,0,0,1-.37,2.23c-1,.6-1.94.71-2.45-0.68-0.3-.8-0.35-1.81-1.66-1.69a57.54,57.54,0,0,1-3,5.43,19.43,19.43,0,0,1-12.34,8.38c-2.32.46-4.7,1-4.3,4.61,0.3,2.8-1.62,3.54-3.66,4.24-1.39.48-3.3,0.42-4,2-1.43,3.52-3.74,2.55-6.29,2.06-1.62-.33-2.6-1.54-4-2.09a1.92,1.92,0,0,0-1.43.11c-0.78.4-.58,1.16-0.31,1.84,0.19,0.49.48,0.95,0.65,1.45,1.22,3.82.48,4.89-3.29,4.78-1.15,0-2.64.37-3.39-.24-4.19-3.41-7.78.37-12.25,0.46,1,0.91,2,1.45,1.89,1.75-0.62,3,1,3.68,3.26,3.87a9.89,9.89,0,0,1,2.89.84c3.46,1.48,7.52,2,8.4,7.2,0.2,1.16,1.6,2.43,2.73,3,3.06,1.58,3.26,4.51,2.88,7.26-0.52,3.72-1,7.42-1.44,11.15-0.53,4.58-2.69,6-6.94,5.26a60.61,60.61,0,0,0-10.35-.73c-5.94,0-11.87-1.33-17.87-1.12a2.74,2.74,0,0,1-1.38-.6,3.38,3.38,0,0,0-4.6.57,8.82,8.82,0,0,1-4.26,2.68c-1,.22-2.06,1.45-1.44,2.38,2.5,3.74,1.07,8.07,2,12a15.94,15.94,0,0,1-.19,7.87c-0.75,2.94-1.44,5.87-3.12,8.43-1.19,1.81-1.48,3.78.66,5,2.41,1.43,2.6,3.63,2.44,6.18-0.12,1.92,0,3.86,0,5.89,1.36,0.66,2.9.34,4.38,0.39a11,11,0,0,0,2.93-.57c4.52-1.1,5.88-.31,7.9,4.6,1.4,3.42,3.69,4,6.39,1.6a15.13,15.13,0,0,1,2.13-1.31c3.82-2.53,8-2,12.21-2.08,2.17,0,4.59.21,5.77-2.31,1.27-2.71,3.66-3.32,5.88-4.58s1.38-5.19,3.94-6.56c1.78-.95,1.95-2.17.83-3.88-1.58-2.42-1.12-4.67.6-6.86a46.23,46.23,0,0,0,5.16-7.19,4.4,4.4,0,0,1,3.49-2.6c2.8-.38,4.94-2.08,7.26-3.46,4.1-2.44,4.1-2.45,3.17-7.59-0.7-3.9,2.68-8.06,6.33-7.25,2.88,0.64,5.9.38,8.69,2.19a4.94,4.94,0,0,0,6.53-.73c3.15-3.63,8.33-3.8,11.23-7.81a2.62,2.62,0,0,1,1.86-.57c2.86-.13,8.11,3.52,8.89,6.64,1,4.1,3.6,6.75,6.61,9a27.52,27.52,0,0,1,3.85,3.43c2.6,2.85,5.11,5.75,9.28,5.67,1.09,0,1.64,1.08,2.42,1.74,2.63,2.26,5.39,4.35,8,6.65a11.7,11.7,0,0,1,3.26,3.62,10.67,10.67,0,0,1-.23,10.48c-5.55.69-10.92,3.49-16.71,1.33-1.11-.42-2.8-0.35-3.17,1.65s1,2.46,2.18,3.1c2.86,1.47,5.77,2.83,8.55,4.47,4.11,2.43,5,2,5.27-3.07,0.22-4.13.71-4.61,4.45-4.74,0.27,0,.52-0.81.78-1.25,2.59-.86,2.48-4,4.16-5.61,2.92-2.76,3.15-3,.49-5.43-2.07-1.93-1.75-3.3-.51-5.46,1.46-2.55,2.9-1,4.65-.75,2.22,0.37,2.76,2.8,4.64,3.72,1.39-3.4-.55-5.24-2.53-6.36-2.5-1.41-4.77-3.3-7.55-4.16-1.76-.55-3.53-1.16-3.66-3.75-0.09-1.75-1.54-1.59-2.7-1.61-5-.09-8.22-3.44-10-7.77-1.51-3.74-3.43-6.52-6.79-8.14-4.28-2.06-2.45-5.9-2.63-9.26s2.44-3,4-3.85c2.37-1.23,2.8-.8,3.26,2.1,0.54,3.38,1.56,3.88,4,1.63,1-.93,1.36-0.8,2.39,0,1.48,1.07,1.47,2.74,2.13,4.13,1.85,3.86,4,6.85,8.18,8.76A65.1,65.1,0,0,1,1302.61,461a5,5,0,0,1,1.8,4.06,27.89,27.89,0,0,0,3.81,14.34,4,4,0,0,0,.23.48c3.39,4.38,5.73,10.41,12.8,8.81a3.09,3.09,0,0,1,3.77,2.35c-2,1.23-3.43-.39-5-0.52s-3.82-.58-4.63,1.14c-1.47,3.12,3.28,4.72,2.2,8.11-0.24.76,0.74,1,1.4,0.53,1.42-1,1.84.32,2.14,1.18,0.92,2.67,2-.17,3.11.17,1.69,0.54,1.56-1.38,1.18-2-1.94-3,2.83-4.31,1.52-7.12-0.12-.25.74-0.51,1.26-0.45,1.08,0.11,1.92,1.5,3.12.79a34.5,34.5,0,0,0,.94-3.71c0.24-1.79-1.61-3.59-3.1-3.06-0.8.28,0.35,2-.91,1.9-2.17-.17-4.25-3.45-3.15-5.42,0.8-1.43.69-2.1-.1-3.18a28.46,28.46,0,0,1-1.64-2.7c-0.74-1.29-1.29-2.89,0-3.84s1.94,0.89,2.83,1.56c0.64,0.48,1,1.43,2,1.27a4.76,4.76,0,0,0,1.27-1.64c0.83-4.39,3.95-4.78,7.25-5a12.87,12.87,0,0,1,6.8,1.42c2.4,1.19,5.18,2.51,7.43,0,2-2.25,4.28-2.47,6.85-2.47,1.07,0,2.29.7,3.53-.87-3-1.63-5.88-3.31-6.39-7.3-0.2-1.56-2.58-2.6-.85-4.7,1.09-1.32.67-3.77,2.4-4.53,2.42-1.07,2-3.28,2.57-5.29,0.8-2.76.27-7,5-6.7,1.27,0.08,1.68-1.59,1.69-2.91,0-1.68.1-3.27,1.72-4.15,2-1.09,3.3-2.9,4.64-4.79,1.92-2.71,6.31-3.57,8.76-1.95,0.32,0.21,1.29-.22.72,1.11-0.89,2.08-.27,2.91,1.62,3.09,1.36,0.12,2.55-1.14,3.9-.6a2.89,2.89,0,0,1,1.49,1.31,1.41,1.41,0,0,1-.85,1.68c-1.34.89-3,1.24-4.07,2.62,2,1.62,5,1.34,5.42,5.08,0.38,3.34,1.92,3.82,4.44,1.76,1.37-1.14,3-1.58,4.35-2.51,2.41-1.67,5.42-1,8.17-2.39-1.31-1.83-2.55-1.25-3.81-1.08-2.3.31-4.11-1.32-4.93-4.08-0.71-2.4.76-3.12,2.35-4,4.82-2.57,10-3.79,15.2-5.19,2.55-.69,5.21-1.79,8.44-0.87a16.06,16.06,0,0,1-7.59,4.57c0.47,1.93,2.63,1.59,2.62,3.47-1.28,1.08-3.15,1.5-3.7,3.42-0.82,2.85-2.66,3.77-5.86,2.76,1.33,2.55,2.84,4,4.38,4.62a44.21,44.21,0,0,1,14.3,9.6c1.34,1.29,3.12,2.06,4.68,3.09a29,29,0,0,1,3.77,2.64c2.57,2.37,3.35,7.42,1.23,9.67-2.67,2.85-6.17,4.69-9.94,4.06a14.48,14.48,0,0,0-7.36.19,6.12,6.12,0,0,1-4-.12c-4.12-1.47-8.37-2.25-12.34-4.6-3.12-1.83-6.64-4.49-10.83-2.76a1.49,1.49,0,0,1-1,0c-4.27-1.45-8.11.21-11.33,2.71a16,16,0,0,1-12.4,3.58c-1.15-.15-2.28-0.44-3.43-0.57a1.3,1.3,0,0,0-1.58,1,1.63,1.63,0,0,0,.69,1.82c0.59,0.5,1.59,0,2,1-3.65.89-6.9,3.13-10.92,2.76-1.38-.12-2.89,0-4.36-0.18-2.12-.22-4.81,1.78-5.46,3.9-0.27.89-.26,2.11,0.68,2.25,4,0.6,2.33,4.24,3.12,6.49a1.9,1.9,0,0,1-1,2.15c-2,1.32-2,1.58,0,2.49,1.86,0.82,3.12,1.67,3.08,4.2a5.61,5.61,0,0,0,2.36,4.26c0.74,0.57,2.07-.37,2.73.58,0.32,0.46-1.06,1.65.3,2,0.94,0.26,1.92-.66,2.93-0.15a11.83,11.83,0,0,1,3.7,2.62c2.19,2.44,6.3,2,7.84-.43,2.41-3.85,2.43-3.9,6-2,1.64,0.85,3.44,1.47,4.53,3.25,0.93,1.53,2.37,1.83,4,1.74,2.88-.16,5.62-0.48,7.63-3.19,0.93-1.25,2.51-2.64,3.88-2,2.84,1.38,5.29.44,8.21-.7-2.62,3.91-1.84,8-1.71,12a20.11,20.11,0,0,1-1.47,9.42,93,93,0,0,0-5.53,15.53c-1.56,5.86-3.81,7.39-9.5,7.61a11.68,11.68,0,0,1-7.59-2,6.74,6.74,0,0,0-3.73-1.18c-3.14-.33-5.89.82-8.47,2.64-1.84,1.29-3.77,2.46-6.11,1.62-3.47-1.26-7.12-1.71-10.57-3.25-2.81-1.26-5.93-2.42-9.19-1.28-0.63.22-1.58,0.35-1.86-.32-1.73-4.19-5.6-3.23-8.62-4.24-1.89-.63-4-0.65-4.79-3.22-0.34-1.13-1.42-1.36-2.37-1.77a13.24,13.24,0,0,0-14.4,3.37c-1.75,2-2.65,4-1.62,6.78,0.53,1.41,1.16,2.8.23,4.58-2.48,4.75-5.63,5.75-9.65,2.32a20.41,20.41,0,0,0-11.91-5c-3.66-.3-6-2.13-6.68-6-0.23-1.26-.32-2.85-1.58-3.12-4.64-1-8.71-4.85-13.89-3.21-1.39.44-2.72-.26-3.86-0.86-3.7-2-7.34-4.07-10.93-6.26-2.35-1.44-2.51-3.18-.58-5.14,0.72-.73,1.7-1.18,2.42-1.91,2.2-2.22,3.29-6,1.53-7.71-3.46-3.26-1.91-5.82.12-8.68a1.29,1.29,0,0,0,.13-1.46c-1.51-.9-2.71,2.16-4.43.24-3.3-3.69-3.42-3.72-7.27-1.59-2.51,1.38-5,1.44-7.74,1.28-3.74-.22-7.63-1.48-11.33,1a4.4,4.4,0,0,1-5.2.3c-2.41-1.63-5.14-1.19-7.8-.59s-5.26,1.8-7.81,1.61c-7.83-.6-13.21,6.07-20.35,7.38-0.83.15-1.56,1.31-2.2,2.13a6.34,6.34,0,0,1-7.3,2.26c-3.32-1.06-6.61-.87-9.94-0.8-2.88.07-5.21-.63-6.78-3.52-1-1.81-2.8-1.79-3.72,0a43.33,43.33,0,0,0-2.26,6c-1.53,4.56-3.84,8.34-8.36,10-3.28,1.23-5.47,4-8,6.33-2,1.9-1.37,4.72-2.91,6.69-2.5,3.18-2.4,7-1.52,10.72,0.34,1.43.81,2.8,0.14,4.16-3.38,6.88-8.31,12.5-15.09,14.88C1108.61,570.14,1106.79,572.73,1105.5,576.47ZM1404,761.86a9,9,0,0,1-.39-0.84,9,9,0,0,0,.39.84,2.37,2.37,0,0,0,2,1.43A2.37,2.37,0,0,1,1404,761.86Zm2.07,1.52h0a4.72,4.72,0,0,0,.43,2.67A4.73,4.73,0,0,1,1406.1,763.38Zm903.61-492.53h0a1.18,1.18,0,0,1,.32.19A1.18,1.18,0,0,0,2309.71,270.85ZM1690,236l-0.21-.33Zm0.8,171.67c0,1,0,2.08,0,3.12C1690.8,409.8,1690.81,408.76,1690.81,407.72Zm0,3.23h0c1.54,0.3,2.4,1.68,3.51,2.66C1693.24,412.62,1692.38,411.25,1690.84,410.95Zm-0.52-174.43,0.26,0.41Zm-1.65-4.68,0.17-2-0.17,2c0.13,0.13.25,0.27,0.37,0.41a5.29,5.29,0,0,0-.37-0.41,35.27,35.27,0,0,0-4.2,1.72A35.27,35.27,0,0,1,1688.66,231.84Zm-346,72.31a11.08,11.08,0,0,0-1.18-4.26A11.08,11.08,0,0,1,1342.69,304.15Zm-0.06.11h0a5.85,5.85,0,0,0-3.39,2.45A5.85,5.85,0,0,1,1342.63,304.26Zm-97.55,38.84a2,2,0,0,1-2,2.08A2,2,0,0,0,1245.08,343.1Zm-4.74,4.21a2,2,0,0,0,1.72-.91l0.21-1.23-0.21,1.23A2,2,0,0,1,1240.34,347.31ZM1180.9,720.63c0.9,2.48,1.77,5,4.49,6,0.65,2.17,2.31,4.39.89,6.42,1.42-2-.24-4.24-0.89-6.42C1182.67,725.58,1181.79,723.11,1180.9,720.63Z"/></clipPath><clipPath id="clip-path-10" transform="translate(4.59 -123.3)"><path class="cls-2" d="M175.72,279.86c-0.68,4.28,0,5.38,3.37,6,4.66,0.89,9.28-.28,13.93-0.11,4,0.15,7.92,0,11.69-1.76a7.63,7.63,0,0,1,3.47-.21c0.67,0,1.56,1,1,1.28-3,1.59-.7,3.16-0.05,4.53,0.9,1.92.16,3-1.2,4.07a4.42,4.42,0,0,1-3.37.74,9.17,9.17,0,0,0-7.08,2.08,4.1,4.1,0,0,1-5.11.33c-2.6-1.43-5.58-.79-6.19,1.84s-2.29,3.16-3.84,4.32c-1.25.94-1.9,2.49-2.89,3.66-1.93,2.28-.5,4.13,1,4.56,3.12,0.91,5.73,3.8,9.38,2.85,0.78-.2,2.06-0.67,2.48.91-2.6,2.4-6.48-2.47-8.84,1.95,1.14,0.73,2.55,1.2,3.36,2.22,3.26,4.08,7.06,4,11.34,2.31,3-1.2,5.47.4,5.13,3.75-0.25,2.51.8,4.35,1,7.12,6.05-4.49,11.54-3.77,16.51.79,1.47-.92.8-3.12,2.73-3.47,0.81,1.57,1.83,2.64,3.95,1.85,1.45-.54,2.94-1.84,4.93-0.91-2.53,1.68-3.14,4.38-3.39,7-0.21,2.15-1.42,2.68-2.73,3.83a37.5,37.5,0,0,1-11.88,7.35,3.91,3.91,0,0,0-2.39,2.64c-0.51,2-1.39,2.6-3.3,1.88-3.9-1.5-6.81.19-9.08,3.59-3.06,1.05-5.84,2.83-9.19,3.12-2,.17-4.26,1-4.52,4.06a4.51,4.51,0,0,0,1.54.34c4.43-.85,8.34-3.09,12.26-5.33,1.91,0.52,3.24-.19,4.09-2.1,0.65-1.46,1.41-1.74,2.58-.37,0.61,0.71,1.54.16,2.35-.11,4.14-1.36,8.31-2.62,12.45-4,1.09-.36,2.88-0.86,3-1.57,0.73-4,4.23-3.32,6.45-4.69,1.42-.88,3.63-0.62,4.5-2.13,2.32-4,6.33-5.28,9.88-6.85,3.86-1.72,6.31-4.92,9.57-7.23-1.25-1.71-3.57-1-4.19-3.09a5,5,0,0,1,3-2.66c3-1,5-3,7-5.63,2.07-2.74,4.67-5.2,8-6.25,2.44-.78,5-1.69,8,1.71-5.82-1.15-9.19.78-10.67,6.05-0.26.92-1.57,1.52-1.14,2.74s2,0.42,2.75,1.23c-0.83,1.45-2.78,1.13-2.78,3.27,2.54-.57,4.68-0.82,6.89-2,3.32-1.83,6.59-4.1,10.74-3.93,2.79,0.11,3.76-1.92,3.12-5.09-0.58-2.88-.58-2.85,2.47-2.71,3.23,0.15,6.17.31,9.35,2.12,4.12,2.35,9.3,2.37,13.46,5.17,0.92,0.62,1.9.25,2.91,0a24.47,24.47,0,0,1,15.89,2,4.12,4.12,0,0,0,2.39.6c2.92-.61,5.6-1.06,7.41,2.44,0.37,0.71,1.8.78,2.75,1.14,2.68,1,5.29,2,7.43,4.26,2.39,2.52,5.38,3.12,8.82,1.52l-3.67-3.3c2.1,1.27,6-1.89,6.56,3.06,0.06,0.6,1.09.75,1.76,0.51a1.56,1.56,0,0,0,.9-1.69c0-1.28-1.54-2.5.1-4.21,1.6,3.74,3.8,6.47,7.43,8,1.53,0.67,3.94,2.06,4.1,4.37,0.21,2.85,2,4.09,3.76,5.25a16.59,16.59,0,0,1,5.55,6.58l-0.31.8,0.72-.36c4.86,0,5.2.32,5.71,5.11,0.06,0.53-.06,1.09,0,1.61,0.43,2.42,1.38,2.77,3.28,1.23,0.47-.37.67-1.28,1.93-0.58-3.29,4.05-1.75,8.07.18,12.07a0.74,0.74,0,0,1-.14.5c-1,1.84-.35,2,1.26,1.61,2.2-.53,3-3.23,5.23-3.86,0.77,2.22-.87,3.51-1.26,5.17s0.06,2.86,1.93,2.71c0.65-.06,1.28-0.51,1.93-0.55,1.35-.08,2.15.28,0.63,1.57-0.31.26-1,.87-0.47,0.89,4.53,0.21,3.31,3.95,3.84,6.73,0.89,4.67,1.4,5,5.9,5.46a10.86,10.86,0,0,1,2.46.39,1.61,1.61,0,0,1,1.13,1.58,1.24,1.24,0,0,1-1.38,1.2,9.47,9.47,0,0,1-5.82-1.3c-1.65-.92-3.3-1.34-5-0.28a4.29,4.29,0,0,0,2.16,3.18c6.36,4.53,12.79,9,19.29,13.23,1.53,1,3.47,1.25,5.21,1.9a1.76,1.76,0,0,0,2.25-.53c0.57-.75-0.1-1.29-0.43-1.88a8.06,8.06,0,0,0-1.34-2.26c-4-3.27-8.52-5.94-11.17-10.84-0.21-.39-1.26.06-1.29-0.95,4.91-.15,4.93-0.17,7,3.66a2.91,2.91,0,0,0,1.38,1.41c5.09,2.35,7.44,3.7,9.54,7.16,1.67,2.76,3.2,5.82,3.07,9.4-0.09,2.35-.91,3.93-3.37,4.74,2.12-5.06,1.24-7.37-3.4-8-2.37-.33-4.62-1.7-7.06-1.52a11.92,11.92,0,0,0-.15,1.45,2.29,2.29,0,0,0,.19,1,26.42,26.42,0,0,1,3.9,19.21c-1.15,6.28-.14,12.91-2.79,18.95a8.59,8.59,0,0,0-.1,5.32c0.88,3.8,3.24,7.79,1.51,11.44-2.37,5,3,7.36,2.38,11.47a2.61,2.61,0,0,0,.1,1.07c0.38,1.37.63,3,1.69,3.84,2,1.68,2.24,5.54,4.74,5.95,4.76,0.78.39,4.66,2.28,6.29,0.61,0.53,1.07,1.32,1.78,1.83s1.32,0.92,1.12,1.63c-1.19,4.19,2.22,6,3.92,8.61,1.53,2.31,3.75,4.07,3.61,7.35a2,2,0,0,0,1.89,2.14c3.87-.55,6.59,2.33,9.76,3.66,3.38,1.43,6.72,3.62,8.14,7.53,1.15,3.18,2.48,6.21,3.85,9.28,3.68,8.29,6.07,17.38,13.75,22.9a3.21,3.21,0,0,1,.36.38c1.76,1.7,1.2,3.92,1.27,6,0.08,2.6-2.6,1.61-3.48,2.95,1.9,3.79,5.2,5.09,8.22,6.94,3.54,2.17,7.88,4.2,7.38,9.73-0.41,4.47,1.72,7,4.65,9.37s6.21,4.82,7.63,9c0.62,1.81,1.84,1.77,3,.26,0.82-1.09,1.21-2.3.37-3.43-1.48-2-1.8-5.22-4.94-5.56-1.22-.14-1.53-1.12-1.71-2.28-0.87-5.31-4.32-9.61-5.11-15-0.14-.91-1.06-1.36-1.53-2-2.13-3.15-4.76-6.14-6-9.68a32.85,32.85,0,0,0-7.89-12.58c-4.84-4.74-3.66-10.45-4.59-15.84,2.26-1,3.12,1,4.69,1.11,2.92,0.24,4.67,2.1,5.73,5.42,2.31,7.25,5,14.34,10.25,20,1.34,1.45,3.7,1.91,4.17,3.61,1.16,4.24,4.32,6.11,7.27,8.39,1.4,1.09,2.68,2.34,1.06,4.4-1.16,1.48-.52,2.6.81,3.52,2.1,1.46,4.41,2.65,6,4.76,4.47,5.77,9,11.47,13.24,17.46,2.71,3.89,3.77,8.66,4.15,13.49,0.12,1.51.36,3.24-1.08,4.48-1.15,1-.78,2.28-0.17,3.41,1.49,2.79,2.84,5.65,5.88,7.06a11.22,11.22,0,0,1,5,4.3,6.56,6.56,0,0,0,4.46,3.27c5,0.65,8.38,4,12.11,7a25.54,25.54,0,0,0,3.14,1.65c4.08,2.4,8.47,4.09,12.69,6.12,12.14,5.83,10.67,6.31,19.72.51a3.3,3.3,0,0,1,3.23-.34c4.78,1.55,7.77,5.32,10.73,9.25,3.26,4.34,6.53,8.71,12.53,8.77,1.42,0,2.77,1.21,4.15,1.76,4.76,1.89,9.29,5.68,14.57,2.53,1.41,1.62-.58,3.43,1,4.77,2.51,2.18,4,5.2,5.83,8,0.89,1.4,2,2.9,3.95,2.91,0,2.6,1.2,5,.25,7.86a3.43,3.43,0,0,0,4.48,4.2c1.27-.52,1.71-0.57,2.22.52,0.58,1.25,1.7,1.68,2.71,2.27,2,1.18,3.68,2.55,3.45,5.37-0.13,1.52,1.18,1.2,1.78,1.74,2,1.81,4.27,1.86,6.51,1.86,3,0,3.39,3.86,6,4.18,1.54,0.19,1.67,1.47,2.17,2.56,0.81,1.75,2,1.67,3.25.55s2-2.51.74-4.14-1.29-2.76.59-3.82c1.22-.69,1.79-2.09,2.53-3.28,1-1.55,2.56-2.17,3.95-1.25,2.22,1.48,4.81,3.05,4.66,6.43-0.14,3.17,1.26,5.39,2.95,7.73,1.58,2.17,2.88,4.31,2.6,7.66-0.41,5-.49,10.41.76,15.2,1.45,5.55-1.5,9.26-4.2,11.69a17.94,17.94,0,0,0-6,10.21c-0.19.92-.44,1.9-1.4,2-3.76.32-5.06,2.71-5.2,6.43,0,1-.93,1.88-1.32,2.86-1.84,4.68-3.92,9.22-3.3,14.65,0.32,2.82.94,4.47,3.78,4.35,2.37-.1,2.37,1.31,1.84,3.15s-1.93,2.76-3.27,3.88c-5.08,4.25-6,7.46-4,14,0.47,1.57,1.09,3,.31,4.63s0.27,2.56,1.41,3.46c1.73,1.37,3.92,2.15,5.05,4.31,2.36,4.51,5.38,8.78,6.91,13.59A236.59,236.59,0,0,0,717.7,884.8c1.45,3,3.66,5.95,2.45,10-0.52,1.72.86,3.39,1.84,4.85a43.28,43.28,0,0,0,13.87,12.9c5.62,3.42,11.8,6.09,15.17,12.62,4.29,2.33,5.71,6.2,5.29,11.11a9.37,9.37,0,0,0,.32,1.56c0.74,7.32,1.27,14.7-.12,21.94a84.44,84.44,0,0,0-1.84,18c0.16,6.15-.77,12-1.58,17.93-1,7.26-4.81,14.07-3,21.79a3.32,3.32,0,0,1-.41,2.06c-2.35,4.39-1.78,9-.92,13.59,1.07,5.77-.55,11.2-1.83,16.73-1.33,5.76-3.9,11-5.69,16.51-1.13,3.49-1.43,7.37-4.48,9.87a2.25,2.25,0,0,0-.58,2.48c1.51,3.21.25,6.8,1.41,10,1,2.86.41,5.34-1,8.11-2.21,4.23-3.82,8.9-.36,13.5-3.59,1.75-4.11,5.13-4,8.8,0,1.65-.7,4,1.94,4,2.15,0,2-2,2-3.55a23.62,23.62,0,0,1,2-9.16c1.06-.32,2.48-1.93,3.06-0.66,0.66,1.45,2.18,3.18,1.09,5a14.25,14.25,0,0,0-1.31,4.5c-0.86,4-.47,8.32-1.56,11.89-1.53,5-2,10.2-3.59,15.13-1.5,0-2.27-.79-2.94-2.27-1-2.15-3.58-1.84-4.1-.6-1,2.51-4.06,3.09-4.71,6.06,3.45-1.32,6.07.88,8.88,1.64,1.11,0.3.89,1.5-.31,2.3-1.76,1.17-2.16,2.6-1,4.86a8.3,8.3,0,0,1,.51,5.46,2,2,0,0,1-2.29,1.61,7.84,7.84,0,0,0-.7-4.67c-0.69-1.26-1.44-1.83-2.82-1.35s-2.33,1.31-2.22,3.07,1.23,1.84,2.48,1.48,1.32,0.62,1.56,1.45c0.71,2.93-2,4.55-2.61,6.83,1.51,1.47,2.2-.92,3.14-0.31s-0.34,2.64,1.49,2.64c0.8-.65.38-1.32,0.25-2-0.31-1.53.27-2.72,1.74-2.32,1.31,0.36.66,1.71,0.32,2.69-1.39,4.08,0,7.5,1.79,11.11,1.18,2.35,3.37,4.65,2,7.92a2.91,2.91,0,0,0,.68,3.43c1.05,0.91,1.06,2.13,1,3.38h0s0,0,0,0c-0.61.19-1.47,0.21-1.61,0.95-0.65,3.41,3.63,7.48,6.61,6.28,1.18-.48,1-1.6.57-2.64-0.71-1.59-2.75-1-3.56-2.44h0l0,0a4.1,4.1,0,0,0,3.1-1,12.64,12.64,0,0,1,6.58-3c-0.14,3.88-3.52,3.22-5.39,4.7a8.43,8.43,0,0,0,1.36,1.32c4.47,2.37,5.28,1.93,6.56-3.24,0.55-2.23,1.11-4.58,4-4.56l0.88-.73,3.17,0-3.17,0-0.89.73a6.49,6.49,0,0,1-.08,1.07C755,1201,755,1201,759.66,1201a2.3,2.3,0,0,1,.87.43c-3.57,3.32-3.57,3.32-1.26,7.07-4.2-.5-8.05.85-12.08,1.7,2.17-.2,3.06,2.16,4.89,2.46l0.19,0.23a1.82,1.82,0,0,0,2.57.55,7,7,0,0,1,3.26-.8l0.3,0.39a3.31,3.31,0,0,0,2.27,3.17c4.82,2.12,9.39-.55,14.09-0.82,0.76-2.63,2.43-2,4.3-1.64,2.46,0.45,4.65-.88,7-2-4.45-.72-7.7-3.85-11.53-5.63-3-1.37-4.11-4.58-6.48-6.5,0.11-5.41-3.57-5-6.88-5.07,0.71-4.28,3.89-1,5.89-2.29-0.94-2-2.35-3.75-3-6-1.78-6.44-1.28-8.29,4.45-10.86,2-.91,3.22-2.22,3.39-4.15,0.39-4.38,3.1-6.49,6.23-8.39a32.1,32.1,0,0,1,3-2c2.93-1.36,1.85-4.3,2.09-6.51s-2.1-1.7-3.39-2.22a18.75,18.75,0,0,1-3.26-1.34c-4.21-2.76-4.59-5.71-2-10.2,1.39-2.4,3.43-3.25,5.61-4.09,1.57-.6,3.57.28,4.45-2.49,0.61-2,2.15-3.58,1.8-5.91-0.4-2.66.89-4.48,2.7-5.95,1.09-.89,2.15-1.27.88-3.18-1.12-1.69.39-2.17,1.69-1.8,0.75,0.21,1.32,1.06,2,1.49a1.52,1.52,0,0,0,2.24-.32,3.34,3.34,0,0,0-.1-4c-0.63-.79-1.4-0.28-2.2.15-2.44,1.28-4.54.35-5.22-2.22-0.23-.85-0.09-1.79-0.26-2.67-0.35-1.88-1.76-4.08-.09-5.53s3.76,0.18,5.46,1.08a10.19,10.19,0,0,0,6.37.83,6.29,6.29,0,0,0,4-2.14c1-1.11.32-2.33,0-3.54-0.37-1.49.36-2.85,0.87-4.11a5.37,5.37,0,0,0,0-4.6,2.37,2.37,0,0,1,.4-3c7.54,1.24,14.82-.37,22.08-2.67,6.48-2,7.91-8.62,11.23-13.49a2.33,2.33,0,0,0,.07-1.06c0.1-2.76-2.79-2.78-3.73-4.68-1.09-2.21,1.72-4.47-.31-6.61a13.13,13.13,0,0,0-4.07-3.09c-2.66-1.2-3.38-3.22-2.33-6.55,2.2,3.35,5.92,3.1,8.58,4.89,4,2.71,8.42.92,12.49,2.15,0.66,0.2,1.56-.5,2.33-0.82,4.15-1.7,5.87-5.59,7.49-9.56l-0.36-.41L859,1047a5.18,5.18,0,0,0,3.83-4.54c1.38-2.78,2.82-5.51,3-8.79a5.18,5.18,0,0,1,1.31-3.33,11.35,11.35,0,0,0,3.57-6.15c0.36-1.29.79-2.3,2.32-2.15,1.94,0.19,1.65,1.79,1.82,3.11,1.23-.46,1.64-1.56,2.07-2.76,1.86-5,3.72-10,8.09-13.29a4.85,4.85,0,0,0,1.72-3.78c-0.06-3.54,1-7,.37-10.61-0.84-5.05,0-9.58,3.88-13.47,2.66-2.68,5.71-4.83,8.31-7.56a8.42,8.42,0,0,1,4-2.2,14.85,14.85,0,0,0,7.94-5.07c1.19-1.41,2.5-1.5,4.05-1.49,3.21,0,6.43,0,9.64-.16,0.62,0,1.71-.33,1.77-0.67,0.59-3.21,2.84-4.6,5.21-6,1.1-.65,1.29-2,1.22-3.34-0.14-2.87,1.05-5.07,2.65-7.31,2.11-3,2.73-6.88,5-9.86a2.85,2.85,0,0,0,.1-2.6c-1.14-3.43.16-6.29,1.87-9a8.91,8.91,0,0,0,1.49-4.49c0.28-7.14,1.68-14.2,1-21.41a57,57,0,0,1,0-8.07c0.19-3.36.86-4.08,3.9-5.5a4.21,4.21,0,0,0,1.76-1.83c1.14-2.19,2.59-4.37,3.08-6.74,0.81-4,3.23-6.41,5.61-9.18,3.83-4.44,7.44-9.07,9.45-15,2.84-8.37.48-16.24-1.47-24.17-0.55-2.23-2.15-3.93-4.43-3.61-5.89.84-9.47-3.07-12.66-7.19-2.41-3.11-5.4-5.24-8.25-7.71a9.23,9.23,0,0,0-8.94-2.2c-3.35.95-6.34,0-9.17-1.4-2.67-1.29-5-2.35-8-1.13-2,.8-4.05.3-4.11-2.89,0-2.26-1.6-3.42-3.19-4.44-4-2.6-8.36-4.41-12.62-6.41-2.42-1.13-5.13-.72-6.21,1.59-1.79,3.84-5.27,5.91-8.11,10.14,0.57-2.35-.7-2.89-1.36-4.08a27.62,27.62,0,0,0,3.11-1.74,10.29,10.29,0,0,0,4.28-7c0.15-1,.29-2.51-0.8-2.85a24.18,24.18,0,0,0-6.43-1.2c-3.86-.11-6.44,1.79-7,6.17a1.78,1.78,0,0,1-.77.55c-2.95-4.24-3.08-5,.07-8.17,1.89-1.9,3.08-4.22,4.49-6.42,2.17-3.36,2.33-4-.47-7.35-2.4-2.88-3.36-6.2-4.25-9.71a21.46,21.46,0,0,1-.88-5.27c0-1.1-.14-2.49-1.11-2.83-3.25-1.16-4.58-4.45-6.82-6.7-5.33-5.34-11.54-8-18.69-6.93-5.38.79-9.86-.19-13.26-4.78-1.33-1.8-3.91-2.12-4.44-4.82-0.81-4.13-3.5-6.55-6.69-8.86-3.45-2.49-6.94-2.34-10.85-1.45,0.63-1.4,1.15-2.32,1.49-3.31,1.38-4,.58-6.29-3.4-6.77-3.53-.42-5.26-2.49-6.92-5.19,0.58-1.05,2-.09,2.62-1.42-1.43-1.88-3.08-.14-4.59-0.21a9.11,9.11,0,0,0-6.65,2.11c-3.62,2.9-7.66,3.43-11.05-1-1.09-1.43-2.77-1-4.25-.79-1.32.2-2.6,0.66-3.92,0.8-2.44.27-4.46,0.21-5.35-3.23-0.76-3-3.19-4.24-6.25-4.38-2.84-.12-5.21,1.05-7.69,2.1-5.57,2.35-6,3.21-3.68,9.1,0.75,1.92,1.22,3.75.41,5.68s-2.71,2-3.47.34c-1.1-2.42-2.21-5-.39-7.6a5.65,5.65,0,0,0,.08-6.94c-1.3-2-.81-3.28,1.15-4.22a7.74,7.74,0,0,0,1.72-1.09,2.29,2.29,0,0,0,.88-2.81,2.55,2.55,0,0,0-2.93-1.56,4.32,4.32,0,0,0-2,1.54c-1.84,2.38-4.24,4-6.47,5.91-1.23,1-2.35,2.11-4,1.38-1.94-.84-2.8.21-3.29,2-0.29,1.08-1,1.59-1.78.7-1.43-1.62-2.29-.48-3.32.51-2,1.93-2.6,4.53-2.91,7.22a6.84,6.84,0,0,1-2,4.42c-2.37,2.57-5.87,4.87-5.18,10.62a60.31,60.31,0,0,0-6.18-8.45c-2.47-2.62-5.77-2.67-8.77-3.59-2.07-.64-3.35,1.1-4.86,2.2a28.23,28.23,0,0,1-4.84,2.73,6.68,6.68,0,0,1-7.84-1.68c-1.94-2.69-4.4-4.91-6.1-7.75-2.59-4.29-4.43-8.79-3.43-14.16,0.5-2.71,1.41-5.5,1.42-8.09,0-3.3.19-6.38,1.56-9.28,1-2.21-.33-4.18-0.21-6.3,0.11-2-1.69-1.81-2.92-2.26a1.87,1.87,0,0,1-1-1.11c-1-3.56-4-3.56-6.5-3.86a16.8,16.8,0,0,0-7,.46c-4.73,1.43-9.61-.16-14.43.35-1.68.18-2.37-1.24-1-2.85,1.25-1.45,2.9-2.76,2.62-5-0.54-4.26,2.17-8.41.25-12.7-0.3-.66.32-1.73,1-1.38,3.11,1.73,2.66-.87,2.87-2.58,0.3-2.46-.07-4.94.72-7.44a23.36,23.36,0,0,1,3.36-6.51c1.54-2.2.83-6.37-.56-6-2.92.83-5.62-1.41-8.33-.15a22.52,22.52,0,0,1-6.76,1.8c-3.34.43-5.65,2.54-5.41,6,0.43,6.22-3.53,10.18-5.71,15-0.61,1.36-1.85,1.46-3,.43-1.68-1.56-3.4-1.34-5-.06a7.43,7.43,0,0,1-3.79,1.14c-2,.3-8.6-1-10.59-1.39-5-.87-6.69-4.65-8.13-9a21.45,21.45,0,0,0-2.53-4.62c-3.63-5.75-5.88-12-5.67-19.09,0.14-4.78.67-9.54,0.65-14.31,0-2.53-.39-4.73,2.09-6.43,1.16-.8,1.49-2.69.75-4.43a22.62,22.62,0,0,1-1.25-4.08c-1.57-7.33,2.49-14.63,9.2-16.43a7.62,7.62,0,0,0,5.48-5c0.28-.73.09-1.9,1.4-1.77,4.5,0.44,9-3.56,13.52,0a1.45,1.45,0,0,0,1.44,0c2.8-2.52,4.59-.2,6.33,1.59,1,1,1.74,2.35,3.32,1.5a8.06,8.06,0,0,1,9.09.62c-2.38-2.92-1.69-8.09-6.59-8.86,4.22,0.61,7.92-1.64,11.81-1.05a21.3,21.3,0,0,0,8.61-.17c3.58-.95,6.35.57,8.38,3.06s3.34,2.72,5.77.82,4.14-1.54,6,1a23.19,23.19,0,0,0,3.55,4.5,5.31,5.31,0,0,1,1.66,6.25,10.34,10.34,0,0,0,1.89,10.06c3.16,3.95,4.1,9.1,7.25,13,1.5,1.84,4,2.55,4.9.35,1.53-3.75,2.75-8,1.64-11.92-1.78-6.29-3.68-12.58-5.76-18.77a65.85,65.85,0,0,1-2.4-9.82c-0.92-5.35,2.35-9.41,4.4-13.81,2.71-.32,4.29-2.62,6.17-4.26,3.51-3,6.39-6.7,10.45-9.31,3-1.92,5.47-4.83,9.2-5.6-1.94-2.86-1.75-3.9.81-4.26,1.52-.21,2.77-0.73,2.82-2.38,0.08-2.2-1.81-1.54-3-1.89-0.32-.09-0.61-0.24-0.93-0.37,4-3.07,3.82-2.95,1.09-7.41-0.57-.93-2.24-2.51-0.65-4.68a3.44,3.44,0,0,0-1.43-5c1.62-2.24.53-5.28,1.57-7.9,1.64,1.11,1.42,2.43,1.41,3.63,0,1-.71,2.23.28,3,2.26,1.8,1.84,4.34,1.88,6.78,3.37-3.86,5.09-8.14,3-13.42a1,1,0,0,1,0-.46c2.39,0.92,4.16.87,5.69-2,1.42-2.71,2.87-5.12,1.51-8.5,3.61-.44,6.94-0.42,9.78-2.42h-5.86c3.41-2.31,7.67-1.92,10.43-3.7,3.24-2.1,6.55-.8,9.63-2.39a4.3,4.3,0,0,1-2.83-2.2c-2.82-4.6-.3-12.66,4.62-14.28,1.45-.48,3.25-0.62,4.07-1.87,1.67-2.56,4.17-2.8,6.55-3.33s5.09-.46,6.09-3.72a1.59,1.59,0,0,1,1.71-.85c3.83,0.06,7.11-1.77,10.43-3.46,0.58-.29,1.59-1,1.76-0.35,0.85,3.15,3.57.64,4.93,2a1,1,0,0,1-1,1c-4.44-1.34-7,2.6-10.26,4.32-2.06,1.07-2.48,4.27-1.34,6.1,1.42,2.29,3,2.6,5.58.93a8.24,8.24,0,0,0,2.66-2.4c2.11-3.52,5.35-4.47,8.88-5a12.79,12.79,0,0,0,3.39-.93c3.67-1.72,8.58-1.68,9.35-7.66,0.12-.92,1.84-2.49,2.51-0.83,1.13,2.78,2.06,1.59,3.2.38,1.46-1.54.79-2.37-.89-3-1.26-.46-1.08-1.61-0.72-2.69s0.83-2-.35-3.27c-3.06,1.91-4.82,5-6.08,8.41-0.32.86-.43,2-1.44,1.74-3.38-.84-7,0.33-10.23-1.12-6.12-2.76-10.1-4.86-8.64-13.69,0.25-1.48-.67-1.91-1.86-1.45-2.67,1-4.63.1-6.74-2.63,1.27,0,2-.24,2.55,0,3.15,1.7,5.47-.08,7.74-2s2-4.39-.8-5.66a13,13,0,0,0-9.35-.64,122.54,122.54,0,0,0-12.29,4.67c-4.51,2-7.46,6-11.23,8.86l0,0c2.82-7.13,7.5-12.1,14.61-14.08,1.86-.51,2.72-1.83,3.57-3.43a7,7,0,0,1,6.21-3.94c8.53-.15,17.06-0.37,25.6.19,6.13,0.41,12.67.59,17.05-5.14,2.81-3.69,6.44-4.33,10.17-4.68,3-.28,5.33-2,7.87-3.26,1.45-.74,2.06-2.4,1.1-3.55-1.46-1.73-.65-3.38-0.46-5,0.42-3.62.5-3.59-2.81-4.67a14.25,14.25,0,0,1-4.18-1.66c-4.63-3.48-6.77-3.75-10.94-.12-2,1.78-4.57,2.15-6.7,3.57a1,1,0,0,1-1.57-.71c-0.35-.93-0.47-1.67.74-2,2.72-.69,4.85-2.81,7.76-3.32,2.68-.46,5.2-1.92,7.76-2.94-0.37-1.74-1.69-1.72-2.44-1.81-4.3-.55-8.07-3.07-12.33-3.64-0.76-.1-2,0.19-1.93-1.06,0.2-2.87-2.13-2.82-3.52-3.85s-2.81-1.91-4.21-2.88c-1.2-.84-1.56-2.5-0.76-3.24,3-2.77.82-4-1-5.6a4.46,4.46,0,0,1-1.58-1.85,43.8,43.8,0,0,0-7.84-12.49,85.16,85.16,0,0,1-7.58-9.58c-1,2.58-3.68,4.05-3.95,6.17-1,8-7.76,7.63-12.27,10.45-0.93.58-2.25,0.06-3.19-.95-2.06-2.2-4.34-3.92-7.5-3.45-0.72.1-1.6-.53-1.28-1.16,1.1-2.2-1.13-3.12-1.38-4.78-0.5-3.39-1.36-6.77.65-10.07-2.93-.42-5.86-0.65-8.68-1.32-1.56-.37-3.49-0.44-4.45-2.17-1.83-3.3-5.17-4.33-7.89-6.3-2.31-1.67-4.71-2.59-7.51-1-1.45.84-3.07,0.69-4.83,0.46-4.31-.54-8.57-1.32-12.83-2.18-2.75-.56-6.23,1.61-5.43,3,2,3.42.83,7.26,1.86,10.44,2.44,7.52,2.85,7.36-2.31,12.86-0.24.25-.5,0.48-0.73,0.74-1.58,1.68-1.31,3.22.47,4.41,1.41,0.95,3,1.59,4.43,2.52,7,4.53,7.89,12.82,2.09,19a16.36,16.36,0,0,1-4.91,3.68c-2.44,1.15-4.91,2.28-7.44,3.19-2,.72-2.39,2.22-1.43,3.72,1.78,2.77,2,5.94,3,8.95,1.43,4.62,2.62,8.88,0,13.5-1.35-1.16-3-1.91-4.27.52s-3.4,1.35-4.21.17c-3-4.32-7.81-6.72-10-11.71l0,0,0,0h0c-1.76-4.25-1.56-8.86-2-13.32-0.34-3.54-.69-4.53-3.95-4.82s-6.69-.13-10-0.22c-1.47,0-3.13.45-4.31-.86-2.62-2.92-6.26-3.23-9.56-4.31-1.61-.53-3.37-0.75-4.56-2-5.32-5.73-12.77-5.74-19.24-8.36a4.49,4.49,0,0,0-1.94.13c-2.31.19-4.85,2.51-6.69,1-1.6-1.27-2-4.26-2.89-6.52-1.45-3.77-3-7-7.87-6.24a3.79,3.79,0,0,1-4.34-3.54c-0.43-3.79-.31-7.83,1.56-11,3.16-5.28,6.41-10.72,11.29-14.39,1.64-1.23,3-4.12,6.14-2.66,1.16,0.53,3.14-.8,4.67-1.47,1.2-.51,1.14-1.41.5-2.58-0.49-.89-2-0.24-2-1.65,2.1-.92,5,0.94,6.29-2.22,0.86-2.14,2.14-2.33,4-1.68a7.82,7.82,0,0,0,8-1.59c1.69-1.46,3.35-3,5-4.5a2.28,2.28,0,0,0,.59-3.31c-7,1.27-13.54-1.14-19.54-5a17,17,0,0,1,12.23,2.89c2.78,1.93,5.64,1.8,8.54.1a24.62,24.62,0,0,0,5.27-4.53c-0.39-1.43-2.44-1.11-2.44-2.91,4.4-.16,4.4-0.17,8.35,1.49,2.11,0.89,4.3.46,6.45,0.37,1,0,1.14-1.07,1.36-1.91,1.38,0.62,2.63,1.19,4.25.33,2.68-1.44,5.51-2.49,8.08-4.22,3.3-2.24,3.46-3.18.42-5.64-1.59-1.29-3.38-2.37-3.42-4.9,1.55-1.38,3.87-1,5.51-2.85-1.54-1-.4-3.37-2.26-4.17a50.64,50.64,0,0,0-16.66-4.46,19.44,19.44,0,0,0-4,.11c-1.7.24-2.38,1.87-1.64,3.56a3.34,3.34,0,0,0,1.87,1.65c2.4,1.14.7,2.85-.17,2.89-2.87.17-4,1.63-4.56,4.45-0.21.94-1.53,3.41-3.25,1.2-0.8-1-1.09-2.44-2.49-1-0.94,1-.3,1.84.37,2.77,1.85,2.58,1.8,2.66-.78,3.95-2.27,1.14-8.16-2.54-8.41-5.28a1.93,1.93,0,0,1,1-2.22c3.25-1.37,1.29-3.18,0-4.31s-3.22-1.88-4.84-2.8c-1.87-1.07-3.23-.39-4.21,1.42-0.75,1.4-1.35,2.89-2.13,4.27-0.6,1.07-2,1.59-2.37.44-0.72-2.38-3.25-4.81-2.75-6.43,1-3.11-.86-2.19-2-2.69-2.6-1.16-5.71,1.27-8.07-1.43a9.67,9.67,0,0,1,4.55-3.28c-2.81-2.83-6.65-4.44-7.86-8.77-0.29-1-1.48-1.4-2.4-1.82-1.93-.88-3.87-1.73-6.39-2.86,2.13-1.38,4.82-2,4.93-4.45,0.1-2.27,1.13-2.09,2.51-2.13,2.5-.08,5.26,1,7.42-0.44a115.24,115.24,0,0,0,9.17-7.47c-0.23-1.13-.67-1.54-1.14-1.52-7.36.24-14.61-1.41-22-1.41-3.57,0-4.47,3.65-7.32,4.1a2.29,2.29,0,0,0-.4,1.46c0.07,2.28-.18,4.47,1.45,6.56,2.46,3.17,2.06,4.17-.58,7-1.18,1.26-1.62,3.23-4,2.79-1-.18-1.84,1.09-1.84,2.19,0,2.39-.25,5,0.46,7.12,0.78,2.39,3.46,2.55,5.51,3.21a28.56,28.56,0,0,0,3.48.4c3.74,0.7,4.14,1.56,2.87,5.66a2.52,2.52,0,0,0,.14,1c0.65,0.66,1.22.22,1.78-.16,0.8-.55,1.67-1.68,2.46-0.26a2.07,2.07,0,0,1-.9,2.75,32.6,32.6,0,0,1-4.33,2.65c-1.66.77-3.94,0.71-5,1.95-1.53,1.7,1.2,3.92.43,6.08a4.6,4.6,0,0,1-.7.89,3.72,3.72,0,0,0-3.61-2.45,1.57,1.57,0,0,1-1.4-2.28c1.58-3.09-.06-3.69-2.35-4.58-1-.39-3.07-0.23-3.1-3.29,4,2.83,7,.17,10.68-1.1-2.15-1-3.76-2-4.46-3.93-0.39-1.08-.77-2.07-2-1.92-2.49.31-4.52-.94-6.69-1.91-1.38-.62-3.27-1-4.07.69-1.46,3.17-4.09,4.29-7,5.8l9.14,2.35c-0.4,1.48-.65,2.55-2.07,2.28-0.68-.12-1.29-0.81-1.8.73-1.42,4.31-2,4.69-6,3.66a17.69,17.69,0,0,0-8.4,0,19.94,19.94,0,0,1-11.88-.72,16.68,16.68,0,0,0-6.37-1.16c-3.39,0-6.83-1.27-8.86-3.88a5.93,5.93,0,0,0-6.08-2.51c-3.15.35-6.28,0.87-9.42,1.39a4.68,4.68,0,0,0-1.84.8,2,2,0,0,0-.81,1.22,1.59,1.59,0,0,0,1.07,1.61c1,0.52,1.91.08,2.89-.23,2-.61,4-1.15,6.08-0.15a38.49,38.49,0,0,1-5,1.85c-1.6.59-2.82,1.5-1.22,3.45a5.12,5.12,0,0,1,.85,4.06c-0.1.87-.28,1.89-1.42,1.79a1.17,1.17,0,0,1-1.11-1.45c0.67-2.36-1-2.73-2.35-3.32a25.64,25.64,0,0,0-3.6-1.47c-3.1-.73-5.75-3.13-9.41-2.06-8.53,2.5-17.3,1-26,1a1.71,1.71,0,0,1-1.87-1.41c-0.1-1,.81-1.45,1.43-2,1.33-1.28,3.69.24,4.91-2-3.41-2.5-7-4.76-10.84-3.66-4.35,1.25-8.36.21-12.35-.73-3.24-.77-6.43-1.86-9.75-2.24-3.54-.41-6.67-2.27-10.06-3.14-3.69-.95-7.67-1.95-11.09.48-4.73,3.36-6.17,3.12-8.44-2.39a2.33,2.33,0,0,0-.78-0.6c-1.52.1-2.2,1.5-3.08,2.49-2.63,2.95-4,3.21-7.23,1.21a16.29,16.29,0,0,1-3.68-3.63,11,11,0,0,0-4.47-3.37c-0.93-.36-1.46-0.38-2.21,1-1.79,3.32-4.28,5.91-8.5,4.13a8,8,0,0,0-2.95-.1c0.12-1,2-.92,1.46-2.24-4.54-.62-8.62,1.07-12.73,2.51-3,1-6.3.66-9,2.8-0.73.58-2,.3-2.89-0.3-4.22-2.82-8.45-.6-10.91,2.08-3,3.32-5.62,2.67-8.83,1.95a53.69,53.69,0,0,1-12.46-4,11.61,11.61,0,0,0-5.84-1.14,31.41,31.41,0,0,1-13.66-2.44,22.09,22.09,0,0,0-6.83-1.35c-3.07-.22-6.12,1.71-8.91.89-6.21-1.83-12.6-1.39-18.83-2.64s-12.48-2.18-18.89-.82c-2.27.48-5.09,0.19-6.64-2.42-0.8-1.34-1.88-1.33-3-1.34-2.33,0-4.7-.39-7,0.5-1,.38-2.28.79-2.91,0.13-2.75-2.82-5.39-1.91-7.92.15-0.92-1.06,1.32-2.74-1.31-3.22s-4.8-.93-7.1.8a17,17,0,0,1-6.08,2.44c-3.59,1-7.94-1.62-10.82,2.67-3.2-1.15-5.78,1.74-8.71,1.64-4.91-.17-8.17,2.35-10.79,6.38a7.58,7.58,0,0,1-5,3.35,48.31,48.31,0,0,1-8.94,1.09c-2.77,0-4.43,1-5.18,4,2.61,2,5.91,2.26,8.81,3.59,2,0.91,4.62,1.31,5.66,3.24,1.95,3.6,4.82,3.22,7.82,3.3,1.63,0,4.09-.82,4.71.78,1.34,3.43,3.73,2.25,5.91,2.42,1.07,0.09,2.35-.44,3.25,1.13-0.86,1.16-1.93,1-3,.68-0.79-.25-1.64-0.78-2.33,0-3.72,4.3-8.51,2-12.84,2.41-1,.1-2.23-0.12-2.42-1.39-0.65-4.13-3.1-2.8-5.33-2.15-3.57,1-7.07,2.35-10.68,3.3-2.88.76-6.31,1.19-8.49,4.09C169.7,280.46,173.06,278.62,175.72,279.86Zm736,530.08h0a2.36,2.36,0,0,0,.39-0.89A2.36,2.36,0,0,1,911.69,809.94ZM857.12,1043.5a2.22,2.22,0,0,0-.08,2.29A2.22,2.22,0,0,1,857.12,1043.5Zm-91.2-653.09a1.93,1.93,0,0,0,2.2-1.47A1.93,1.93,0,0,1,765.92,390.41ZM726,482l-0.2-.08Zm-55.82-56h0Zm1.6,3.24a2.69,2.69,0,0,1-.69.42A2.69,2.69,0,0,0,671.74,429.26Zm8.9-1.11a40.13,40.13,0,0,1-8-1.08A40.13,40.13,0,0,0,680.64,428.15Zm-8-1.09h0a1.48,1.48,0,0,0-.87-0.84A1.48,1.48,0,0,1,672.67,427.06Zm-76.46-40.9h0a13,13,0,0,0-1,4.71A13,13,0,0,1,596.21,386.17Zm0-.08a4,4,0,0,1-2.37-.42A4,4,0,0,0,596.17,386.08Zm-0.94,5.77q0,1,.08,2Q595.24,392.84,595.23,391.86Z"/></clipPath><clipPath id="clip-path-11" transform="translate(4.59 -123.3)"><rect class="cls-1" x="41.62" y="-3695.57" width="2466.71" height="9777.83"/></clipPath><clipPath id="clip-path-12" transform="translate(4.59 -123.3)"><path class="cls-2" d="M604.83,167.15c2.93,1.84,5.59,5.14,9.3,4.29,3.92-.91,7.87.16,11.73-0.81a1.38,1.38,0,0,1,1.91,1.34c-2.4,1.79-5.86-.55-8.56,2.18,4.83,3.06,9.33,5.78,14.82,6.11,3.78,0.23,7.45-1.29,11.14-.82,3.24,0.42,6.26.33,8.94-1.64,2.26-1.66,4.8-2.24,7.34-2.94l0,0a2.47,2.47,0,0,1-1.51,2.46c-0.69.44-1.42,1-.9,2.11a1.52,1.52,0,0,0,1.69.8c3.34-.51,6.47,1,9.75,1.09,0.72,2.15,2.4,3.18,4.15,4.15l-0.21.28c-2.13-.21-4.45.56-6.28-1.17-4.11-3.88-8.67-1.77-13.71-2a9,9,0,0,0,5.15,5,21.85,21.85,0,0,1-4.13.36,23,23,0,0,0-7.76,2,1.89,1.89,0,0,0-1.21,2.1,1.77,1.77,0,0,0,1.61,1.78c4.8-.37,9.59,1.26,14.34.21a11,11,0,0,1,4.34.08c3.72,0.58,7.54,2.35,11.14-.55a2,2,0,0,1,1.45-.21,35.51,35.51,0,0,0,12.63,0c2-.34,4.39-0.9,6.08,1.36a2.73,2.73,0,0,0,2.34.72c5.09,0.1,9.79-2,14.67-3a1.4,1.4,0,0,0,1.18-1.94,1.84,1.84,0,0,0-2-1.31c-1.15.17-2.26,0.64-3.41,0.77A1.5,1.5,0,0,1,709,188.6a1.37,1.37,0,0,1,1.38-1.76c1.69-.12,4-0.08,4.6-1.59,1.34-3.39,3.72-3,6.18-2.9s5-.75,7.35-1.47a9.24,9.24,0,0,0,5.32-3.86,9.57,9.57,0,0,0,1.19-6.53,23.39,23.39,0,0,0,9.57-2.18c2.87-1.24,6.81.47,10.27-.15a12.67,12.67,0,0,0,3.22-1.49,72.79,72.79,0,0,1,18.29-6.9c5.23-1.09,10.21-3.3,15.64-3.52a5.15,5.15,0,0,0,4.45-2.58c-4.61.72-8.47,1-12.33,0.27,10.87-2.2,22.29-1.05,32.68-6.31-5.38-1.66-11.26-.38-16.17-3.88a0.88,0.88,0,0,0-.49,0c-4.51.15-9-.48-13.53,0.37-1,.2-2,0.45-2.91-0.15-2.44-1.66-5.16-1.19-7.81-1.34-3.83-.2-7.65.2-11.48-0.9a11.54,11.54,0,0,0-7,.28,4.72,4.72,0,0,1-3.4.17,13.74,13.74,0,0,0-9.83.48,8.72,8.72,0,0,1-4.82.37,54.51,54.51,0,0,0-18,0,35.77,35.77,0,0,1-8,.38c-4.42-.21-8.74-1.41-13.31,0-1.91.6-3.92,2.45-5.47,1.93-3-1-4.81.66-6.84,2.08-1.29.9-2.34,1.8-4.09,1.14a24.68,24.68,0,0,0-21.22,1.26,3.43,3.43,0,0,1-3,.09c-2.65-1.14-5.23-.66-7.87,0a36.84,36.84,0,0,1-11.41,1.26,9.29,9.29,0,0,0-6.39,1.77c1.44,2.06,3,1.16,4.2.42,2.49-1.48,2.31,3.47,4.67,2.06a1.58,1.58,0,0,1,.76.39c-1.39,3.21,1.23,2.22,2.47,2.82,7.28,3.58,15.24,1.37,22.8,3,3.94,0.84,8.63,1.81,12.59-1.32a2.33,2.33,0,0,1,1.9.26c3.66,1.81,7.57,1.14,11.39,1.33a25.22,25.22,0,0,1,6.75-1.53l1.53-.16-1.53.16a25.22,25.22,0,0,0-6.75,1.53l0,0c-2.16,1.9-4.72.77-7.09,1-1.71.18-1.19,1.18-1,2.17h0c-6-1.79-12.2-.6-18.23-2-3.19-.73-3.71,0-4.14,3.55-0.23,2-1.72,2.17-2.26,1.1-1.14-2.24-3.46-2.51-4.92-4.22-2-2.41-2.73-2.14-5.66.46-2.37,1-3.26-2.41-5.33-2.13-4.84.66-8.72-2-12.68-4.22-4.52-2.59-9.24-2.54-14.32-2,1,1.44,2.62,0,3.19,1.92a63.67,63.67,0,0,0-7.1.08c-1.23.14-4.43-1.67-2.94,2.5,0.23,0.64-.58.72-1,0.66-2.55-.39-4.34,1.18-6.21,2.75,0.92,0.92,2.38,0,3.23,1.05-0.81.85-1.86,0.27-2.77,0.54-1.14.34-1.38,1.44-.64,1.91M726.56,144.6a0.89,0.89,0,0,0-1.2.06h0a0.89,0.89,0,0,1,1.2,0m-1.2.19s0,0.1,0,.14,0-.09,0-0.14"/></clipPath><clipPath id="clip-path-14" transform="translate(4.59 -123.3)"><path class="cls-2" d="M811.38,271.9a3.61,3.61,0,0,0,2.84-.79,2.24,2.24,0,0,0,.94-2.29,1.77,1.77,0,0,0-1.53-1.2,8.48,8.48,0,0,0-2.47-.46c-2.53.21-5.39,1.88-6.75-2.12-2.82.76-4.12-1.77-6-3.12-1.65-1.19-3.51-2.87-5.41-2.48-4.36.87-7.74-1.2-11.22-3.25a8.46,8.46,0,0,0-4.75-1.46,3.37,3.37,0,0,1-3.28-1.25c0.22-1.43,3.17-1.88.89-4.24,4.92,1.14,4.92,1.14,8.34-.1-2.45-2.19-5.44-1.61-8.16-2.33,1.69-2.18,4.52.42,5.93-2-0.81-2.23-2.81-2.51-4.38-3.43-2.14-1.27-2.92,3.1-5,1.55-0.81-1.88,1.76-2.22,1.22-3.92-2.15-.84-4.14-1.9-6.71-1.11a5.51,5.51,0,0,1-5.55-1.46c-1.34-1.46-2.74-1-4.18-1.09l-0.16-.19c0.05-1.26.18-2.51-1.31-3.07-2.55-.95-5.07-1.78-7.67-0.08-2,1.29-4,2.06-5.54-.74-0.79-1.43-1.87-1-3.05-.66a11.32,11.32,0,0,0-3.26,1.71c-0.34-2.43,1.27-2.23,2.08-2.93s0.85-1.86-.11-2.13c-4.14-1.16-7.44-5.44-12.31-3.84,1.34-2.18,1.16-3.7-1.14-5.21a21.38,21.38,0,0,0-11.43-3.37c-3.67-.11-7.38.55-11-0.69-1.36-.46-2.23.14-2.84,1.43-0.45.94-.7,2.06-1.73,2.55-0.27-2.4-1.65-3.09-3.77-3.41-6.67-1-12.78,2-19.14,3a6.06,6.06,0,0,0-3.89,3.16c-0.72,1.48.34,2.58,0.67,3.89,0.48,1.9-1.09,3.59-2.48,4.71-0.9.74-1.86-.36-2.53-1.16-1.45-1.75-.12-4.26-1.58-6.33-0.63-.91,1.71-2.8,3.1-3.71,1.91-1.26,4-2.22,7-3.88-4-1-7-.67-9.92-0.66-7.69,0-14.34,2.36-19.17,9.45a9.82,9.82,0,0,0-1.28,8.61c0.61,2.13,3.3,2,5.26,2.22a33.86,33.86,0,0,0,4,.09,7.36,7.36,0,0,1,5.57,1.85,9,9,0,0,1-5.49-.17,15.19,15.19,0,0,0-3.46-.44,1.66,1.66,0,0,0-2,1.18c-0.23,1,.53,1.56,1.23,2.09,2.11,1.57,4.65,2.84,7,2.76,4.46-.15,8.52.95,12.8,1.81a41.72,41.72,0,0,0,12.79.72,12.54,12.54,0,0,1,5.95.64c3.13,1.16,6.51-1.27,9.66.54,0.91-4.53,3.65-.38,5.34-1.27a1.56,1.56,0,0,1,1,.1c0.45,0.12.56,0.39,0.36,0.69-0.62.84-2.08-.08-2.51,1.68a2.9,2.9,0,0,0,4,.2c1.65-1.78,5.07-.5,5.58-3.66,0.36-2.31,1.36-1.49,2.77-1.5,2.71,0,3.86,2.45,5.87,3.45,3.24,1.62,6.51,3.19,9.83,4.8-1,1.45-2.3.66-3.33,1.07-0.81.31-1.65,0.72-1.53,1.8,0.14,1.26,1.19,1.14,2,1,2.13-.42,4.25-0.89,6.34-1.5,1.07-.31,2-0.38,2.72.6a8.76,8.76,0,0,0,5.46,3.2c4.76,1.14,6.87,5.26,8.92,9.6-3,2.06-5.53,4.06-8.29,5.7-4.32,2.57-4.36,2.46-.36,6a2.23,2.23,0,0,1,.12,1c-5.78,1.63-11.62,3.18-17.54,1.14-2.65-.91-4.29-0.39-6.06,1.86-1,1.27-3.26,1.68-2.62,4s2.74,2.38,4.48,2.93a7.6,7.6,0,0,0,1.5.14c5.1,0.48,9.86-3.31,15.08-1.41a1.75,1.75,0,0,0,.45-0.21c2.58-.63,5-0.85,7.28,1.26a57.6,57.6,0,0,0,5.37,4c1.2,0.88,2.6.53,3.89,0.82,3,0.66-.26,2.58.62,3.66a3.33,3.33,0,0,0,.79.65c1.51,1,3.53,1.07,4.19,3.4a1.58,1.58,0,0,0,2.23.64c3.15-1.82,5.4-.18,8.2,1.41,5.2,3,11.45,2,17,4.08a1.39,1.39,0,0,0,1.7-.8,1.77,1.77,0,0,0-.68-2.31,47.71,47.71,0,0,0-9.92-6.21,16.65,16.65,0,0,1-5.47-3.9,1.18,1.18,0,0,1,1.56-.6q8.6,3.39,17.18,6.86c1.22,0.49,2.11,1.25,3.51-.15s-0.09-4.87,3.09-4.8a2.18,2.18,0,0,0-.09-1c-2.63-3.16-4.39-8.36-8-9.1-5.71-1.15-8.18-6.65-13.18-8.23,1.22-1.75,3.35.14,4.09-2,1.14-3.31,1.58-3.71,3.86-2.47,2.94,1.6,6.22,2.8,8.43,5.56a11.71,11.71,0,0,0,10.76,4.76c1-1.47.06-3.27,0.89-4.81,1.56-.12,3.34.77,4.69-0.66,1-1,3.43-1.38,1.86-4-0.27-.45.64-0.53,1.09-0.53m-112.29-46a3.57,3.57,0,0,1,.13-0.52,3.57,3.57,0,0,0-.13.52m0.61-2.49h0c0-.78.06-1.55,0.08-2.33,0,0.78-.05,1.56-0.08,2.33m0,0.25a3.09,3.09,0,0,1-.22,1,3.09,3.09,0,0,0,.22-1m21.13-1.29-3.06.07c-1,1.36-2.39.91-3.66,1l-0.25,0,0.25,0c1.28-.08,2.68.37,3.66-1l3.06-.07a2.27,2.27,0,0,0,1.86,1.05,2.27,2.27,0,0,1-1.86-1.05m2.12,1.07h0m0.8,0h0"/></clipPath><clipPath id="clip-path-16" transform="translate(4.59 -123.3)"><path class="cls-2" d="M430.9,228.72c3.85,1.05,7.94,1.48,10.67,5.25,1,1.43,2.6,1.36,4.16.86a35.6,35.6,0,0,1,9.27-2.06c1.36-.07,3.41-0.24,3.92-1.9,1.65-5.48,7.07-5.41,10.51-8.18a10.16,10.16,0,0,1,8.1-1.81c-4.81.28-5.68,5.8-9.26,7.63-0.8.4-.76,2.16,0.08,2,3-.55,4.76,3.08,7.56,2.37,1.89-.48,3.61.15,5.4,0.19-1.28,1.66-3.09.89-4.67,1.13s-3.24.36-4,2.49c5,2.93,10.36,1.92,15.38,2.15,3.58,0.17,7.33-.52,11-0.39,4.25,0.15,8.53.71,12.48,2.78-10.94,1-22.07-1.63-33.28,2.33a11.65,11.65,0,0,0,9.56,5.6c3,0.17,6,0,9,.07,1.58,0,3,.31,3.59,2.23,1.27,4.22,4.47,4.62,7.71,3.91a38.08,38.08,0,0,1,9-.71,50.42,50.42,0,0,0,11.43-1.34c1.95-.41,3.58-2,5.71-1.87a8.6,8.6,0,0,0,7-2.33c0.78-.77,1.73-1.27,2.74-0.69,6.61,3.77,13.73,4.38,21,4a8.65,8.65,0,0,0,3.94-.64c0.73-.39,1.65-0.68,1.33-1.86a2.59,2.59,0,0,0-1.64-1.86c-1.47-.55-2.79,1.38-4.8-0.21,3.08-1.2,5.2-4.11,8.72-2.15,0.67,0.37,1.65.1,2.49,0.12a1.51,1.51,0,0,0,1.82-1.35,1.73,1.73,0,0,0-1.43-1.85c-3.47-1.27-6.88-2.73-10.56-3.27a14.34,14.34,0,0,1-7-2.76c-0.93-.73-2.29-1.55-1.75-2.92,0.88-2.24-.36-3.32-1.54-4.6-1.65-1.8-3.23-3.81-3.61-6.3-0.35-2.28,2.11-3,3.11-4.57,1.18-1.86.83-3.24-1.19-3.39-3.16-.24-6.35-0.09-9.53,0a1.86,1.86,0,0,0-1.07.87c1.43,3.43-1.27,2.07-2.39,2.28a20.81,20.81,0,0,1-3,0c-3.13.1-3.8,1.19-2.57,4.4,0.7,1.82,1.6,3.56,2.46,5.3,0.51,1,.83,2-0.36,2.74a2,2,0,0,1-2.75-.35,8,8,0,0,1-1.4-2.21c-2.42-6-7.56-6.7-12.69-7.92,0,2.15,2.74,2,2.12,4.29-2.06.15-5.13,1.2-6.11-.17-2.39-3.32-5.73-2.44-8.58-3.52a4.56,4.56,0,0,0-5.53,1.26c-1.41,1.68-3.18,1.72-5.11,1.29,0.48-1.57,3-2.46,1.45-4.5a3.64,3.64,0,0,0-4.58-1c-0.92.39-2,.32-2.93,0.69a15.92,15.92,0,0,1-6.9.8c1.15-1.77,3.19-.59,4.58-1.56,0.94-.66,1.75-1.77.36-2.37-5.24-2.27-10.34-5.58-16.27-4.58a29.57,29.57,0,0,1-14.22-1.23c-7.83-2.52-15.32.64-22.75,0.21-0.47,3.12,2.18,3.56,2.73,5.59-3.7,2.25-4.51,7.08-8.07,9.37a2.72,2.72,0,0,0-1.45,3.12c0.41,1.29,1.67.86,2.59,1.11"/></clipPath><clipPath id="clip-path-18" transform="translate(4.59 -123.3)"><path class="cls-2" d="M1253.67,172.13c2,0.69,3.64,1.41,4.29,3.76a1.52,1.52,0,0,0,1.2.85c3.38-.12,5.08,4.27,8.67,3.62a1.41,1.41,0,0,1,1.36,1.33c0.43,1.92,1.85,1.68,3.19,1.79s2.7-.48,4.07.55c-1,.8-1.86.5-2.67,0.57s-1.87-.18-2,1,0.89,1.88,1.89,2c4.22,0.61,7.88,2.9,11.76,4.49,1.6,0.65,3.11,1,3.95-.74,2.41-5,7.32-6.79,10.94-10.23,1.06-1,1.22-2.6,3-3.28,3.83-1.47,6.81-.39,9.6,2.22,0.83,0.78,2.26,1.07,2.31,2.6,0,1.17-1.7,1.43-1.52,3.11,2.49,0,4.93-.48,7.14.1,5.5,1.43,9.35.71,13.66-3.3-2.29-.78-5.2.92-6.92-2s-5.35.12-7.16-2.69c-1.07-1.66-3.69-.11-4.45-1.82-1.07-2.41-2.8-2.28-4.61-2.21-6.11.22-10.79-4.75-16.7-5.22-2.24-4.19-6.54-1.51-9.6-3.2-1.05-.58-2.62.5-3.35,1.79-0.63,1.11.29,2,.82,2.87,0.4,0.68,1.32,1.11.91,2.31-2.08.59-2.95-1.17-3.91-2.51a6.09,6.09,0,0,0-4.83-2.4c-1.45-.11-2.79,1.21-4.36.94l-0.14-.18c-0.12-.72-0.36-1.69-1.08-1.56a55.26,55.26,0,0,1-12.37.7c-1,0-2.22.77-3.19,1.43-1.45,1-1.45,2.68.15,3.24M1280.61,183a2.1,2.1,0,0,0-.8-0.43,2.1,2.1,0,0,1,.8.43"/></clipPath><clipPath id="clip-path-20" transform="translate(4.59 -123.3)"><path class="cls-2" d="M1076,294.23c4.06-1.56,8.39-2.06,12.31-4.06,1.79-.91,3.76-2,5.65-2,3.76,0,5.93-3,8.72-4.69,2.08-1.27,1.86-4.84-.33-5.75-2.44-1-4.07-3-6.14-4.39s-4.7-1.79-7.12-2.47c-0.83-.24-1.43.7-2.15,1.09a12.61,12.61,0,0,1-8,1.67c-2.38-.33-4.83-0.06-7.26-0.16-2.1-.08-4,3.34-6.59.9a1,1,0,0,0-.78.45c-0.72,3.34-4,2.36-5.63,4.49-0.61-1-1.22-1.54-1.29-2.17-0.56-4.29-3.93-5-6.85-6.1-0.82-.32-2.13-0.41-1.91,1.41,0.06,0.54-.24,1.35-0.65,1.21-4.12-1.43-4.94,3-7.58,4.28a2.42,2.42,0,0,0,3.39,1,11.3,11.3,0,0,1,4.94-.63c1.08,0,2.7-.44,2.74,1.38,0,1.44-1.29,1.83-2.53,2.07-2.2.44-4.38,1-6.64,1.54,0.7,1.62,1.51.84,2.21,0.69,2.78-.62,5.31.26,7.7,1.63,2.17,1.25,2.18,2.1.26,3.85-0.56.52-1.67,0.46-1.56,1.83,4.5,0,8.87.22,13.28,1.88,3.68,1.38,8,2.57,11.8,1.1"/></clipPath><clipPath id="clip-path-22" transform="translate(4.59 -123.3)"><path class="cls-2" d="M634.53,207.12a8.8,8.8,0,0,1,5.29.7,10.36,10.36,0,0,0,6,.41c3.1-.46,5.87-2.24,9.13.71,1.46,1.32,4.85.71,7.32-.1a14,14,0,0,1,4-.46c5.73-.21,11.58,1.13,17.15-1.4a2,2,0,0,1,1.83.32c6.5,2.77,12.75,1.7,19.12-.95,1.89-.79,1.43-1.79,1.72-3,0.43-1.81-.69-2.12-1.84-2.53a35.08,35.08,0,0,0-10.76-2.12c-9-.32-18-0.4-26.75,2.58a3.16,3.16,0,0,1-2.44-.06c-4.27-2-8.82-.35-13.26-1.18a17.86,17.86,0,0,1-8.9-4.09c1.22-1,2.68.12,3.69-1.61-2.6.21-4.69-.75-6.85-1.73-2.6-1.19-5.31-1.91-8.28-.78a8.35,8.35,0,0,1-6.41-.2c-5.84-2.68-12-2.83-18.18-2.69-1.32,0-2.73,0-3.61,2.24,6.43,3.23,12.73,5.37,19.8,3.39,2.71-.76,4.45,2.08,6.62,3.31,1.95,1.1.63,2.71,0.56,4.21-0.14,3.12,2.15,5.48,5.13,5.07"/></clipPath><clipPath id="clip-path-24" transform="translate(4.59 -123.3)"><path class="cls-2" d="M476.72,202.61c3,2.46,6.56,1.76,9.33,1.76,3.63,0,8,2.31,11.3-1.45a1.26,1.26,0,0,1,1.82-.24c2,2.52,4.8.64,7.6,1.72-3.33,1.46-6.92,1-10.14,3a6,6,0,0,0,3.5,1.87c5.53,0.45,11.18.57,16.41-1.36a46.32,46.32,0,0,1,22-2.4c2.22,0.26,4.31-.39,6.39-0.84s4.91-4.58,4.63-5.84c-0.43-1.91-4.47-3-7.16-1.92q-7,2.79-10.49-3.86c-1.71-3.23-2.93-3.68-6.09-1.95-1.68.92-3.25,2.08-5.68,3.66,4.21,0.48,4.8,4.51,7.81,5.49-3.51.79-6.81,0.1-10.11,0.1A6.3,6.3,0,0,1,514,199c-3.49-2.3-7.18-4.86-11.53-4.33-1.91.23-3.52,0.68-5.11-.86-0.93-.89-2.22-0.64-3.38-0.67-7.26-.19-12.4,3.95-17.21,9.44"/></clipPath><clipPath id="clip-path-26" transform="translate(4.59 -123.3)"><path class="cls-2" d="M860,423c0.89,0.45,2.14-1.56,3.1.68s2.71,1.49,3.84-.4c1.33-2.22,1.06-3.92-.86-6.59-0.6-.84,1.08-1.92-0.11-2.8-1.38.24-1.87,2.5-3.38,2.14-0.74-3,2.21-3.48,2.79-5.49-3.37-1-3.39-1-2.37-5a1.42,1.42,0,0,0-.7-1.75c-1.16-.65-2.35-1.46-3.77-0.77-2.87,1.41-5.51-.71-8.29-0.64a0.83,0.83,0,0,1-1-.91c1.47-4.46-1.9-2.75-3.54-3.24l-0.29-.31c0.33-2.25,1.89-3.76,3-5.5s0.36-4.42,3-5.36c-4.68-1.24-7.52,1.38-9.72,4.75a66.63,66.63,0,0,0-5.17,9.8c-1.29,2.95-2.89,5.51-5.46,7.22-0.84.55-1.53,0.93-.67,1.86,1.14,1.24.16,1.86-.48,2.61-0.79.92-1.79,1.83-1.07,3.23s2.06,0.82,3.17.89c6.85,0.42,13.78-1.07,20.56,1l0.1,0.12c-0.34,2-2.77,1.86-3.43,3.93,5.42,1.77,6.57-5.38,10.79-5.69,1.81,2-.67,4-0.06,6.22"/></clipPath><clipPath id="clip-path-28" transform="translate(4.59 -123.3)"><path class="cls-2" d="M1125.65,385.09c2.66,1.72,5.33,2.78,8.49,1.15s6.35-3.37,9.71-4.17c2.5-.6,4.32-1.16,5.33-3.9,0.89-2.4,1.71-4.65.6-7.19-0.34-.8-0.59-1.64-0.92-2.55a16.25,16.25,0,0,0,2-1.73c0.86-1,2.73-2,2-3.34-1-1.76-1.71-4.52-3.57-4.87-4-.75-8.17-1.61-12.17.38-1.42.71-3,2.33-2.73,3.36,1.33,4.41-1.37,3.32-3.39,3.21-0.81,0-1.65-.66-2.4-0.52-1.44.27-3.15,0.63-2,3,0.29,0.63.71,1.39,0.22,2-1.46,1.85-.12,2.36,1.12,3,0.89,0.46,2-.06,3,1.09-2,2.21-2.19,5.76-5.51,7.19-1.44.62-1.42,2.73,0.31,3.85"/></clipPath><clipPath id="clip-path-30" transform="translate(4.59 -123.3)"><path class="cls-2" d="M728.14,632c3.87,1.5,6.94-.15,10.28-1.89a12.49,12.49,0,0,0-4.37-3.84c-4.3-2.49-8.84-4.44-13.08-7.17-3.9-2.5-7.6-5.91-12.42-6.58a3.93,3.93,0,0,1-2.22-1.12c-5.44-5.2-11.91-4.75-18.47-3.87-5.51.75-10.23,2.73-12.36,8.87,0.45,0.57,1.39,1.09,1.69.74,2.24-2.59,5.85-2.33,8.2-4.8,1.53-1.61,6.37-1.54,6.37-.48,0,3.4,2.53,3.36,4.1,3.48a20.35,20.35,0,0,1,8.51,2.78c1.32,0.71,2.92,1.59,4.25,1.36,2.28-.39,3,0.87,3.68,2.61,0.9,2.22,2.11,3.88,4.63,4.35,3.22,0.6,3.18.78,1.6,4.32a6.88,6.88,0,0,0-.28,1.48c1.53,1,3,.62,4.43.12a8.12,8.12,0,0,1,5.44-.37"/></clipPath><clipPath id="clip-path-32" transform="translate(4.59 -123.3)"><path class="cls-2" d="M577.71,222.31c-1.8.15-3.22-.77-4.74-1.49-1.19-.57-2.26-1.7-3.72-1.23-0.94.3-2,.64-2.2,1.91a1.82,1.82,0,0,0,1.31,2c1.52,0.71,2.86,1.83,4.6,2,5.14,0.57,9.56,3,13.56,6.35,1.49,1.26,3.87,2.63,4.93,1.53,2.62-2.7,5.87-2.17,8.79-3.15A5.66,5.66,0,0,0,604,224a1.39,1.39,0,0,0-1.16-1.5c-2.9-.1-4.82-3.39-8.44-2.27,1.49-2.22,3.09-2,4.11-2.87,1.51-1.34,1.17-2.45-.41-4-2.64-2.53-5.44-2-8.42-1.2-1.74.46-3.26,1.61-5.29,1.22a10.08,10.08,0,0,0-9.76,3.21c0.81,1.62,2.28,1.23,3.56,1.38,1,0.12,2.17.44,2.15,1.73,0,1.64-1.05,2.42-2.66,2.55"/></clipPath><clipPath id="clip-path-34" transform="translate(4.59 -123.3)"><path class="cls-2" d="M698.62,293.73c0.78-.62,1.85-1.1,1.65-2.4-0.18-1.12-1.17-1.07-2-1.22-2.66-.48-5.91.15-6.46-4.22-0.07-.57-1.25-1.16-2-1.41-3-1-5.8-2.78-8.8-3.62-2.18-.62-4.39-3.28-7-1a2.43,2.43,0,0,1-1.06-.91,1,1,0,0,1,.65-1.61c0.78-.24,1.86-0.33,1-1.63-0.49-.7-1.2-1.43-2-0.45a2,2,0,0,1-2.24.71c-2.56-.73-3.19,1.1-3.7,3.12-0.3,1.2-.56,2.42-0.89,3.61-1,3.65-3.08,7.82-5.24,10a9.15,9.15,0,0,0,1.89.6,12.52,12.52,0,0,0,4.45-.61c1-.37,2-0.43,2.5.9s0.34,2.92,2.23,3a6.22,6.22,0,0,0,3.83-1,56.68,56.68,0,0,0,5.85-4.06c2.84-2.42,4.09-3,6.75-.78,2.42,2,5.22,2.17,7.81,3.22a2.67,2.67,0,0,0,2.85-.24"/></clipPath><clipPath id="clip-path-36" transform="translate(4.59 -123.3)"><path class="cls-2" d="M579.61,191.26c-1.27-.31-2.67-0.51-3.67.84-1.43.46-2.85,1-4.3,1.38-2.77.72,1.32,2.85-1,3.82-1.07-.69-2.51-0.75-3.81-1.8-2.39-1.94-5.28-2.92-8.14-3.89-1.2-.41-2.41-0.62-3.09.72-0.55,1.09.43,2,.89,2.87a3.64,3.64,0,0,0,4.28,2c1.14-.21,2.28-0.52,3.43-0.64a1.13,1.13,0,0,1,1.4,1.07c0.49,2.69.54,2.79,1.32,2.88,1.32,0.14,2.67,0,4,.2,3.72,0.44,7.34-1.18,11.28-.78-0.8,1.21-2.56,1.25-2,3a2.66,2.66,0,0,0,2.66,2c2.18,0,4.36.14,6.52,0,2.82-.19,6.67,1.36,6.75-4.08,3.35-2,.65-4.72.34-6.85-0.34-2.3-3-2.22-4.69-1.86C587.62,193.08,583.64,192.23,579.61,191.26Zm0.5,3.9-0.06.08Z"/></clipPath><clipPath id="clip-path-38" transform="translate(4.59 -123.3)"><path class="cls-2" d="M1299.88,167.92c6,1,11.82,3.59,18.12,2.74,1.92-.26,4.07-0.64,5.84.76,2.09,1.67,4.49,1.36,6.76,1.12a64.14,64.14,0,0,0,18.13-5.12c0.61-.25,1.36-0.37,1.44-1.22a1.66,1.66,0,0,0-1.52-1.78,9.87,9.87,0,0,0-2.48-.25c-3.5-.06-7,0.1-10.41-1s-7.08,2.49-10.43-.68a2,2,0,0,0-1.84.51c-2.37,2.29-4.93,1.67-7.73,1.23-2.16-.34-4.27-0.5-6.25-1.56-0.92-.5-2.09-0.93-2.89-0.39-3.19,2.17-6.88,1.63-10.45,2.19a4.3,4.3,0,0,0,3.71,3.48"/></clipPath><clipPath id="clip-path-40" transform="translate(4.59 -123.3)"><path class="cls-2" d="M738.71,645.24c1.16,1.1,2.42.57,3.7,0.68,4.09,0.37,8.77-2.13,12.07,2.6a1.44,1.44,0,0,0,1.33-.07c1.42-3.39,4.47-2.46,6.87-3.43,2.87-1.16,5.33-1.61,8.13-.55a2,2,0,0,0,2.6-1c0.86-1.47-.33-2.23-1.06-3.16-1.12-1.42-2.94-.9-4.34-2.25-4.19-4-8.82-7.53-15.09-5.21-1.46.53-2.93,0-4.4-.54-1.73-.59-3.6-1.08-5.44,1.8,5.4,0,3.18,5.19,5.94,8.29-3.7.49-6.5,0.51-9.27-.34-1-.31-2-0.67-2.5.73s0.74,1.73,1.47,2.42"/></clipPath><clipPath id="clip-path-42" transform="translate(4.59 -123.3)"><path class="cls-2" d="M449.09,197.43c4,0.34,8.13-1.87,11.93,1a0.93,0.93,0,0,0,1-.09c2-2.32,4.85-2.09,7.22-3.22,1.6-.75,2.33-3,4.51-3.72,0.84,1.68,1.93,5,3.72,3.63,3-2.35,9.4,0,9-7.06,3-1.43,1.42-1.88-.39-2.55s-3.51-1.18-5.17.33c-1.43,1.31-3.12,1.11-4.77.76a18.91,18.91,0,0,0-12.55,1.8c-4.68,2.29-9.37,4.5-14.58,5.05-1.4.15-2.77,0.74-2.6,2.58s1.58,1.41,2.74,1.5"/></clipPath><clipPath id="clip-path-44" transform="translate(4.59 -123.3)"><path class="cls-2" d="M556.29,174.5c2-.69,2.74.86,3.91,2.32-2.46.6-4.63-.28-7.81,1.1,2.77,1.15,4.41,2.11,6.48,1.7,5.16-1,10.25-.35,15.4.43,2.62,0.39,4.33,2.6,6.88,2.94,2.72,0.37,5.44,1.23,7.3-1.7-3.88-3.52-7.32-7-12.64-7.28-2.37-.14-4.66-1.81-7.21-0.55a1.72,1.72,0,0,1-1.87-.35c-4.62-3.68-9.93-2.26-15-2.34-1.2,0-2.34.38-2.43,2.44,2.36,0.22,4.38,2.19,7,1.29"/></clipPath><clipPath id="clip-path-46" transform="translate(4.59 -123.3)"><path class="cls-2" d="M595.49,179.71c2.92,1.86,5.68,4.35,9.54,2.79,0.48-.19,2.49-0.73,1.9.93-0.78,2.17.28,2.15,1.51,2.16,4,0.06,8,0,12.06,0a2,2,0,0,0,2-1.74c-3.57-.32-7-1.29-10.61-0.75,1.16-4.12,1.1-5-1-5.52-4.73-1.05-9.5-1.86-14.27-2.61-1.2-.19-2.95-0.56-3.28,1.43-0.27,1.64,1,2.56,2.17,3.3"/></clipPath><clipPath id="clip-path-48" transform="translate(4.59 -123.3)"><path class="cls-2" d="M1236.27,471.38c1.4,3.25.64,6.67,0.81,10,0.15,2.94,1.27,3.41,3.86,2.51,3.18-1.1,4.62-3.08,4.15-6.7a7.61,7.61,0,0,1,.56-4.25c0.16-2.07-1-3.66-2-5.25a1.31,1.31,0,0,0-1.79-.47,14.17,14.17,0,0,1-5,2.35,1.31,1.31,0,0,0-.63,1.79"/></clipPath><clipPath id="clip-path-50" transform="translate(4.59 -123.3)"><path class="cls-2" d="M1475.7,160.76c-1,3.58-4.4,1.14-6.47,4.21a11.88,11.88,0,0,1,7,0,6.68,6.68,0,0,0,5.4-.42c3.43-2.22,7.16-2.6,11-2.69,1.45,0,3.06.35,4.52-1.81-5.27-1.2-10-3.36-14.41,1.4a2,2,0,0,1-3.12-.57c-1.46-2.49-3.76-2.26-5.84-2-4.71.61-9.39,1.54-14.11,2.34,5.41,2.89,10.65-.3,16-0.51"/></clipPath><clipPath id="clip-path-52" transform="translate(4.59 -123.3)"><path class="cls-2" d="M504.15,185.3c5.35,2.33,10.76,1.5,16.15.16a1.57,1.57,0,0,0,.93-1.05c-0.68-2.71,2.33-1.47,2.91-3.68-6.76-1.3-13.1.49-19.47,0.92a1.91,1.91,0,0,0-1.78,1.61,1.82,1.82,0,0,0,1.25,2"/></clipPath><clipPath id="clip-path-54" transform="translate(4.59 -123.3)"><path class="cls-2" d="M605.88,202.82c-0.52.39-1.33,0.44-1.29,1.36a1.74,1.74,0,0,0,1.66,1.68c3.46,0.38,6.79,1.93,10.1,1.39,1.27,0,2.26,0,3.26,0s2.09,0,2.4-1.38a3.34,3.34,0,0,0-.64-3,7.76,7.76,0,0,0-1.58-1.25c-4.91-3.34-9.48-2.1-13.91,1.2"/></clipPath><clipPath id="clip-path-56" transform="translate(4.59 -123.3)"><path class="cls-2" d="M725.63,265.34a11.36,11.36,0,0,0,5.92-1.56c2.66-1.38,3-5.06.84-6.55-2.39-1.62-9.55-1-11.46,2.15-1.28,2.15-1.08,4.07,1,5.37,1.07,0.69,2.24.55,3.74,0.59"/></clipPath><clipPath id="clip-path-58" transform="translate(4.59 -123.3)"><path class="cls-2" d="M268.67,334.18c-2.14-1.31-4.34-1.39-5.31.32-1.51,2.66-3.59,3.21-6.06,3.72a14.43,14.43,0,0,0-3.63,1.81c-1.43.78-1.27,1.89-.56,3.12,1.3,2.27,3,2.77,5.42,1.81a40.85,40.85,0,0,0,6.52-3.56c2.39-1.5,1.75-2.55,0-3.86a0.93,0.93,0,0,1,0-1.48c0.76-1.05,2.55-.1,3.61-1.88"/></clipPath><clipPath id="clip-path-60" transform="translate(4.59 -123.3)"><path class="cls-2" d="M391.45,366.74c-2.35,0-4.17-.07-6,0-2.43.12-3.38,1.47-2,3.27,2.58,3.34,4.09,7.82,8.27,9.58,0.4-4.18-1.8-8.15-.31-12.87"/></clipPath><clipPath id="clip-path-62" transform="translate(4.59 -123.3)"><path class="cls-2" d="M370.35,336.59c-2.34-.28-4.62-2.44-7.4-0.23,4.23,7.23,7.75,11.58,10.64,13.14a14.31,14.31,0,0,0-3.3-10.59c-1.29-1.6,2.3-2.06.06-2.32"/></clipPath><clipPath id="clip-path-64" transform="translate(4.59 -123.3)"><path class="cls-2" d="M1253.58,361.15c2.73,2.26,4,2.28,5.37-.1,1-1.65,1.71-3.42,2.56-5.14,0.56-1.14,1.09-2.4.25-3.49-1.07-1.39-2-.46-2.82.55s-1.49.24-2.28,0.15a2.88,2.88,0,0,0-3.24,1.84c-0.51,1.5.48,2.72,1.47,3.69a13.13,13.13,0,0,0,1.75,1,1.87,1.87,0,0,1,0,.9c-1,.63-2.31-1-3.07.62"/></clipPath><clipPath id="clip-path-66" transform="translate(4.59 -123.3)"><path class="cls-2" d="M526,178.89c0.06-1.27-.19-1.67-0.68-1.91-4.32-2.16-16.47-1.05-21.34,2.23,7.69-.34,14.9.4,22-0.32"/></clipPath><clipPath id="clip-path-68" transform="translate(4.59 -123.3)"><path class="cls-2" d="M813.16,405.18a1.73,1.73,0,0,0-.52-1.34c-4.5-2.62-9.13-4.79-14.47-3.68,2,1.33,3.92,2.63,5.86,4,2.34,1.64,5.17,1.21,7.69,2.12a1.15,1.15,0,0,0,1.45-1.08"/></clipPath><clipPath id="clip-path-70" transform="translate(4.59 -123.3)"><path class="cls-2" d="M689.79,297.88a42.77,42.77,0,0,0-7.26,1.43,3.06,3.06,0,0,0-1.73,3.49c0.34,1.63,1.76,1.25,2.88,1.34,2.94,0.24,4.9-1.88,7.08-3.42a1.55,1.55,0,0,0,.6-1.83,1.38,1.38,0,0,0-1.58-1"/></clipPath><clipPath id="clip-path-72" transform="translate(4.59 -123.3)"><path class="cls-2" d="M1241.65,465.11c0.89-.08,1.16-1.11,1.45-2,0.9-2.75,1.48-5.5.44-8.72-5.6,2.34-6.23,3.79-4,8.77,0.44,1,1,2,2.16,1.95"/></clipPath><clipPath id="clip-path-74" transform="translate(4.59 -123.3)"><path class="cls-2" d="M1339.71,515.41c1.73-.13,3.64.51,5.47-1.29-4.94-2.74-10.15-1.56-14.74-3.49a1.05,1.05,0,0,0-1.58.68,1.32,1.32,0,0,0,.74,1.74c3.35,0.86,6.53,2.63,10.1,2.37"/></clipPath><clipPath id="clip-path-76" transform="translate(4.59 -123.3)"><path class="cls-2" d="M1383.57,517.61c2.71,1,4.79-.37,6.92-1.89,1.17-.82,1.71-1.79,1.22-3.1-0.57-1.5-1.75-.19-2.6-0.34a7.88,7.88,0,0,0-6.14,1.77,2,2,0,0,0-.87,2.29,2,2,0,0,0,1.47,1.27"/></clipPath><clipPath id="clip-path-78" transform="translate(4.59 -123.3)"><path class="cls-2" d="M713.79,644.07c3,4.93,6.92,4,10.63,3.84a0.91,0.91,0,0,0,1-.93,2,2,0,0,0-.58-1.33,11.24,11.24,0,0,0-11-1.58"/></clipPath><clipPath id="clip-path-80" transform="translate(4.59 -123.3)"><path class="cls-2" d="M782.7,642.83a2,2,0,0,0-2.08,1.82,3,3,0,0,0,1.64,3c2.2,1.14,5.55-.08,7.85-3.09a11,11,0,0,0-7.41-1.72"/></clipPath><clipPath id="clip-path-82" transform="translate(4.59 -123.3)"><path class="cls-2" d="M389.55,361.81c-0.89-4.67-2.32-8.56-6.64-10.4h0L382.2,351l0.35,0.77c-1.56,4.3.09,6.58,7,10"/></clipPath><clipPath id="clip-path-84" transform="translate(4.59 -123.3)"><path class="cls-2" d="M800.21,423.06c-0.33-.75-0.83-0.55-1.14-0.17a1.89,1.89,0,0,0-.43,1.4c1.22,4.5,5.5,3.69,8.37,5.27,1.93,1.07,2.55-1.51,4.36-3.48-2.24,0-3.54.08-4.84,0-2.43-.17-5,0-6.32-3"/></clipPath><clipPath id="clip-path-86" transform="translate(4.59 -123.3)"><path class="cls-2" d="M186.37,320.23c-0.1-1.65-1.24-1.9-2.46-2a11.36,11.36,0,0,0-7.47,2.1,11,11,0,0,0,7.69,2.06c1.25-.15,2.33-0.51,2.24-2.18"/></clipPath><clipPath id="clip-path-88" transform="translate(4.59 -123.3)"><path class="cls-2" d="M705.25,302.28c-1.63-.07-3.58,2.18-3.36,3.81a2.43,2.43,0,0,0,2.36,2.24c1.49,0.14,3.5-2.26,3.35-4a2.32,2.32,0,0,0-2.35-2"/></clipPath><clipPath id="clip-path-90" transform="translate(4.59 -123.3)"><path class="cls-2" d="M642.88,187.68c0.87-.12,1.79-0.51,1.76-1.51s-1-1.34-1.84-1.48a5.54,5.54,0,0,0-1.5-.15c-1.56.19-4.21-2.13-4.41,1-0.14,2.07,2.7,2,4.32,2.22,0.67,0,1.17,0,1.67-.1"/></clipPath><clipPath id="clip-path-92" transform="translate(4.59 -123.3)"><path class="cls-2" d="M475.69,196.47c-3.12.31-5.84,0.82-8.33,3.22,5.09,1.56,5.62,1.36,8.33-3.22"/></clipPath><clipPath id="clip-path-94" transform="translate(4.59 -123.3)"><path class="cls-2" d="M556.43,188.22c-3.09-3-5.46-4.77-9.13-4.56,1.69,4.32,4.76,4.49,9.13,4.56"/></clipPath><clipPath id="clip-path-96" transform="translate(4.59 -123.3)"><path class="cls-2" d="M584.3,167.24a1.73,1.73,0,0,0,.5,0c1.87-.52,4.89,3,5.35-0.36,0.37-2.71-3.66-1.09-5.3-2.26-1.28-.28-2.3.15-2.4,1.38s1,1.18,1.86,1.23"/></clipPath><clipPath id="clip-path-98" transform="translate(4.59 -123.3)"><path class="cls-2" d="M557.09,201.06c-1.31.17-2.91,0.56-3,2.28s1.54,1.45,2.64,1.61c1.24-.19,3,0.24,2.88-1.95a2.08,2.08,0,0,0-2.55-2"/></clipPath><clipPath id="clip-path-100" transform="translate(4.59 -123.3)"><path class="cls-2" d="M817.17,703.26c-1.7-.3-2.26,1-2.59,2.46-0.16.68-.26,1.36-0.47,2.4,0.93,0.14,1.4.25,1.88,0.27,2,0.09,2.47-1.26,2.35-3.08-0.06-.91-0.21-1.88-1.17-2"/></clipPath><clipPath id="clip-path-102" transform="translate(4.59 -123.3)"><path class="cls-2" d="M1248.51,359.12c1.06,0.22,2.75.62,3-.91,0.37-2.51-1.3-3.34-3.42-3.27a7.75,7.75,0,0,1-1-.08c-1.14,2-1.16,3.72,1.43,4.26"/></clipPath><clipPath id="clip-path-104" transform="translate(4.59 -123.3)"><path class="cls-2" d="M1206.25,480.69a2.09,2.09,0,0,0-.43-3.23c-2.09-1.58-3.25.07-4.71,2,1.92,0.4,2.81,3.71,5.14,1.22"/></clipPath><clipPath id="clip-path-106" transform="translate(4.59 -123.3)"><path class="cls-2" d="M716.3,597.82a1.78,1.78,0,0,0,.87-2.62c-0.56-1.25-.84-2.7-2.17-3.62-1.31,1.2-1.34,2.8-1.07,4.37,0.21,1.28.84,2.48,2.37,1.88"/></clipPath><clipPath id="clip-path-108" transform="translate(4.59 -123.3)"><path class="cls-2" d="M177.12,372.3c2.43-.24,4.53-0.8,5-3.94-3.93-.51-3.93-0.51-5,3.94"/></clipPath><clipPath id="clip-path-110" transform="translate(4.59 -123.3)"><path class="cls-2" d="M698.35,376.94c-2.36-4.6-4.17-4.71-6.66-.55,2.22-.63,4.32,1.42,6.66.55"/></clipPath><clipPath id="clip-path-112" transform="translate(4.59 -123.3)"><path class="cls-2" d="M743.3,260.07c-2.33-1.36-4-2-5.83-2a1.28,1.28,0,0,0-1.34,1.25,1.3,1.3,0,0,0,1.11,1.48,8.77,8.77,0,0,0,6.07-.75"/></clipPath><clipPath id="clip-path-114" transform="translate(4.59 -123.3)"><path class="cls-2" d="M1151.88,344c-0.75,2.15-4.23,4.42.31,6.36,0.32,0.13.3,1.32,0.33,2,0,1.34,0,2.69,0,4.05,1.11-.11,1.16-1.2,1.57-1.9,0.54-.93,1-2,2.22-1.63,1.53,0.48,1.06,2,1.23,3.15,0.26,1.84-2.11,2.84-1.48,4.71,3.37,2.37,6.53.17,10.27-.21-2.27,2.78-1.32,4.62,1,5.8,1.23,0.62,1.71,1.06,1.38,2.7-0.7,3.59-1.14,4.2-4.58,4.09a18.07,18.07,0,0,1-2.93-.54c-1.51-.32-1.55.89-1.73,1.92-0.15.84-1.12,1.55,0.63,2.3,2,0.87,2,3.18.34,4.4a17.44,17.44,0,0,1-2.77,1.22c-0.89.44-2.07,0.81-1.92,2.15s1.31,1.41,2.33,1.4c3.19,0,5.92,1.36,9.37,3.06-3.13.65-6.07-.62-7.77,2s-4.42,4.07-6.3,6.49c0.89,0.84,1.74,1.1,2.71.24,3.5-3.09,8.81-.13,12.11-4.11,0.26-.31,1.29,0,1.93.19a4.78,4.78,0,0,0,2.42.3,68.39,68.39,0,0,1,15.47-1.66,8.84,8.84,0,0,0,6.6-3.2c-3.33-2.58-3.32-2.57-.61-5.21a14.43,14.43,0,0,0,1.8-1.87c1.76-2.49,1.18-4.65-1.47-6-1.76-.93-3.57-0.78-5.41-0.63a5.48,5.48,0,0,0-.38-0.41c-1.85-4.87-3.13-10.14-8.23-12.64a4.85,4.85,0,0,1-2.49-3.23c-1.06-4.87-4.63-6.54-8.48-7.92,0.69-2.59,2.44-4.41,3.92-6.42,1-1.38,2.5-2.94,1.86-4.69-0.72-2-2.83-1.41-4.45-1.43-2.33,0-4.66,0-7,0l-0.22-.27c0-2.38,1.8-3.21,3.24-4.33a1.56,1.56,0,0,0,.67-1.81c-0.27-.87-0.94-0.82-1.62-0.72a16.36,16.36,0,0,1-3.43.49c-3.83-.26-7.05,0-8.55,4.9-0.47,1.56-2.71,2.54-1.91,4.89-1.32.11-2.07-.82-2.9-1.71a1.14,1.14,0,0,0-1.76.09c-0.58.66-.2,1.27,0.21,1.85,1.14,1.6,2.77,1.81,4.46,1.79"/></clipPath><clipPath id="clip-path-116" transform="translate(4.59 -123.3)"><path class="cls-2" d="M171.35,371.32c-1.64,1.09-3.56,1.91-4.42,4.65,2.62-.21,3.88-2,5.55-3a0.85,0.85,0,0,0,.19-1.32,1.4,1.4,0,0,0-1.32-.29"/></clipPath><clipPath id="clip-path-118" transform="translate(4.59 -123.3)"><path class="cls-2" d="M393.87,381.38c0.72-.9-0.21-1.16-0.69-1.44a3.68,3.68,0,0,0-1.34-.26,5.12,5.12,0,0,0,.81,1.2,1.91,1.91,0,0,0,1.22.5"/></clipPath><clipPath id="clip-path-120" transform="translate(4.59 -123.3)"><path class="cls-2" d="M394.53,354.67a0.71,0.71,0,0,0-1.1-.53,1,1,0,0,0-.34.85,0.71,0.71,0,0,0,1.09.49,1.74,1.74,0,0,0,.35-0.82"/></clipPath></defs><title>north_america</title><g class="cls-3"><g class="cls-4"><g class="cls-5"><rect class="cls-6" y="0.74" width="1337.96" height="686.03"/></g></g><g class="cls-7"><g class="cls-8"><rect class="cls-9" x="743.46" width="380.44" height="207.37"/></g></g><g class="cls-10"><g class="cls-8"><rect class="cls-9" x="144.31" y="159.81" width="36.33" height="23.45"/></g></g><g class="cls-11"><g class="cls-8"><rect class="cls-9" x="1078.77" y="51.17" width="1268.88" height="891.17"/></g></g><g class="cls-12"><g class="cls-13"><rect class="cls-9" x="163.31" y="78.88" width="820.28" height="1023.98"/></g></g><g class="cls-14"><g class="cls-8"><rect class="cls-9" x="600.43" y="8.82" width="229.52" height="72.42"/></g></g><g class="cls-15"><g class="cls-8"><rect class="cls-9" x="639.28" y="81.18" width="189.1" height="111.07"/></g></g><g class="cls-16"><g class="cls-8"><rect class="cls-9" x="424.21" y="75.85" width="165.75" height="65.69"/></g></g><g class="cls-17"><g class="cls-8"><rect class="cls-9" x="1248.47" y="32.87" width="99.16" height="45.69"/></g></g><g class="cls-18"><g class="cls-8"><rect class="cls-9" x="1036.38" y="138.34" width="80.84" height="42.43"/></g></g><g class="cls-19"><g class="cls-8"><rect class="cls-9" x="598.44" y="56.4" width="120.81" height="39.17"/></g></g><g class="cls-20"><g class="cls-8"><rect class="cls-9" x="472.75" y="57.6" width="90.03" height="37.78"/></g></g><g class="cls-21"><g class="cls-8"><rect class="cls-9" x="824.64" y="254.21" width="56.27" height="56.65"/></g></g><g class="cls-22"><g class="cls-8"><rect class="cls-9" x="1120.33" y="225.18" width="45.85" height="47.75"/></g></g><g class="cls-23"><g class="cls-8"><rect class="cls-9" x="671.53" y="474.53" width="80.04" height="44.19"/></g></g><g class="cls-24"><g class="cls-8"><rect class="cls-9" x="563.05" y="79.1" width="54.17" height="40.61"/></g></g><g class="cls-25"><g class="cls-8"><rect class="cls-9" x="656.48" y="142.34" width="56.97" height="40.18"/></g></g><g class="cls-26"><g class="cls-8"><rect class="cls-9" x="551.46" y="58.57" width="59.53" height="32.33"/></g></g><g class="cls-27"><g class="cls-8"><rect class="cls-9" x="1292.19" y="29.53" width="71.14" height="29.07"/></g></g><g class="cls-28"><g class="cls-8"><rect class="cls-9" x="733.17" y="499.42" width="53.69" height="35.1"/></g></g><g class="cls-29"><g class="cls-8"><rect class="cls-9" x="442.36" y="52.28" width="58.9" height="32.09"/></g></g><g class="cls-30"><g class="cls-8"><rect class="cls-9" x="545.3" y="38.1" width="56.31" height="31.17"/></g></g><g class="cls-31"><g class="cls-8"><rect class="cls-9" x="589.3" y="42.35" width="46.36" height="29.15"/></g></g><g class="cls-32"><g class="cls-8"><rect class="cls-9" x="1232.18" y="334.59" width="26.64" height="35.6"/></g></g><g class="cls-33"><g class="cls-8"><rect class="cls-9" x="1455.73" y="26.07" width="54.61" height="25.17"/></g></g><g class="cls-34"><g class="cls-8"><rect class="cls-9" x="498.89" y="47.8" width="38.41" height="24.83"/></g></g><g class="cls-35"><g class="cls-8"><rect class="cls-9" x="600.62" y="67.18" width="34.66" height="26.06"/></g></g><g class="cls-36"><g class="cls-8"><rect class="cls-9" x="716.15" y="123.89" width="30.82" height="27.35"/></g></g><g class="cls-37"><g class="cls-8"><rect class="cls-9" x="248.6" y="200.74" width="33.22" height="30.55"/></g></g><g class="cls-38"><g class="cls-8"><rect class="cls-9" x="378.87" y="234.24" width="26.09" height="31.23"/></g></g><g class="cls-39"><g class="cls-8"><rect class="cls-9" x="358.97" y="202.91" width="27.86" height="32.46"/></g></g><g class="cls-40"><g class="cls-8"><rect class="cls-9" x="1249.3" y="219.26" width="26.06" height="29.46"/></g></g><g class="cls-41"><g class="cls-8"><rect class="cls-9" x="499.98" y="43.4" width="39.16" height="21.69"/></g></g><g class="cls-42"><g class="cls-8"><rect class="cls-9" x="794.19" y="267.39" width="32.13" height="24.79"/></g></g><g class="cls-43"><g class="cls-8"><rect class="cls-9" x="676.76" y="165.39" width="27.85" height="24.63"/></g></g><g class="cls-44"><g class="cls-8"><rect class="cls-9" x="1234.35" y="321.92" width="22.9" height="29.06"/></g></g><g class="cls-45"><g class="cls-8"><rect class="cls-9" x="1324.81" y="378.02" width="33.53" height="23.28"/></g></g><g class="cls-46"><g class="cls-8"><rect class="cls-9" x="1378.04" y="379.43" width="27.01" height="24.39"/></g></g><g class="cls-47"><g class="cls-8"><rect class="cls-9" x="709.81" y="510.83" width="28.75" height="23.14"/></g></g><g class="cls-48"><g class="cls-8"><rect class="cls-9" x="776.63" y="510.28" width="26.63" height="23.66"/></g></g><g class="cls-49"><g class="cls-8"><rect class="cls-9" x="378.03" y="218.57" width="24.68" height="29.11"/></g></g><g class="cls-50"><g class="cls-8"><rect class="cls-9" x="794.65" y="290.08" width="29.88" height="25.59"/></g></g><g class="cls-51"><g class="cls-8"><rect class="cls-9" x="172.46" y="185.76" width="27.06" height="22.59"/></g></g><g class="cls-52"><g class="cls-8"><rect class="cls-9" x="697.89" y="169.81" width="22.87" height="24.4"/></g></g><g class="cls-53"><g class="cls-8"><rect class="cls-9" x="632.91" y="51.43" width="24.89" height="22.22"/></g></g><g class="cls-54"><g class="cls-8"><rect class="cls-9" x="463.38" y="64" width="25.46" height="22.43"/></g></g><g class="cls-55"><g class="cls-8"><rect class="cls-9" x="543.32" y="51.18" width="26.26" height="22.91"/></g></g><g class="cls-56"><g class="cls-8"><rect class="cls-9" x="578.46" y="32.09" width="24.86" height="22.16"/></g></g><g class="cls-57"><g class="cls-8"><rect class="cls-9" x="550.14" y="68.57" width="22.66" height="22.26"/></g></g><g class="cls-58"><g class="cls-8"><rect class="cls-9" x="810.14" y="570.75" width="21.38" height="23.51"/></g></g><g class="cls-59"><g class="cls-8"><rect class="cls-9" x="1242.37" y="222.4" width="22.31" height="22.81"/></g></g><g class="cls-60"><g class="cls-8"><rect class="cls-9" x="1197.13" y="344.37" width="22.85" height="23.11"/></g></g><g class="cls-61"><g class="cls-8"><rect class="cls-9" x="709.83" y="459.11" width="20.75" height="24.74"/></g></g><g class="cls-62"><g class="cls-8"><rect class="cls-9" x="173.15" y="235.67" width="22.11" height="22.5"/></g></g><g class="cls-63"><g class="cls-8"><rect class="cls-9" x="687.71" y="240.91" width="23.79" height="22.12"/></g></g><g class="cls-64"><g class="cls-8"><rect class="cls-9" x="732.15" y="125.62" width="24.31" height="21.29"/></g></g><g class="cls-65"><g class="cls-8"><rect class="cls-9" x="1142.93" y="199.19" width="67.04" height="85.01"/></g></g><g class="cls-66"><g class="cls-8"><rect class="cls-9" x="162.95" y="238.78" width="23.11" height="23.06"/></g></g><g class="cls-67"><g class="cls-8"><rect class="cls-9" x="387.87" y="247.22" width="19.42" height="20.06"/></g></g><g class="cls-68"><g class="cls-8"><rect class="cls-9" x="389.1" y="221.56" width="18.58" height="19.91"/></g></g><rect class="cls-1" x="4.59" y="5.01" width="1328.78" height="677.48"/><rect class="cls-1" x="4.59" y="5.01" width="1314.14" height="677.48"/><rect class="cls-1" x="4.59" y="5.01" width="1314.14" height="677.48"/><g class="cls-4"><g class="cls-5"><rect class="cls-1" y="0.74" width="1337.96" height="686.03"/></g></g></g></svg>