<svg id="page_1_and_page_6" data-name="page 1 and page 6" xmlns="http://www.w3.org/2000/svg" viewBox="0 0 245.69 245.69"><defs><style>.cls-1{fill:#f9ce12;}.cls-2{fill:#edb220;opacity:0.4;}.cls-3{fill:#fff;}</style></defs><title>percent_icon</title><circle class="cls-1" cx="122.84" cy="122.84" r="122.84"/><path class="cls-2" d="M-3356.44,3750.7l64.61,64.57a122.85,122.85,0,0,0,116.14-115.71l-64.54-65.07Z" transform="translate(3421.18 -3569.75)"/><polygon class="cls-2" points="111.73 71.01 138.72 98.01 98.11 138.75 69.95 110.6 77.67 103.29 66.34 90.08 90.82 66.89 103.37 78.93 111.73 71.01"/><path class="cls-3" d="M-3266.65,3706.13a18.17,18.17,0,0,1,18.15,18.15,18.17,18.17,0,0,1-18.15,18.15,18.17,18.17,0,0,1-18.15-18.15,18.17,18.17,0,0,1,18.15-18.15m0-8.67a26.81,26.81,0,0,0-26.81,26.81,26.81,26.81,0,0,0,26.81,26.81,26.81,26.81,0,0,0,26.81-26.81,26.81,26.81,0,0,0-26.81-26.81h0Z" transform="translate(3421.18 -3569.75)"/><path class="cls-3" d="M-3266.65,3753.09a28.84,28.84,0,0,1-28.81-28.81,28.84,28.84,0,0,1,28.81-28.81,28.84,28.84,0,0,1,28.81,28.81A28.84,28.84,0,0,1-3266.65,3753.09Zm0-53.62a24.84,24.84,0,0,0-24.81,24.81,24.84,24.84,0,0,0,24.81,24.81,24.84,24.84,0,0,0,24.81-24.81A24.84,24.84,0,0,0-3266.65,3699.47Zm0,45a20.17,20.17,0,0,1-20.15-20.15,20.17,20.17,0,0,1,20.15-20.15,20.17,20.17,0,0,1,20.15,20.15A20.17,20.17,0,0,1-3266.65,3744.42Zm0-36.29a16.16,16.16,0,0,0-16.15,16.15,16.16,16.16,0,0,0,16.15,16.15,16.16,16.16,0,0,0,16.15-16.15A16.16,16.16,0,0,0-3266.65,3708.13Z" transform="translate(3421.18 -3569.75)"/><path class="cls-3" d="M-3330,3642.76a18.17,18.17,0,0,1,18.15,18.15A18.17,18.17,0,0,1-3330,3679a18.17,18.17,0,0,1-18.15-18.15,18.17,18.17,0,0,1,18.15-18.15m0-8.67a26.81,26.81,0,0,0-26.81,26.81,26.81,26.81,0,0,0,26.81,26.81,26.81,26.81,0,0,0,26.81-26.81,26.81,26.81,0,0,0-26.81-26.81h0Z" transform="translate(3421.18 -3569.75)"/><path class="cls-3" d="M-3330,3689.72a28.84,28.84,0,0,1-28.81-28.81,28.84,28.84,0,0,1,28.81-28.81,28.84,28.84,0,0,1,28.81,28.81A28.84,28.84,0,0,1-3330,3689.72Zm0-53.62a24.84,24.84,0,0,0-24.81,24.81,24.84,24.84,0,0,0,24.81,24.81,24.84,24.84,0,0,0,24.81-24.81A24.84,24.84,0,0,0-3330,3636.09Zm0,45a20.17,20.17,0,0,1-20.15-20.15,20.17,20.17,0,0,1,20.15-20.15,20.17,20.17,0,0,1,20.15,20.15A20.17,20.17,0,0,1-3330,3681Zm0-36.29a16.16,16.16,0,0,0-16.15,16.15A16.16,16.16,0,0,0-3330,3677a16.16,16.16,0,0,0,16.15-16.15A16.16,16.16,0,0,0-3330,3644.76Z" transform="translate(3421.18 -3569.75)"/><line x1="69.22" y1="176.47" x2="176.47" y2="69.22"/><rect class="cls-3" x="-3374.17" y="3690.59" width="151.67" height="4" transform="translate(-155.94 -4820.49) rotate(-45)"/><path class="cls-3" d="M-3352,3750.55a4.32,4.32,0,0,1-3.06-1.27,4.33,4.33,0,0,1,0-6.13l107.25-107.25a4.33,4.33,0,0,1,6.13,0,4.33,4.33,0,0,1,0,6.13l-107.25,107.25A4.32,4.32,0,0,1-3352,3750.55Z" transform="translate(3421.18 -3569.75)"/><path class="cls-3" d="M-3352,3752.55a6.29,6.29,0,0,1-4.48-1.85,6.34,6.34,0,0,1,0-9l107.25-107.25a6.34,6.34,0,0,1,9,0,6.34,6.34,0,0,1,0,9l-107.25,107.25A6.29,6.29,0,0,1-3352,3752.55Zm107.25-115.92a2.33,2.33,0,0,0-1.65.68l-107.25,107.25a2.34,2.34,0,0,0,0,3.3,2.39,2.39,0,0,0,3.3,0l107.25-107.25a2.34,2.34,0,0,0,0-3.3A2.33,2.33,0,0,0-3244.71,3636.63Z" transform="translate(3421.18 -3569.75)"/></svg>