<svg id="page_1_and_page_6" data-name="page 1 and page 6" xmlns="http://www.w3.org/2000/svg" viewBox="0 0 245.69 245.69"><defs><style>.cls-1{fill:#f9ce12;}.cls-2{fill:#edb220;opacity:0.4;}.cls-3{fill:#fff;}</style></defs><title>phone_icon</title><circle class="cls-1" cx="122.84" cy="122.84" r="122.84"/><path class="cls-2" d="M-3467.94,2839.77l-8.06,46.73,12.41,54.16,74.72,74.72a123.37,123.37,0,0,0,51.15-45.39Z" transform="translate(3564.44 -2781.56)"/><path class="cls-3" d="M-3484.84,2840.22l-12.37,11.47a12.56,12.56,0,0,0-4,9.65c0.69,19.24,9.37,80.22,89.33,109.82a12.64,12.64,0,0,0,12.13-1.84l12.93-10a12.61,12.61,0,0,0,1.74-18.3l-10.63-12.07a12.61,12.61,0,0,0-17.44-1.43l-4.35,3.55a12.61,12.61,0,0,1-17.78-1.83l-29.86-36.88a12.61,12.61,0,0,1,2.5-18.21l3.45-2.45a12.61,12.61,0,0,0,2.46-18.26l-9.77-11.95A12.61,12.61,0,0,0-3484.84,2840.22Z" transform="translate(3564.44 -2781.56)"/><path class="cls-3" d="M-3466.16,2850.83" transform="translate(3564.44 -2781.56)"/></svg>