<svg id="page_1_and_page_6" data-name="page 1 and page 6" xmlns="http://www.w3.org/2000/svg" viewBox="0 0 245.69 245.69"><defs><style>.cls-1{fill:#f9ce12;}.cls-2{fill:#edb220;opacity:0.4;}.cls-3{fill:#fff;}</style></defs><title>question_icon</title><circle class="cls-1" cx="122.84" cy="122.84" r="122.84"/><path class="cls-2" d="M-2616.77,2623.23l-47.56-8.06-25.7,45.56,41.07,41.07-4,26.41,62.63,62.63a123,123,0,0,0,60.24-80.93Z" transform="translate(2772.92 -2560.64)"/><path class="cls-2" d="M-2655.12,2756.88l43.36,43.36a122,122,0,0,0,16.67-6.87l-48.65-48.65Z" transform="translate(2772.92 -2560.64)"/><path class="cls-3" d="M-2655.28,2631.13" transform="translate(2772.92 -2560.64)"/><path class="cls-3" d="M-2686.48,2653.13" transform="translate(2772.92 -2560.64)"/><circle class="cls-3" cx="122.84" cy="189.58" r="8.42"/><path class="cls-3" d="M-2650.08,2728.73a8.4,8.4,0,0,1-8.4-8.4v-28.48a10.82,10.82,0,0,1,10.16-10.78,28.17,28.17,0,0,0,26.22-29,28.09,28.09,0,0,0-26.88-26.88,27.85,27.85,0,0,0-20.52,7.8,27.77,27.77,0,0,0-8.58,20.17,8.4,8.4,0,0,1-8.4,8.4,8.4,8.4,0,0,1-8.4-8.4,44.43,44.43,0,0,1,13.73-32.28,44.45,44.45,0,0,1,32.81-12.49,45,45,0,0,1,43,43,44.57,44.57,0,0,1-11.63,31.89,44.54,44.54,0,0,1-24.73,13.86v23.18A8.4,8.4,0,0,1-2650.08,2728.73Z" transform="translate(2772.92 -2560.64)"/></svg>